<?xml version="1.0" encoding="utf-8"?>
<!-- Generator: Adobe Illustrator 14.0.0, SVG Export Plug-In . SVG Version: 6.00 Build 43363)  -->
<!DOCTYPE svg PUBLIC "-//W3C//DTD SVG 1.1//EN" "http://www.w3.org/Graphics/SVG/1.1/DTD/svg11.dtd">
<svg version="1.1" id="Layer_1" xmlns="http://www.w3.org/2000/svg" xmlns:xlink="http://www.w3.org/1999/xlink" x="0px" y="0px"
	 width="31.417px" height="29.494px" viewBox="0 0 31.417 29.494" enable-background="new 0 0 31.417 29.494" xml:space="preserve">
<g id="dotpeek">
	<path id="path556" fill="#9A3965" d="M18.689,14.381c0,1.687-1.361,3.041-3.045,3.041c-1.682,0-3.041-1.365-3.041-3.041
		s1.359-3.047,3.041-3.047c1.686-0.053,3.018,1.346,3.018,2.947"/>
	<path id="path558" fill="#9A3965" d="M20.835,3.961h-0.172v6.34h0.172c2.262,0,4.199,1.799,4.199,4.103
		c0,2.264-1.841,4.073-4.103,4h-8.75v7.633h0.012c0.054,2,1.6,3.396,3.6,3.459c1.959,0,3.549-1.59,3.549-3.551
		c0-0.064-0.008-0.125-0.008-0.191v-0.986h1.646c5.768,0,10.436-4.672,10.436-10.438C31.27,8.681,26.662,3.88,20.859,3.88"/>
	<path id="path560" fill="#FA930D" d="M10.443,24.782h0.172v-6.347h-0.172c-2.266,0-4.094-1.836-4.094-4.104
		c0-2.26,1.828-4.072,4.094-4.072h8.742V3.459h-0.012C19.126,1.543,17.564,0,15.631,0c-1.958,0-3.552,1.6-3.552,3.555V3.91h-1.641
		C4.676,3.91,0,8.57,0,14.33c0.004,5.725,4.658,10.521,10.458,10.521"/>
</g>
</svg>
