<?xml version="1.0" encoding="utf-8"?>
<!-- Generator: Adobe Illustrator 14.0.0, SVG Export Plug-In . SVG Version: 6.00 Build 43363)  -->
<!DOCTYPE svg PUBLIC "-//W3C//DTD SVG 1.1//EN" "http://www.w3.org/Graphics/SVG/1.1/DTD/svg11.dtd">
<svg version="1.1" id="Layer_1" xmlns="http://www.w3.org/2000/svg" xmlns:xlink="http://www.w3.org/1999/xlink" x="0px" y="0px"
	 width="28.857px" height="29.094px" viewBox="0 0 28.857 29.094" enable-background="new 0 0 28.857 29.094" xml:space="preserve">
<g id="dottrace">
	<path id="path3915" fill="#F3972A" d="M8.536,16.811c0,2.09,1.706,3.797,3.797,3.797c2.09,0,3.797-1.707,3.797-3.797
		c0-2.103-1.707-3.798-3.797-3.798C10.242,13.015,8.536,14.71,8.536,16.811"/>
	<path id="path3917" fill="#9A3965" d="M27.917,5.419C27.29,4.78,26.454,4.455,25.561,4.47h-0.931V3.213
		c0-0.856-0.337-1.659-0.938-2.274C23.089,0.335,22.276,0,21.419,0c-0.87,0-1.672,0.337-2.288,0.938
		c-0.604,0.617-0.938,1.418-0.938,2.274l-0.013,13.561c0,3.217-2.625,5.84-5.854,5.855c-0.406,0-0.803-0.047-1.187-0.115
		c-2.706-0.561-4.668-2.973-4.668-5.748c0.012-3.216,2.646-5.841,5.862-5.855h3.899V4.456h-3.912c-3.298,0-6.387,1.289-8.709,3.609
		C1.276,10.386,0,13.487,0,16.774c0,1.162,0.163,2.312,0.487,3.438l0.162,0.521c0.014,0.012,0.197,0.545,0.197,0.545
		s0.128,0.277,0.196,0.434L1.03,21.723l0.025,0.045c0.011,0.014,0.149,0.289,0.22,0.441H1.264l0.011,0.031
		c0.014,0.021,0.244,0.453,0.244,0.453l0.021,0.047c0,0.014,0.269,0.453,0.269,0.453C1.822,23.215,2.065,23.6,2.065,23.6
		l0.047,0.078c0.012,0,0.255,0.352,0.255,0.352c0,0.014,0.094,0.115,0.094,0.115L2.426,24.11l0.325,0.396l-0.06-0.047l0.06,0.066
		l0.324,0.396c0.022,0.014,0.384,0.406,0.384,0.406c0.014,0.012,0.79,0.754,0.79,0.754l0.383,0.312l0.257,0.195
		c0.047,0.035,0.104,0.066,0.161,0.115l0.279,0.195c0,0.014,0.141,0.104,0.141,0.104l0.221,0.141c0.014,0,0.223,0.143,0.223,0.143
		l0.291,0.176l0.149,0.08c0.021,0.012,0.383,0.195,0.383,0.195l-0.06-0.021l0.15,0.082l0.324,0.148l0.141,0.068
		c0.021,0,0.351,0.141,0.351,0.141l0.149,0.068c0.013,0,0.35,0.129,0.35,0.129c0.012,0,0.162,0.061,0.162,0.061
		c-0.013,0,0.35,0.113,0.35,0.113l0.141,0.047l0.358,0.096l0.082,0.02c0.021,0.014,0.06,0.014,0.081,0.014v0.014l0.396,0.094h0.046
		v0.012c0.849,0.178,1.72,0.27,2.564,0.27c6.794,0,12.312-5.539,12.312-12.332v-5.855h0.916c0.896,0.035,1.729-0.301,2.369-0.938
		C29.171,8.716,29.171,6.672,27.917,5.419"/>
	<path id="path3919" fill="#FA930D" d="M8.536,16.811c0,2.09,1.706,3.797,3.797,3.797c2.09,0,3.797-1.707,3.797-3.797
		c0-2.103-1.707-3.798-3.797-3.798C10.242,13.015,8.536,14.71,8.536,16.811"/>
</g>
</svg>
