<?xml version="1.0" encoding="utf-8"?>
<!-- Generator: Adobe Illustrator 14.0.0, SVG Export Plug-In . SVG Version: 6.00 Build 43363)  -->
<!DOCTYPE svg PUBLIC "-//W3C//DTD SVG 1.1//EN" "http://www.w3.org/Graphics/SVG/1.1/DTD/svg11.dtd">
<svg version="1.1" id="Layer_1" xmlns="http://www.w3.org/2000/svg" xmlns:xlink="http://www.w3.org/1999/xlink" x="0px" y="0px"
	 width="36.312px" height="28.061px" viewBox="0 0 36.312 28.061" enable-background="new 0 0 36.312 28.061" xml:space="preserve">
<g id="resharper_1_">
	<path id="path46_1_" fill="#9A3965" d="M0,10.215v17.356h6.534c0-0.229,0.004-16.955,0.004-16.955c0-1.111,0.688-4.283,3.731-4.283
		c1.873,0,3.231,1.461,3.231,3.478c0,1.893-1.479,2.896-2.716,3.621l-0.492,0.296c-1.106,0.732-1.672,1.759-1.672,3.036
		c0,1.064,0.396,1.946,0.477,2.113l0.431,0.748l4.494,6.373c0.003,0.002,0.074,0.111,0.074,0.111
		c-0.003-0.002,0.604,0.871,0.604,0.871c0.356,0.467,0.851,0.813,1.554,0.987c0.884,0.222,1.87,0.021,2.58-0.457
		c0.701-0.469,1.109-1.065,1.267-1.88l0.053-0.536c-0.002-0.618-0.281-1.666-0.94-2.554c-0.329-0.511-3.395-4.662-3.646-5.158
		l-0.09-0.178l0.165-0.116c2.634-1.845,4.208-4.844,4.208-8.021V8.795c0-2.219-0.781-4.338-2.146-5.813
		C15.925,1.059,13.285,0,10.271,0C4.512,0,0,4.486,0,10.215"/>
	<path id="path50_1_" fill="#FA930D" d="M26.268,16.203l-3.252,0.002l0.729-3.667l3.253-0.004L26.268,16.203L26.268,16.203z
		 M34.475,0.471h-5.086l-1.552,7.817l-3.254,0.004l1.554-7.821h-5.084l-0.669,3.508c0.729,1.444,1.134,3.108,1.134,4.818V9.07
		c0,3.247-1.461,6.271-3.856,8.438c0.499,0.707,1.171,1.645,1.657,2.317c0,0,1.229,1.718,1.231,1.726
		c0.515,0.691,0.843,1.438,1.037,2.105l0.586-3.212l3.254-0.002l-1.422,7.169h5.084l1.423-7.172l3.385-0.008l0.843-4.24
		l-3.384,0.003l0.729-3.667l3.387-0.003l0.842-4.244l-3.386,0.003L34.475,0.471L34.475,0.471z"/>
</g>
</svg>
