<?xml version="1.0" encoding="utf-8"?>
<!-- Generator: Adobe Illustrator 17.0.1, SVG Export Plug-In . SVG Version: 6.00 Build 0)  -->
<!DOCTYPE svg PUBLIC "-//W3C//DTD SVG 1.1//EN" "http://www.w3.org/Graphics/SVG/1.1/DTD/svg11.dtd">
<svg version="1.1" id="Layer_1" xmlns="http://www.w3.org/2000/svg" xmlns:xlink="http://www.w3.org/1999/xlink" x="0px" y="0px"
	 width="56px" height="56px" viewBox="0 0 56 56" enable-background="new 0 0 56 56" xml:space="preserve">
<g>
	<path fill="#FFFFFF" d="M38.05,31.28c-2.119,2.568-5.917,2.936-8.484,0.822s-2.929-5.909-0.81-8.477s5.917-2.936,8.484-0.822
		S40.169,28.712,38.05,31.28z"/>
	<g>
		<path fill="#FFFFFF" d="M48.07,30.266c-1.754,0-3.387-0.513-4.772-1.385c-0.328,2.042-1.268,4.004-2.842,5.578
			c-3.471,3.471-8.82,3.902-12.768,1.308c-0.418-0.275-1.981-1.434-2.735-2.683c-0.411-0.68-0.768-1.361-1.25-2.317
			c-0.054,0.105-0.105,0.204-0.16,0.311c-2.359,4.561-4.655,7.856-6.828,9.794c-0.083,0.074-0.174,0.136-0.258,0.208
			c1.45,1.772,2.835,2.927,3.149,3.18c8.564,6.896,21.124,6.373,29.075-1.578c4.258-4.258,6.388-9.84,6.388-15.421v-0.006
			c0-0.11-0.014-0.22-0.016-0.329C53.403,28.961,50.887,30.266,48.07,30.266z"/>
		<path fill="#FFFFFF" d="M3.155,23.063c0.498,0.411,1.044,0.725,1.613,0.951c0.01,0.005,0.026,0.019,0.034,0.021
			c0.675,0.243,1.343,0.562,1.987,0.995c1.435-2.016,2.619-4.923,3.474-7.024c0.539-1.325,0.965-2.371,1.412-3.174
			c0.128-0.229,0.259-0.453,0.393-0.674c-1.094-0.644-2.188-1.119-3.225-1.461c-0.018-0.006-0.047-0.007-0.067-0.012
			c-2.265-0.707-4.831-0.032-6.434,1.911C0.229,17.159,0.592,20.949,3.155,23.063z"/>
	</g>
	<path fill="#FA930D" d="M53.22,18.568c-1.04-2.41-2.522-4.658-4.45-6.613l0.011-0.01c-0.035-0.036-0.065-0.075-0.101-0.111
		c-7.951-7.951-20.511-8.474-29.075-1.578c-0.464,0.374-3.271,2.717-5.164,6.117c-1.312,2.356-3.396,9.835-7.212,12.803
		c-0.761,0.592-1.563,0.99-2.376,1.287c-0.018,0.007-0.056,0.03-0.089,0.049c-0.915,0.361-1.754,0.95-2.424,1.762
		c-2.11,2.559-1.747,6.344,0.812,8.454c1.654,1.364,3.819,1.689,5.715,1.06c0.077-0.015,0.154-0.03,0.216-0.051
		c1.782-0.615,3.714-1.611,5.525-3.227c2.505-2.235,4.875-6.471,6.123-8.887c2.607-5.042,3.269-6.614,4.223-8.192
		c0.754-1.249,2.317-2.408,2.735-2.683c3.881-2.549,9.111-2.169,12.585,1.141l0.008-0.008c0.959,0.916,1.706,1.977,2.228,3.126
		c0.737,2.37,2.947,4.091,5.56,4.092c3.215,0,5.822-2.606,5.822-5.821C53.892,20.299,53.647,19.378,53.22,18.568z"/>
</g>
</svg>
