<?xml version="1.0" encoding="utf-8"?>
<!-- Generator: Adobe Illustrator 17.0.1, SVG Export Plug-In . SVG Version: 6.00 Build 0)  -->
<!DOCTYPE svg PUBLIC "-//W3C//DTD SVG 1.1//EN" "http://www.w3.org/Graphics/SVG/1.1/DTD/svg11.dtd">
<svg version="1.1" id="Layer_1" xmlns="http://www.w3.org/2000/svg" xmlns:xlink="http://www.w3.org/1999/xlink" x="0px" y="0px"
	 width="841.89px" height="595.28px" viewBox="0 0 841.89 595.28" enable-background="new 0 0 841.89 595.28" xml:space="preserve">
<g>
	<g>
		<circle fill="#FA930D" cx="173.714" cy="280.535" r="18.657"/>
		<path fill="#FA930D" d="M197.448,349.132c-7.432,4.519-15.755,7.708-23.485,7.708c-0.078,0-0.169-0.012-0.249-0.013v0.001v-0.001
			c-0.079,0.001-0.171,0.013-0.249,0.013c-7.73,0-16.052-3.189-23.484-7.708c-0.39,11.429-1.208,24.231,23.458,24.231
			c0.098,0,0.178-0.007,0.275-0.007v-0.001v0.001c0.097,0,0.178,0.007,0.276,0.007C198.656,373.362,197.838,360.561,197.448,349.132
			z"/>
		<path fill="#136BA2" d="M173.928,215.055h-0.001c-0.069,0-0.139,0.005-0.208,0.005v0.025l-0.004-0.012v0.002v-0.002l-0.004,0.012
			v-0.025c-0.069,0-0.139-0.005-0.208-0.005H173.5c-36.244,0-65.626,27.015-65.625,60.337c0,19.878,10.274,38.34,26.491,53.324
			c10.969,10.135,27.286,20.42,39.207,20.42h0.001c0.046,0,0.093-0.004,0.139-0.009v-0.001v0.001
			c0.046,0.004,0.094,0.009,0.14,0.009l0,0c11.922,0,28.238-10.285,39.207-20.42c16.216-14.984,26.491-33.447,26.491-53.324
			C239.554,242.07,210.171,215.055,173.928,215.055z M174.055,319.117h-0.584c-9.12,0-30.856-17.784-30.856-40.858
			c0-7.321,3.212-14.591,9.045-19.766c5.834-5.175,13.591-8.025,21.841-8.025c0.069,0,0.139,0.009,0.208,0.009v-0.025l0.004,0.012
			v-0.001v0.001l0.004-0.012v0.025c0.069-0.001,0.139-0.009,0.208-0.009c8.25,0,16.007,2.85,21.841,8.025
			c5.832,5.175,9.045,12.445,9.045,19.766C204.812,301.333,182.987,319.117,174.055,319.117z"/>
	</g>
</g>
</svg>
