<?xml version="1.0" encoding="utf-8"?>
<!-- Generator: Adobe Illustrator 14.0.0, SVG Export Plug-In . SVG Version: 6.00 Build 43363)  -->
<!DOCTYPE svg PUBLIC "-//W3C//DTD SVG 1.1//EN" "http://www.w3.org/Graphics/SVG/1.1/DTD/svg11.dtd">
<svg version="1.1" id="Layer_1" xmlns="http://www.w3.org/2000/svg" xmlns:xlink="http://www.w3.org/1999/xlink" x="0px" y="0px"
	 width="29.076px" height="24.832px" viewBox="0 0 29.076 24.832" enable-background="new 0 0 29.076 24.832" xml:space="preserve">
<g id="webstorm">
	<path id="path146" fill="#2788B5" d="M17.312,24.104c0.301-0.377,0.654-0.789,1.076-1.271l0.211-0.242
		c0.26-0.303,0.479-0.537,0.688-0.762c0.417-0.449,0.774-0.838,1.437-1.732c0.646-0.881,1.062-1.541,0.992-2.676
		c-0.033-0.584-0.058-0.984-0.438-1.453c-0.229-0.283-0.651-0.693-1.104-1.127c-0.485-0.459-0.909-0.898-1.483-1.5
		c-0.575-0.6-1.317-2.12-1.317-2.12c-0.224-0.52-0.636-1.561-0.75-2.54l-1.688-8.661h-4.812L7.768,10.938L5.682,0.017H0
		l5.125,24.814H9.91l2.392-10.743l2.116,10.743h2.222l0.674-0.724v-0.004H17.312z"/>
	<path id="path150" fill="#FA930D" d="M27.328,1.483C27.83,0.901,28.244,0.429,28.585,0h-7.634c-0.453,0.58-1.376,1.698-1.902,2.688
		C18.354,4,17.78,4.987,17.726,7.403L17.75,8.18c0,1.152,0.821,2.846,0.821,2.846c0.132,0.3,0.566,0.935,0.847,1.319h-0.006
		c0.09,0.122,0.149,0.2,0.149,0.2c0.82,0.943,2.065,1.996,2.614,2.671c0.646,0.793,0.66,1.537,0.695,2.115
		c0.093,1.563-0.541,2.51-1.22,3.434c-1.022,1.396-1.395,1.652-2.182,2.566c-0.502,0.582-0.916,1.055-1.258,1.479h7.889
		c0.463-0.594,1.121-1.688,1.647-2.688c0.694-1.312,1.271-2.299,1.323-4.713l-0.024-0.779c0-1.152-0.823-2.845-0.823-2.845
		c-0.129-0.3-0.562-0.933-0.845-1.321h0.007c-0.091-0.12-0.148-0.199-0.148-0.199c-0.823-0.942-2.067-1.996-2.616-2.672
		c-0.646-0.794-0.66-1.539-0.692-2.116c-0.095-1.563,0.538-2.509,1.217-3.433C26.172,2.657,26.539,2.396,27.328,1.483"/>
</g>
</svg>
