<?xml version="1.0" standalone="no"?>
<!DOCTYPE svg PUBLIC "-//W3C//DTD SVG 1.1//EN" "http://www.w3.org/Graphics/SVG/1.1/DTD/svg11.dtd" >
<svg xmlns="http://www.w3.org/2000/svg">
<metadata>Generated by IcoMoon</metadata>
<defs>
<font id="font-icon" horiz-adv-x="512">
<font-face units-per-em="512" ascent="480" descent="-32" />
<missing-glyph horiz-adv-x="512" />
<glyph unicode="&#x20;" d="" horiz-adv-x="256" />
<glyph unicode="&#xe002;" d="M512-32h-512v512h512v-512zM426.666 266.667l-100.010-5.333 57.344 90.666-85.334 50.646-42.666-93.312-42.666 93.312-85.334-50.646 57.344-89.984-100.010 4.651v-85.334l100.010 3.328-57.344-88.661 85.334-50.688 42.666 93.269 42.666-93.269 85.334 50.688-58.666 89.344 101.332-4.010v85.332z" />
<glyph unicode="&#xe003;" d="M512-32h-512v512h512v-512zM426.666 181.334v85.332h-341.332v-85.334l341.332 0.001z" />
<glyph unicode="&#xe004;" d="M512-32h-512v512h512v-512zM426.666 394.666h-256l117.93-87.552-203.263-203.221 50.56-50.56 203.264 203.264 87.509-117.931v256z" />
<glyph unicode="&#xe005;" d="M439.716 406.709c-102.889-83.152-83.139-66.818-216.156-189.136-46.325 33.507-63.119 46.731-129.79 80.264-8.265-7.864-18.819-19.077-18.819-19.077s75.992-118.604 150.578-209.796c90.828 119.332 99.268 132.543 238.139 314.714-7.116 7.117-15.696 14.345-23.953 23.029z" horiz-adv-x="595" />
<glyph unicode="&#xe006;" d="M512-32h-512v512h512v-512zM426.666 266.667h-128v128h-85.332v-128h-128v-85.334h128v-128h85.334l-0.001 128.001h128v85.332z" />
<glyph unicode="&#xe008;" d="M227.555 480h56.889v-227.555h227.555v-56.889h-227.555v-227.555h-56.889v227.555h-227.555v56.889h227.555v227.555z" />
<glyph unicode="&#xe00a;" d="M285.399 297.447c-5.079 28.821-15.176 63.166-27.52 92.171l-0.051-0.015c-25.221 21.709-77.64 30.873-135.107 20.736-57.477-10.112-103.593-36.66-119.874-65.689l-0.471-0.092c-1.669-31.448 0.579-67.185 5.663-96.032 20.348-115.324 104.126-227.373 180.726-213.877 76.575 13.512 116.976 147.456 96.634 262.8zM54.334 244.367c-3.373-1.214-7.199-1.173-10.685 0.487-7.025 3.251-10.029 11.576-6.764 18.555 12.841 27.572 45.701 39.517 73.251 26.69 6.999-3.272 10.019-11.582 6.759-18.575-3.276-6.999-11.576-10.029-18.56-6.764-13.603 6.344-29.793 0.42-36.132-13.143-1.635-3.513-4.511-6.007-7.87-7.251zM254.101 197.125c-34.571-109.671-112.339-123.367-182.317-32.163l0.132 0.025c-0.067 0.041-0.132 0.067-0.174 0.108-4.061 2.851-5.053 8.444-2.207 12.524 2.872 4.071 8.438 5.064 12.523 2.217 5.54-3.912 11.412-7.178 17.423-9.984 20.781-9.656 43.956-12.831 66.975-8.771 23.036 4.065 43.709 14.976 59.924 31.139 4.701 4.711 9.073 9.795 12.964 15.335 2.877 4.060 8.463 5.053 12.524 2.207 4.085-2.847 5.054-8.438 2.207-12.524-0.015-0.041-0.066-0.092-0.107-0.128l0.133 0.015zM253.22 281.81c-5.438-5.459-14.295-5.459-19.748 0-10.603 10.599-27.858 10.599-38.431 0-2.744-2.744-6.323-4.111-9.897-4.111-3.584 0.025-7.157 1.367-9.901 4.111-5.438 5.448-5.438 14.311 0 19.763 21.519 21.494 56.483 21.494 77.972 0 5.477-5.474 5.477-14.316 0.005-19.763zM509.613 344.555h-0.041c-16.291 29.051-62.382 55.577-119.875 65.716-43.182 7.624-83.517 4.332-111.616-6.984l1.837-4.28c10.844-25.431 20.296-55.572 26.26-83.19 12.589-5.007 23.368-14.592 29.533-27.801 3.272-7.009 0.236-15.335-6.759-18.601-5.637-2.612-12.057-1.107-16.077 3.18 2.493-26.236 2.243-52.992-0.644-78.961 12.37-2.191 24.693-6.923 37.421-9.164 32.512-5.724 67.896 4.751 85.166-50.073l-0.132 0.025c0.051-0.067 0.092-0.113 0.132-0.159 2.831-4.065 1.858-9.676-2.212-12.524-4.060-2.847-9.666-1.848-12.513 2.212-3.885 5.565-8.284 10.628-12.969 15.329-16.231 16.19-45.635 8.995-68.654 13.056-12.851 2.252-21.95 3.225-30.387 8.504-3.005-15.82-6.978-26.286-12.022-40.796-6.887-19.968-15.349-37.483-25.134-52.373 14.664-17.608 32.252-29.465 52.311-33.024 76.596-13.496 160.38 98.555 180.715 213.877 5.084 28.848 7.337 64.585 5.657 96.032zM476.175 257.219c-5.483-5.448-14.315-5.448-19.774 0-10.62 10.609-27.848 10.609-38.456 0-2.709-2.733-6.293-4.107-9.877-4.107-3.569 0-7.153 1.377-9.871 4.107-5.473 5.459-5.473 14.311 0 19.748 21.463 21.494 56.452 21.519 77.972 0.025 5.438-5.457 5.438-14.309 0.005-19.772z" />
<glyph unicode="&#xe00b;" d="M210.286 315.428q0-3.714-2.714-6.428t-6.428-2.714-6.428 2.714-2.714 6.428q0 13.143-15.428 20.286t-30.286 7.143q-3.714 0-6.428 2.715t-2.714 6.428 2.714 6.428 6.428 2.715q14.286 0 28.428-4.572t24.857-15.428 10.714-25.715zM256 315.428q0 20.572-9.857 38.286t-25.715 29-35.143 17.714-39 6.429-39-6.429-35.143-17.714-25.715-29-9.857-38.286q0-28.857 19.428-51.428 2.857-3.143 8.715-9.428t8.715-9.428q36.572-43.714 40.285-85.143h65.143q3.714 41.428 40.286 85.143 2.857 3.143 8.714 9.429t8.714 9.428q19.428 22.572 19.428 51.428zM292.572 315.428q0-44.285-29.428-76.571-12.857-14-21.286-24.857t-17-27.286-9.714-30.714q13.428-8 13.428-23.428 0-10.572-7.143-18.286 7.143-7.714 7.143-18.286 0-14.857-12.857-23.143 3.714-6.572 3.714-13.428 0-13.143-9-20.286t-22.143-7.143q-5.714-12.572-17.143-20t-24.857-7.428-24.857 7.428-17.143 20q-13.143 0-22.143 7.143t-9 20.286q0 6.857 3.715 13.428-12.857 8.286-12.857 23.143 0 10.572 7.143 18.286-7.143 7.714-7.143 18.286 0 15.428 13.428 23.428-1.143 14.286-9.715 30.714t-17 27.286-21.285 24.857q-29.428 32.285-29.428 76.571 0 28.286 12.714 52.714t33.428 40.572 46.857 25.428 53.285 9.286 53.286-9.286 46.857-25.428 33.429-40.572 12.714-52.714z" horiz-adv-x="293" />
<glyph unicode="&#xe00d;" d="M208.149 280.704h65.633l-115.072 199.296-115.057-199.296h65.633c-7.367-125.143-62.099-215.567-111.431-215.567v-97.137c61.527 0 117.048 39.368 156.334 110.853 1.551 2.82 3.041 5.735 4.525 8.637 1.49-2.899 2.975-5.816 4.525-8.637 39.291-71.484 94.813-110.853 156.345-110.853v97.137c-49.325 0-104.069 90.424-111.436 215.567z" horiz-adv-x="317" />
<glyph unicode="&#xe00e;" d="M415.362 105.219l-41.512-41.479-115.241 115.246-115.298-115.294-41.492 41.51 115.279 115.293-115.26 115.264 41.473 41.477 115.279-115.264 115.26 115.264 41.512-41.495-115.279-115.264z" horiz-adv-x="517" />
<glyph unicode="&#xe00f;" d="M244.957 449.882v-92.361h92.361v92.361h-92.361zM244.957 172.8h92.361v92.361h-92.361v-92.361zM244.957-11.921h92.361v92.361h-92.361v-92.361z" horiz-adv-x="592" />
<glyph unicode="&#xe010;" d="M452.177 425.582h-114.428c0 21.073-17.026 38.164-38.164 38.164h-38.164c-21.065 0-38.165-17.026-38.165-38.164h-114.427c-21.073 0-38.164-17.1-38.164-38.164 0-21.073-0.407-18.424-0.407-38.165h419.49c0 23.389 0.334 17.026 0.334 38.165 0.245 21.13-16.831 38.164-37.904 38.164zM147.123 311.219c-21.065 0-18.424-0.82-38.165-0.82l0.001-304.233c0-21.073 17.1-38.164 38.165-38.164h266.955c21.073 0 38.164 17.026 38.164 38.164v305.632c-22.219 0-17.026-0.577-38.164-0.577l-266.957-0.001zM223.387 51.448h-38.165v173.934h38.165v-173.934zM299.651 51.448h-38.164l0.049 173.934h38.164l-0.049-173.934zM375.913 51.448h-38.164l0.049 173.934h38.164l-0.049-173.934z" horiz-adv-x="560" />
<glyph unicode="&#xe011;" d="M548.572 150.857q0-45.428-32.143-77.572t-77.572-32.143h-310.857q-52.857 0-90.428 37.572t-37.572 90.428q0 37.714 20.285 69t53.428 46.714q-0.572 8-0.572 12.286 0 60.572 42.857 103.428t103.428 42.857q45.143 0 81.857-25.143t53.572-65.714q20 17.714 47.428 17.714 30.286 0 51.714-21.428t21.428-51.714q0-21.428-11.714-39.428 36.857-8.572 60.857-38.428t24-68.428z" horiz-adv-x="549" />
<glyph unicode="&#xe012;" d="M512 277.143v-226.857q0-18.857-13.428-32.286t-32.286-13.428h-420.572q-18.857 0-32.285 13.428t-13.428 32.286v226.857q12.572-14 28.857-24.857 103.429-70.286 142-98.572 16.285-12 26.429-18.714t27-13.714 31.428-7h0.572q14.572 0 31.428 7t27 13.714 26.428 18.714q48.572 35.143 142.286 98.572 16.286 11.143 28.572 24.857zM512 361.143q0-22.572-14-43.143t-34.857-35.143q-107.428-74.571-133.714-92.857-2.857-2-12.143-8.714t-15.428-10.857-14.857-9.286-16.428-7.714-14.286-2.572h-0.571q-6.571 0-14.286 2.572t-16.429 7.714-14.857 9.286-15.429 10.857-12.143 8.714q-26 18.286-74.857 52.143t-58.572 40.715q-17.715 12-33.428 33t-15.714 39q0 22.286 11.857 37.143t33.857 14.857h420.572q18.572 0 32.143-13.428t13.572-32.286z" />
<glyph unicode="&#xe013;" d="M340.857 324.857q3.143 2 7.143 6.286v-0.286q0-0.571-2.714-2.857t-3.286-3.428q-0.286 0.285-1.143 0.285zM339.143 324.572q-0.286 0.285-0.714 0.857t-0.428 0.857q0.857-0.571 2.857-1.428-1.714-1.143-1.714-0.286zM208 376.857q-4.572 0.572-7.428 1.429 0.286 0 1.857-0.286t3-0.572 2.571-0.572zM220.857 387.428q2 1.143 3.857 0.715t2.143-2.143q-1.429 0.857-6 1.428zM218.571 385.714l-0.857 0.572q-0.571 0.857-1.571 1.428t-1.286 0.572q0.571-0.286 6-0.857-1.714-1.143-2.286-1.714zM189.429 409.714v0.572q0.286-0.572 0.857-1.572t0.857-1.571zM159.429 398.286q0-0.572-0.286-0.572l-0.286 0.572h0.571zM266.572 100v0zM219.429 443.428q59.715 0 110.143-29.428t79.857-79.857 29.428-110.143-29.428-110.143-79.857-79.857-110.143-29.428-110.143 29.428-79.857 79.857-29.428 110.143 29.428 110.143 79.857 79.857 110.143 29.428zM354.286 87.428l1.428 1.428q-2 2.857-8.286 3.428 0.286 3.428-4 7.572t-7.714 4.428q0 1.143-3 3.143t-5 2.286q-2.572 0.572-7.714-2.572-2-0.857-1.143-1.428-0.857 0.857-3.428 3.143t-4.572 3.143q-0.572 0.286-2.143 0.286t-2.428 0.572q-0.286 0.286-1.714 1.286t-2 1.286-1.857 0.857-2.143 0.428-2.143-0.714-2.428-1.714-1.286-4.428-0.714-4.143q-2.286 1.714-0.143 5.714t0.428 5.714q-2 2-6 0.143t-6-4.428q-0.286-0.286-2.714-1.572t-3.286-2.143q-1.143-1.714-2.572-5t-1.714-3.857q0 0.572-0.714 1.857t-0.714 1.857q-3.428-0.572-4.572 0.857 1.428-4.572 2.286-4.857l-1.143 0.572q-0.286-1.714 0.857-4.286t1.143-3.143q0.286-1.428-0.428-3.714t-0.714-3.143q0-0.572 1.428-3.143 1.143-5.428-0.572-9.143 0-0.286-1-2t-1.857-3.143l-0.572-1.428-0.572 0.286q-0.286 0.286-0.572 0-0.286-1.714-2.572-3.714t-2.857-3.143q-4.286-6.572-2.571-10.857 0.857-2.286 2.857-2.857 0.857-0.286 0.857 0.572 0.286-2.572-3.143-7.714 0.286-0.286 1.143-0.857-4.857 0-2.857-4 57.715 10.286 100.571 51.714h-0.857zM194.286 140.286q4.572 0.857 8.714-4.572t6.428-6.572q11.714-5.714 16.857-3.143 0-2.572 4-8 0.857-1.143 1.857-3.286t1.571-3q1.429-2 5.429-4.572t5.428-4.572q1.714 0.857 2.571 2.572 3.714-10 6.857-9.714 1.429 0 2.286 2.286 0-0.286-0.143-0.857t-0.429-0.857q2 4.286 1.429 7.428l1.714 1.143q1.428 1.143 1.428 1.428-1.714 1.714-2.572-0.857-8.572-4-13.714 6.286-0.571 0.857-1.286 2.286t-1.429 3.428-0.429 3.286 1.714 1.286q3.143 0 3.571 0.428t-0.714 1.714-1.143 2.143q-0.286 1.143-0.429 3.572t-0.429 3.572l-1.429 1.714q-1.429 1.714-3.286 3.857t-2.143 2.714q-1.143-2.857-4.714-2.428t-5.286 2.714q0.286-0.572-0.143-1.857t-0.429-1.857q-4 0-4.857 0.286 0.286 1.714 0.857 6t1.143 6.286q0.286 1.428 1.571 3.857t2.286 4.428 1.286 4-1.286 3-5.286 0.714q-5.714-0.286-8.286-6.286-0.286-0.857-0.857-3.286t-1.429-3.572-2.571-2q-2.286-0.857-7.714-0.572t-7.429 1.428q-4 2.286-6.857 8.714t-3.143 11.857q0 2.857 0.857 7.857t0.857 7.714-1.714 7.572q0.857 0.572 2.857 3t3.143 3.286q0.571 0.572 1.429 0.572h1.429t1.143 0.572 0.857 1.714q-0.286 0.286-1.143 0.857-0.857 0.857-1.143 0.857 1.143-0.857 5.428-0.286t5.428 0.572q0 0.286 6.286 0 4.857-3.714 6.857 0.572 0 0.286-0.714 3t-0.143 4.143q1.429-8.286 9.143-2.857 0.857-1.143 4.714-1.714t5.286-1.428q0.857-0.572 2-1.572t1.714-1.428 1.714-0.143 2.571 2q3.143-4.857 3.714-7.143 3.143-12.286 5.714-13.714 2.286-0.572 3.571-0.572t1.429 3 0 4.428-0.428 3.714l-0.571 10.572q-4.571 0.857-5.714 3.572t0.429 5.714 4.714 5.572q0.286 0.286 4.714 2.286t6.143 3.429q6.857 5.429 4.857 11.143 2.572-0.571 3.143 2.571l-1.428 0.857q-1.143 0.857-2.286 1.571t-1.428 0.429q3.143 2 0.572 5.143 1.428 0.857 2.286 3.286t2.572 3.286q2.572-4 6.286-0.857 2.286 2.571 0.572 5.143 1.428 2.286 6.286 3.286t5.714 2.714q1.428-0.285 2 0t0.572 1.286v2.143t0.286 2.429 0.857 2.143q1.143 1.714 4.572 3t4 1.571l5.428 3.429q1.143 1.143 0 1.143 5.143-0.571 9.143 3.143 3.714 3.428-1.428 6.572 0.572 2-1.143 3t-4.572 1.572q0.857 0.285 3.428 0.143t3.428 0.429q4.286 3.143-2 4.857-5.714 1.428-13.428-3.714-0.857-0.571-3.714-3.429t-4.857-3.143q4.286 5.143 1.428 6.286 2.286-0.286 6.428 2.572t4.428 3.143q1.143 0.571 3 0.714t2.428 0.428q20.286 7.143 26.286-0.285 2.286 3.143 3.143 4.285t2.714 2.572 4.428 2.286q6 2 6.572 2.571l0.286 6.572q-3.428-0.286-5.143 2.286t-2 6.286l-1.714-2.286q0 1.714-1 2.143t-2.143 0.143-2.714-0.572-2.143 0q-2.572 0.572-5.572 4.429t-4.143 4.714q2.572 0 2.572 1.428-0.572 1.429-2.857 2.286 0.286 1.714-0.572 2.285t-2.572 0q-0.572 3.429-0.286 3.715-1.714 0.285-3.143 3.143t-2.286 2.857q-0.572 0-1.286-0.572t-1.428-1.572l-1.428-2t-1-1.572l-0.572-0.572q-3.428 1.715-6.857-2.857-2.572 0.286-4.857-0.572 4.286 1.715 0.572 3.715-3.143 1.428-6 0.571 3.428 1.429 2.857 4t-3.428 4.572q0.286 0 1.143-0.286t1.143-0.285q-0.286 1.428-2.714 2.714t-5.572 2.571-4 1.857q-2 1.428-10.286 3t-10.286 0.428q-1.428-0.857-1.714-1.714t0.428-2.428 1-2.428q1.714-6.572 1.428-7.715-0.286-0.857-2.428-2.285t-1.572-3.429q0.286-1.143 3.286-2.857t3.572-3.428q1.428-3.714-1.143-7.143-1.143-1.428-4.286-3.143t-4-2.857q-1.428-1.428-1-3.285t0.143-2.715q0.286 0.286 0.286 0.715t0.286 0.714q0-3.714 3.143-6.285 2.286-1.715-4.572-5.143-5.714-3.143-5.714-1.143 0.286 2.286-2.143 4.572t-3 3.428-1 5.429-2.714 6q-1.714 1.143-5.429 1.143t-5.143-1.428q0 2.857-14 8.572-4.857 2.286-16.571 1.143 2 0.285 0 4.857-2.286 4.572-6 3.428-2.286 7.143-1.143 10 0.571 1.429 2.571 4t2.571 4.286q0.286 0.857 4.429 1.714t4.714 2.286q0.286 1.143-0.714 1.857t-2.714 1.285q15.143-1.714 18 5.143 1.429 2.572 0.857 4 0-0.286 0.571-0.286t0.571-0.286q3.429 0.857 2 4.857 5.429 2.286 7.429 2.286 1.429-0.286 3.143-1.715t2.857-1.428q4.857-0.857 6.143 2.857t-2.714 6.571q2-1.143 2 1.715-0.286 3.714-2 5.428-0.857 0.572-1.857 0.714t-1.857 0-2 0.143q-0.286 0-2.286 0.571-0.286-0.285-0.571-0.285h-2.286q-1.143-0.572-1.143-1.428v-0.286q-0.286-0.857 1.143-1.714l1.429-0.286 0.857-0.572q-0.286 0-0.714-0.714t-0.714-0.715q0-0.857 0.857-1.428-0.571-0.285-4-2.143t-4.857-3q-0.286-0.286-1.143-0.714t-1.143-0.715q-0.571-0.285-1.143 0.572t-1.143 2.572-1.143 3.285-1.286 2.857-1.571 1.286q-3.429 0-5.143-4.857 0.857 2.857-3.714 5t-7.143 2.143q5.714 4.286-2.571 8.571l-0.286 0.286q-8.571-1.143-12.857-2-0.571-1.714 0.857-3.428-0.286-2 1.714-2.572 0-0.286 0.143-0.286t0.143-0.285q0 0.285-0.143 0.285t-0.143 0.286q0.857-0.286 3-0.428t2.714-0.428q0.857-0.286 1.286-0.572l2.143-1.428t1.571-1.714-0.714-1.429q-0.571-0.286-2.571-1.143t-3.571-1.572-1.857-1q-0.857-1.428 0-4.572t-0.571-4.285q-1.429 1.428-2.857 5.285t-2.286 5q2.286-2.572-8.572-1.714l-2.286 0.286q-1.143 0-4.286-0.572t-4.572-0.286q-2 0-8.286 1.714 2 4.857 1.429 7.143 1.429 0 2 0.572l-1.714 0.857q-0.857-0.285-7.143-2.572 0.571-0.857 2.286-2.714t2.571-3.286q-6.286 1.715-7.714-0.571 0-0.286-2.571 0-7.143 0.286-6.857-2 0.286-1.143 2.571-3.429 0-2.571-0.286-2.571-7.714 6.286-8.572 6.571-49.143-23.714-78.857-70.857 0.285-0.572 0.715-3.143t1-2.428 3.143 1.286q2.572-2.571 0.857-6 0.572 0.571 10.285-6 16-11.428 6.285-15.143v1.571t0.285 1.857q-2.572-0.286-5.428 1.428-0.857-1.714 0.143-5.714t3.285-4q-2.285 0-3-4.857t-0.715-11-0.285-7.285l0.572-0.286q-0.857-3.714 1.715-10.714t6.857-5.857q-1.143-5.143 1.428-6-0.285-1.143 0-2.286t1.285-2.429 1.715-2l3.857-3.857q8-3.143 11.715-8.286 1.143-1.714 3-7t4.428-7.286q-0.572-1.714 2.857-6.143t3.143-7.286q-0.285 0-0.715-0.143t-0.715-0.143q0.857-2.286 4.715-4.572t4.715-4q0.572-0.857 0.715-3t0.857-3.428 2.428-0.714q0.857 6.857-7.428 19.428-4.572 7.714-5.143 8.857-0.857 1.428-1.572 4.714t-1.285 4.428q7.715-2.572 7.428-3.714-1.428-2.857 7.428-14.857 0.572-0.857 2.857-2.857t3.143-3.428q0.857-1.143 2.714-4.143t3-4.428q-0.286 0-0.857-0.572l-0.857-0.857q1.143-0.572 2.571-1.428t2.286-1.286 2.143-1.428 2.143-2.143q4.571-5.143 5.714-9.428 0.286-1.143 0.143-4.428t0.429-4.714q0.571-1.714 1.714-3.143t3.286-2.857 3.286-2 4.143-1.857 3.286-1.572q0.571-0.286 5.143-3.143t7.143-4q2.857-1.143 4.714-1.286t4.572 0.714 4.428 1.143z" horiz-adv-x="439" />
<glyph unicode="&#xe014;" d="M170.974 180.753c36.921 0 66.822 30.219 66.822 67.391 0 37.25-29.9 67.403-66.822 67.403s-66.833-30.22-66.833-67.403c0.017-37.171 29.975-67.391 66.833-67.391zM682.37 47.394c-4.722 100.044-152.257 153.692-211.637 153.692-45.625 0-139.071-31.767-182.18-91.705-35.828 31.437-90.169 47.947-117.976 47.947-42.861 0-144.361-39.026-147.763-111.798h300.26c-0.012 0.648-0.216 1.217-0.239 1.866l359.537-0.001zM471.382 233.308c51.212 0 92.684 41.461 92.684 92.672s-41.54 92.683-92.683 92.683-92.672-41.541-92.672-92.683 41.461-92.672 92.672-92.672z" horiz-adv-x="705" />
<glyph unicode="&#xe015;" d="M237.714 333.714q0 22.857-16 38.857t-38.857 16-38.857-16-16-38.857q0-12 5.428-23.714-11.715 5.428-23.715 5.428-22.857 0-38.857-16t-16-38.857 16-38.857 38.857-16 38.857 16 16 38.857q0 12-5.428 23.714 11.714-5.428 23.714-5.428 22.857 0 38.857 16t16 38.857zM480.857 132.572q0-4.857-14-18.857t-18.857-14q-2.572 0-8.143 4.572t-10.428 9.428-11 11.428-7 7.428l-27.428-27.428 62.857-62.857q8-8 8-19.428 0-12-11.143-23.143t-23.143-11.143q-11.428 0-19.428 8l-191.714 191.714q-50.286-37.428-104.285-37.428-46.572 0-75.857 29.286t-29.285 75.857q0 45.715 27.143 89.429t70.857 70.857 89.428 27.143q46.572 0 75.857-29.286t29.286-75.857q0-54-37.428-104.286l101.428-101.428 27.428 27.428q-0.857 0.857-7.428 7t-11.428 11-9.428 10.428-4.572 8.143q0 4.857 14 18.857t18.857 14q3.714 0 6.572-2.857 1.714-1.714 13.143-12.715t23.428-22.714 24.714-24.572 20.857-22.286 8.143-11.714z" />
<glyph unicode="&#xe600;" d="M329.143 237.714q0 52.857-37.572 90.428t-90.428 37.571-90.428-37.571-37.572-90.428 37.572-90.428 90.428-37.572 90.428 37.572 37.572 90.428zM475.428 0q0-14.857-10.857-25.714t-25.714-10.857q-15.428 0-25.714 10.857l-98 97.714q-51.143-35.428-114-35.428-40.857 0-78.143 15.857t-64.285 42.857-42.857 64.286-15.857 78.143 15.857 78.143 42.857 64.285 64.285 42.857 78.143 15.857 78.143-15.857 64.286-42.857 42.857-64.285 15.857-78.143q0-62.857-35.428-114l98-98q10.572-10.572 10.572-25.714z" horiz-adv-x="476" />
<glyph unicode="&#xe601;" d="M477.428 313.714q0-11.428-8-19.428l-245.714-245.714q-8-8-19.428-8t-19.428 8l-142.286 142.285q-8 8-8 19.428t8 19.428l38.857 38.857q8 8 19.428 8t19.428-8l84-84.285 187.429 187.714q8 8 19.428 8t19.428-8l38.857-38.857q8-8 8-19.428z" />
<glyph unicode="&#xe602;" d="M366.74 415.892h-205.809c-3.523 0-6.375-2.852-6.375-6.369v-346.076c0-3.522 2.852-6.37 6.375-6.37h34.78l128.855-49.838c0.712-0.276 1.464-0.42 2.212-0.42 1.219 0 2.432 0.363 3.461 1.075 1.669 1.147 2.668 3.036 2.668 5.053v44.13h33.833c3.517 0 6.364 2.852 6.364 8.433v346.082c0 1.449-2.852 4.301-6.364 4.301zM297.866 159.734c-9.493 0-17.173 7.68-17.173 17.173 0 9.477 7.68 17.168 17.173 17.168s17.173-7.69 17.173-17.168c-0.005-9.493-7.685-17.173-17.173-17.173zM360.371 69.811h-27.464v285.337c0 2.652-1.705 4.997-4.224 5.822l-128.655 42.178h160.338v-333.337z" />
<glyph unicode="&#xe603;" d="M292.572 219.429q0 30.286-21.428 51.714t-51.714 21.428-51.714-21.428-21.428-51.714 21.428-51.714 51.714-21.428 51.714 21.428 21.428 51.714zM438.857 250.572v-63.428q0-3.428-2.286-6.572t-5.714-3.714l-52.857-8q-5.428-15.428-11.143-26 10-14.286 30.572-39.428 2.857-3.428 2.857-7.143t-2.572-6.572q-7.714-10.572-28.286-30.857t-26.857-20.286q-3.428 0-7.428 2.572l-39.428 30.857q-12.572-6.572-26-10.857-4.572-38.857-8.286-53.143-2-8-10.286-8h-63.428q-4 0-7 2.428t-3.286 6.143l-8 52.572q-14 4.572-25.714 10.572l-40.285-30.572q-2.857-2.572-7.143-2.572-4 0-7.143 3.143-36 32.572-47.143 48-2 2.857-2 6.572 0 3.428 2.285 6.572 4.285 6 14.572 19t15.428 20.143q-7.715 14.286-11.715 28.286l-52.285 7.714q-3.715 0.572-6 3.572t-2.285 6.714v63.428q0 3.428 2.285 6.572t5.428 3.714l53.143 8q4 13.143 11.143 26.286-11.428 16.286-30.572 39.428-2.857 3.428-2.857 6.857 0 2.857 2.572 6.572 7.428 10.286 28.143 30.714t27 20.428q3.715 0 7.428-2.857l39.428-30.572q12.572 6.572 26 10.857 4.572 38.857 8.286 53.143 2 8 10.286 8h63.428q4 0 7-2.428t3.286-6.143l8-52.571q14-4.572 25.714-10.572l40.572 30.572q2.572 2.571 6.857 2.571 3.714 0 7.143-2.857 36.857-34 47.143-48.572 2-2.286 2-6.286 0-3.428-2.286-6.571-4.286-6-14.572-19t-15.428-20.143q7.428-14.286 11.714-28l52.286-8q3.714-0.571 6-3.571t2.286-6.714z" horiz-adv-x="439" />
<glyph unicode="&#xe604;" d="M431.714 173.714q0-1.428-0.286-2-18.286-76.572-76.572-124.143t-136.571-47.572q-41.715 0-80.715 15.714t-69.572 44.857l-36.857-36.857q-5.428-5.428-12.857-5.428t-12.857 5.428-5.428 12.857v128q0 7.428 5.428 12.857t12.857 5.428h128q7.428 0 12.857-5.428t5.429-12.857-5.428-12.857l-39.143-39.143q20.285-18.857 46-29.143t53.429-10.286q38.286 0 71.428 18.572t53.143 51.143q3.143 4.857 15.143 33.428 2.286 6.572 8.572 6.572h54.857q3.714 0 6.428-2.714t2.714-6.428zM438.857 402.286v-128q0-7.428-5.428-12.857t-12.857-5.428h-128q-7.428 0-12.857 5.428t-5.428 12.857 5.428 12.857l39.428 39.428q-42.286 39.143-99.714 39.143-38.286 0-71.428-18.571t-53.143-51.143q-3.143-4.857-15.143-33.428-2.285-6.572-8.572-6.572h-56.857q-3.715 0-6.428 2.714t-2.715 6.428v2q18.572 76.572 77.143 124.143t137.143 47.572q41.714 0 81.143-15.857t70-44.714l37.143 36.857q5.428 5.428 12.857 5.428t12.857-5.428 5.428-12.857z" horiz-adv-x="439" />
<glyph unicode="&#xe605;" d="M103.715 36.572l26 26-67.143 67.143-26-26v-30.572h36.572v-36.572h30.572zM253.143 301.714q0 6.286-6.286 6.286-2.857 0-4.857-2l-154.857-154.857q-2-2-2-4.857 0-6.286 6.285-6.286 2.857 0 4.857 2l154.857 154.857q2 2 2 4.857zM237.714 356.572l118.857-118.857-237.714-237.714h-118.857v118.857zM432.857 329.143q0-15.143-10.572-25.714l-47.428-47.428-118.857 118.857 47.428 47.143q10.286 10.857 25.714 10.857 15.143 0 26-10.857l67.143-66.857q10.572-11.143 10.572-26z" horiz-adv-x="439" />
<glyph unicode="&#xe606;" d="M212 26l-186.286 186q-10.572 10.572-10.572 25.857t10.572 25.857l186.286 186q10.572 10.571 25.857 10.571t25.857-10.571l21.428-21.429q10.572-10.571 10.572-25.857t-10.572-25.857l-138.857-138.857 138.857-138.571q10.572-10.857 10.572-26t-10.572-25.714l-21.428-21.428q-10.572-10.572-25.857-10.572t-25.857 10.572z" horiz-adv-x="329" />
<glyph unicode="&#xe607;" d="M314 237.714q0-14.857-10.572-26l-186.286-186q-10.572-10.572-25.715-10.572t-25.715 10.572l-21.715 21.428q-10.572 11.143-10.572 26 0 15.143 10.572 25.714l138.857 138.857-138.857 138.572q-10.572 11.143-10.572 26 0 15.143 10.572 25.714l21.715 21.428q10.285 10.857 25.715 10.857t25.715-10.857l186.286-186q10.572-10.571 10.572-25.714z" horiz-adv-x="329" />
<glyph unicode="&#xe608;" d="M374.857 220.286q0 46-24.857 84.286l-215.429-215.143q39.143-25.428 84.857-25.428 31.714 0 60.428 12.428t49.572 33.286 33.143 49.857 12.286 60.714zM89.428 134.857l215.714 215.428q-38.572 26-85.714 26-42.286 0-78-20.857t-56.572-56.857-20.857-78.285q0-46.286 25.428-85.428zM438.857 220.286q0-44.857-17.428-85.714t-46.714-70.286-70-46.857-85.286-17.428-85.286 17.428-70 46.857-46.715 70.286-17.428 85.714 17.428 85.572 46.715 70.143 70 46.857 85.286 17.428 85.286-17.428 70-46.857 46.714-70.143 17.428-85.572z" horiz-adv-x="439" />
<glyph unicode="&#xe609;" d="M137.143 228.572v128q0 4-2.571 6.572t-6.572 2.572-6.572-2.572-2.572-6.572v-128q0-4 2.572-6.571t6.572-2.572 6.572 2.572 2.571 6.572zM329.143 128q0-7.428-5.428-12.857t-12.857-5.428h-122.572l-14.572-138q-0.571-3.428-3-5.857t-5.857-2.428h-0.286q-7.714 0-9.143 7.715l-21.714 138.572h-115.428q-7.428 0-12.857 5.428t-5.428 12.857q0 35.143 22.428 63.286t50.715 28.143v146.286q-14.857 0-25.715 10.857t-10.857 25.714 10.857 25.714 25.715 10.857h182.857q14.857 0 25.714-10.857t10.857-25.714-10.857-25.714-25.714-10.857v-146.286q28.286 0 50.714-28.143t22.428-63.286z" horiz-adv-x="329" />
<glyph unicode="&#xe60a;" d="M292.572 274.286q0-7.428-5.428-12.857l-128-128q-5.428-5.428-12.857-5.428t-12.857 5.428l-128 128q-5.428 5.428-5.428 12.857t5.428 12.857 12.857 5.428h256q7.428 0 12.857-5.428t5.428-12.857z" horiz-adv-x="293" />
<glyph unicode="&#xe60b;" d="M292.572 128q0-7.428-5.428-12.857t-12.857-5.428h-256q-7.428 0-12.857 5.428t-5.428 12.857 5.428 12.857l128 128q5.429 5.428 12.857 5.428t12.857-5.428l128-128q5.428-5.428 5.428-12.857z" horiz-adv-x="293" />
<glyph unicode="&#xe60c;" d="M256 480c-141.383 0-256-114.616-256-256s114.617-256 256-256 256 114.616 256 256-114.616 256-256 256zM90.885 288c0 1.034 0.103 2.043 0.153 3.067 44.324 15.078 71.378 38.19 87.030 56.535 23.869-9.293 40.811-32.44 40.816-59.602 0-35.344-28.656-64-64.005-64-35.344 0-63.995 28.651-63.995 64zM343.26 73.339c-3.128-3.134-7.229-4.695-11.325-4.695-4.106 0-8.207 1.567-11.325 4.695-40.007 39.998-89.502 40.238-129.208 0.538-6.256-6.267-16.399-6.267-22.656 0-6.256 6.252-6.256 16.389 0 22.651 52.203 52.199 122.025 51.952 174.515-0.538 6.262-6.262 6.262-16.394 0-22.651zM357.13 224c-35.349 0-64.010 28.656-64.010 64 0 27.161 16.942 50.309 40.812 59.602 15.652-18.345 42.711-41.457 87.030-56.535 0.051-1.024 0.159-2.033 0.159-3.067 0-35.349-28.651-64-63.99-64z" />
<glyph unicode="&#xe60d;" d="M256-23.273c-141.382 0-256 114.618-256 256s114.618 256 256 256 256-114.618 256-256-114.618-256-256-256zM256 442.182c-115.689 0-209.454-93.766-209.454-209.455s93.766-209.454 209.454-209.454 209.454 93.766 209.454 209.454-93.766 209.455-209.454 209.455zM279.272 189.487c0-12.753 0-26.577 0-26.577h-46.546c0 0 0 33.675 0 46.546s10.426 23.272 23.273 23.272v0c25.693 0 46.545 20.852 46.545 46.546s-20.853 46.546-46.546 46.546-46.546-20.852-46.546-46.546c0-8.518 2.444-16.407 6.447-23.272h-49.688c-1.955 7.47-3.304 15.197-3.304 23.272 0 51.41 41.681 93.091 93.091 93.091s93.091-41.681 93.091-93.091c0-43.31-29.719-79.406-69.818-89.786zM279.272 93.091h-46.546v46.546h46.546v-46.546z" />
<glyph unicode="&#xe60e;" d="M499.507 26.061l-228.045 400.154c-3.149 5.53-9.063 8.935-15.463 8.935s-12.288-3.405-15.463-8.935l-228.019-400.154c-3.098-5.427-3.046-12.058 0.128-17.433s9.011-8.678 15.309-8.678h456.064c6.247 0 12.109 3.303 15.309 8.678 3.175 5.376 3.226 12.007 0.179 17.433zM284.16 51.149h-56.32v51.2h56.32v-51.2zM284.16 140.749h-56.32v153.6h56.32v-153.6z" />
<glyph unicode="&#xe60f;" d="M28.132 482.394v-512.895h512.895v512.895h-512.895zM501.57 8.957h-433.984v433.984h433.984v-433.984zM422.666 245.674h-276.171v-39.454h276.171v39.454z" horiz-adv-x="609" />
<glyph unicode="&#xe610;" d="M28.132 483.567v-512.895h512.895v512.895h-512.895zM501.57 10.128h-433.984v433.984h433.984v-433.984zM264.856 89.036h39.454v118.358h118.358v39.454h-118.358v118.358h-39.454v-118.358h-118.358v-39.454h118.358v-118.358z" horiz-adv-x="609" />
<glyph unicode="&#xe611;" d="M423.781 205.889c-18.75-16.533-45.95-9.335-45.95 22.994v96.224c0 13.213-9.812 22.654-23.031 22.654h-96.936c-32.329 0-39.533 27.237-22.994 45.975 27.23 30.848 12.643 78.551-36.907 80.621-49.543-2.063-64.131-49.685-36.9-80.539 16.539-18.744 9.341-46.054-22.988-46.054h-95.505c-13.213 0-24.016-9.44-24.016-22.654v-98.206c0-5.76 2.583-15.456 8.102-18.025 5.488-2.553 12.587 0.111 18.422 5.433 17.952 16.366 42.060 20.925 62.526 11.918 20.572-9.068 34.838-30.372 34.838-56.976v-0.781c0-26.524-14.433-47.622-35.109-56.728-20.69-9.106-44.91-4.212-62.923 12.209-5.774 5.271-12.544 7.786-17.821 5.334-5.42-2.533-8.033-11.8-8.033-17.561v-98.845c0-13.213 10.803-24.394 24.016-24.394h312.228c13.219 0 23.031 11.18 23.031 24.394v96.224c0 32.329 26.99 39.52 45.721 22.988 30.848-27.231 78.18-12.642 80.249 36.907-2.068 49.543-49.171 64.125-80.019 36.894z" />
<glyph unicode="&#xe612;" d="M350.454 74.608h-309.904v309.904l309.904-0.041 40.458 40.494h-390.81v-390.81h390.81v188.662l-40.458-40.448zM453.269 444.861l-206.761-206.771-105.421 105.426-58.619-58.629 164.040-164.040 265.39 265.39z" />
<glyph unicode="&#xe613;" d="M139.224-21.315l40.355 39.993v234.256c35.287 20.029 59.107 57.616 59.012 100.769 0.13 64.29-52.469 116.351-117.26 116.495-64.94-0.144-117.528-52.205-117.632-116.495 0.074-43.034 23.814-80.536 59.008-100.6v-47.118l37.315-37.325-28.564-28.56 27.422-27.413-28.157-28.167 28.54-28.555-28.54-28.555 48.718-48.738c7.338-7.036 12.485-7.214 19.785 0.011zM90.486 404.707c0.159 17.182 14.145 30.999 31.233 30.841 17.326 0.159 31.298-13.659 31.218-30.841 0.089-16.898-13.892-30.716-31.218-30.846-17.092 0.13-31.069 13.947-31.233 30.846z" horiz-adv-x="247" />
<glyph unicode="&#xe614;" d="M256-1.469c-124.32 0-225.469 101.141-225.469 225.469 0 124.32 101.149 225.469 225.469 225.469 124.328 0 225.469-101.149 225.469-225.469 0-124.328-101.141-225.469-225.469-225.469v0zM256 420.231c-108.203 0-196.231-88.024-196.231-196.231 0-108.189 88.028-196.217 196.231-196.217 108.189 0 196.217 88.028 196.217 196.217 0 108.207-88.028 196.23-196.217 196.23v0zM274.813 198.589c-0.64 0.829-1.33 1.596-2.056 2.322-0.032 0.036-0.040 0.081-0.072 0.113l-109.722 114.687c-0.252 0.262-0.555 0.438-0.87 0.563-2.281 1.592-5.483 1.718-7.743-0.026-1.393-1.064-2.281-2.612-2.507-4.348-0.18-1.375 0.095-2.733 0.731-3.923 0.032-0.064 0.036-0.131 0.077-0.194 0 0 83.969-137.45 84.524-138.172 4.523-5.884 11.395-9.258 18.835-9.258 5.272 0 10.277 1.7 14.462 4.906 5.041 3.882 8.243 9.478 9.091 15.774 0.807 6.277-0.884 12.517-4.749 17.555zM255.987 361.005c-5.186 0-9.42 4.229-9.42 9.416s4.23 9.42 9.42 9.42 9.429-4.23 9.429-9.42-4.243-9.416-9.429-9.416v0zM302.414 354.894c-0.839 0-1.651 0.104-2.449 0.316-2.417 0.654-4.464 2.214-5.723 4.392-1.253 2.178-1.587 4.721-0.942 7.152 1.317 4.892 6.62 7.964 11.543 6.646 5.014-1.33 7.995-6.507 6.656-11.525-1.109-4.113-4.834-6.981-9.087-6.981v0zM209.571 354.894c-4.256 0-8 2.868-9.1 6.981-0.649 2.43-0.311 4.965 0.942 7.138 1.254 2.178 3.287 3.738 5.723 4.383 4.924 1.317 10.222-1.754 11.535-6.651 0.649-2.431 0.311-4.974-0.942-7.148-1.254-2.178-3.287-3.738-5.718-4.388-0.808-0.212-1.623-0.316-2.44-0.316v0zM166.322 336.978c-3.351 0-6.48 1.809-8.166 4.708-1.254 2.178-1.583 4.712-0.929 7.142s2.209 4.464 4.388 5.718c4.343 2.512 10.367 0.883 12.861-3.441 2.593-4.505 1.050-10.277-3.446-12.87-1.444-0.821-3.058-1.258-4.708-1.258v0zM129.173 308.474c-2.525 0-4.883 0.983-6.665 2.764-3.662 3.671-3.662 9.646 0.005 13.311 3.549 3.558 9.758 3.563 13.325 0 3.666-3.671 3.666-9.646 0-13.316-1.781-1.777-4.144-2.76-6.665-2.76v0zM100.66 271.335c-1.641 0-3.274 0.438-4.699 1.258-2.178 1.267-3.734 3.292-4.383 5.727-0.65 2.43-0.32 4.974 0.938 7.142 2.494 4.32 8.509 5.961 12.861 3.45 4.51-2.597 6.052-8.37 3.45-12.865-1.677-2.909-4.812-4.712-8.166-4.712v0zM410.735 271.808c-3.639 0-7.034 1.943-8.866 5.068-14.841 25.149-36.007 46.163-61.278 60.782-2.38 1.375-4.077 3.589-4.776 6.236-0.721 2.652-0.342 5.433 1.024 7.805 2.728 4.731 9.293 6.498 14.051 3.752 28.31-16.391 52.061-39.952 68.688-68.15 1.375-2.359 1.777-5.123 1.087-7.779-0.672-2.661-2.372-4.893-4.736-6.295-1.578-0.923-3.377-1.42-5.195-1.42v0zM317.652 173.82c-16.735 0-23.119-12.419-27.286-17.83-8.229-10.701-20.762-16.184-33.297-15.873-12.554-0.312-25.077 5.168-33.32 15.873-4.157 5.411-10.548 17.831-27.286 17.831-11.652 0-77.493 0-116.423 0 21.875-76.579 92.442-132.82 175.957-132.82s154.077 56.242 175.952 132.82c-39.159 0-102.85 0-114.294 0zM306.239 81.539h-100.482c-9.331 0-16.933 7.377-16.933 16.441 0 9.087 7.603 16.459 16.933 16.459h100.479c9.339 0 16.924-7.377 16.924-16.459 0.005-9.063-7.58-16.441-16.918-16.441z" />
<glyph unicode="&#xe615;" d="M244.772 346.671h105.084v-105.084h-105.084v105.084zM104.66 346.671h105.083v-105.084h-105.084v105.084zM244.772 206.559h105.084v-105.084h-105.084v105.084zM104.66 206.559h105.083v-105.084h-105.084v105.084zM174.453 381.697v70.055h315.51v-455.358h-315.51v70.32h245.456v314.986z" horiz-adv-x="637" />
<glyph unicode="&#xe616;" d="M395.993 129.448c5.538 18.533 9.388 38.404 11.444 59.207 7.88-2.586 16.798-4.192 26.43-4.192 30.415 0 55.074 14.689 55.074 32.793 0 18.125-24.655 32.815-55.074 32.815-9.253 0-17.846-1.498-25.502-3.888-1.209 17.101-3.771 33.547-7.358 49.276 26.757-3.28 66.332 6.535 80.019 42.477 5.803 15.245 16.4 65.679-4.317 70.835-33.169 8.246-48.988-25.144-67.525-53.845-6.443-9.976-12.728-18.173-17.996-25.219-25.183 69.931-74.087 117.379-130.337 117.379-56.251 0-105.195-47.479-130.362-117.442-5.286 7.047-11.579 15.267-18.042 25.275-18.543 28.704-34.361 62.090-67.528 53.845-20.718-5.152-10.12-55.59-4.317-70.835 13.696-35.973 53.34-45.773 80.091-42.472-3.585-15.74-6.159-32.199-7.359-49.317-7.668 2.415-16.294 3.921-25.575 3.921-30.415 0-55.074-14.689-55.074-32.815 0-18.111 24.655-32.793 55.074-32.793 9.664 0 18.608 1.613 26.505 4.207 2.046-20.815 5.903-40.682 11.444-59.233-29.926 1.761-68.647-9.216-82.835-46.478-5.803-15.245-15.002-62.32 6.151-65.262 47.816-6.632 38.053 21.486 56.602 50.183 9.216 14.281 20.66 26.614 28.953 36.378 26.111-64.265 72.82-107.26 126.281-107.26 53.434 0 100.137 42.964 126.264 107.207 8.283-9.758 19.687-22.087 28.897-36.33 18.543-28.707 8.786-56.827 56.602-50.183 21.156 2.937 11.959 50.014 6.151 65.262-14.178 37.236-52.865 48.219-82.769 46.486zM260.832 71.097c-21.672 0-39.246 38.031-39.246 84.937 0 46.913 17.57 84.942 39.246 84.942 21.671 0 39.246-38.031 39.246-84.942 0-46.908-17.583-84.937-39.246-84.937zM258.889 297.155c-48.749 0-68.731 0-86.311 0 0 55.754 39.518 94.288 88.261 94.288s88.262-38.532 88.262-94.288c-22.647 0-41.457 0-90.214 0z" horiz-adv-x="532" />
<glyph unicode="&#xe617;" d="M355.341 447.687h-187.332l-132.502-132.493v-187.337l132.502-132.493h187.332l132.502 132.493v187.337l-132.502 132.493zM452.665 142.433l-111.892-111.886h-158.202l-111.892 111.886v158.202l111.892 111.886h158.202l111.892-111.886v-158.202zM226.267 373.19h75.050v-187.625h-75.050v187.625zM226.267 146.866h75.050v-75.050h-75.050v75.050z" horiz-adv-x="532" />
<glyph unicode="&#xe618;" d="M203.806-32c0 0.057 0.24 0.144 0 0.2-0.24-0.057 0-0.149 0-0.2zM203.827 480l-203.827-52.516c0 0 0-45.829 0-139.709 0-186.368 135.875-303.196 203.806-319.381 67.938 16.185 203.806 133.013 203.806 319.381 0 93.885 0 139.709 0 139.709l-203.786 52.516zM264.996 231.424l30.162-99.809-7.419-5.069-85.351 59.422-86.605-60.309-6.615 4.562 30.643 101.202-85.765 65.004 1.495 6.364 108.17 1.034 34.422 97.92h8.51l34.432-97.92 107.75-1.598 2.647-5.534-86.477-65.27z" horiz-adv-x="408" />
<glyph unicode="&#xe619;" d="M256 444.96c-122.033 0-220.96-98.927-220.96-220.96s98.927-220.96 220.96-220.96c122.033 0 220.96 98.927 220.96 220.96s-98.927 220.96-220.96 220.96zM256 71.993c-18.778 0-34.001 15.224-34.001 34.001s15.224 34.001 34.001 34.001c18.777 0 34.001-15.224 34.001-34.001s-15.224-34.001-34.001-34.001zM290.001 200.114c0-18.777-15.224-34.005-34.001-34.005s-34.001 15.228-34.001 34.005v141.892c0 18.777 15.224 34.001 34.001 34.001s34.001-15.224 34.001-34.001v-141.892z" />
<glyph unicode="&#xe61a;" d="M253.998 191.125c-81.71 0-148.388 16.108-152.213 36.316-31.565-4.613-62.848-10.665-93.732-18.16 52.777-80.798 144.363-125.701 248.627-125.701 103.516 0 194.55 44.242 247.501 123.95-32.302 8.079-65.039 14.562-98.079 19.487-4.664-20.009-70.958-35.891-152.105-35.891zM512 219.678l-79.058 97.776c-20.5 28.447-53.878 46.966-91.582 46.966-33.7 0-63.969-14.807-84.644-38.277-20.679 23.47-50.949 38.277-84.654 38.277-37.694 0-71.076-18.519-91.571-46.966l-79.063-97.777c0.256-0.435 0.548-0.834 0.809-1.264 81.382 20.065 165.565 30.29 250.306 30.29 87.178 0 173.798-10.788 257.47-32.051 0.625 1.024 1.321 1.986 1.93 3.026h0.056z" />
<glyph unicode="&#xe61b;" d="M442.675 216.514c-1.413 0.363-2.877 0.558-4.362 0.558-3.497 0-7.035-1.055-10.481-2.99-1.122 10.68-1.858 21.279-1.858 31.606 0 49.454-3.486 105.529-29.373 146.555-26.394 41.825-72.387 62.157-140.601 62.157s-114.212-20.332-140.606-62.162c-25.882-41.022-29.368-97.101-29.368-146.555 0-10.322-0.737-20.925-1.859-31.606-3.446 1.935-6.984 2.99-10.481 2.99-1.485 0-2.949-0.195-4.368-0.558-15.468-4.019-21.99-28.677-14.832-56.212 3.794-14.602 10.665-26.813 18.647-34.325-0.522-7.957-0.717-15.764-0.415-23.419 1.060-26.665 8.305-47.416 22.154-63.426 13.010-15.048 31.642-26.025 56.965-33.551 27.115-8.054 61.184-11.976 104.162-11.976s77.046 3.922 104.161 11.981c25.324 7.526 43.961 18.503 56.965 33.551 13.849 16.010 21.094 36.762 22.154 63.426 0.302 7.649 0.108 15.457-0.414 23.414 7.982 7.511 14.853 19.722 18.647 34.329 7.163 27.536 0.64 52.193-14.838 56.212zM360.469 236.411c36.352 2.929 40.361 41.764 42.588 43.981 1.255 1.25 5.801-9.031 5.801-43.638 0-5.13-0.256-11.566-0.743-16.594h-304.236c-0.487 5.023-0.743 11.126-0.743 16.251h257.331zM311.993 205.322c0.839-8.555 8.074-15.262 16.85-15.262 8.801 0 16.051 6.748 16.855 15.339l30.356-0.026-2.995-34.032h-70.323l-15.442 33.828 24.699 0.154zM166.303 205.399c0.804-8.591 8.054-15.339 16.855-15.339 8.77 0 16.010 6.707 16.85 15.262l24.699-0.149-15.442-33.828h-70.318l-3 34.033 30.357 0.021zM62.761 162.457c-2.949 11.356-3.435 22.523-1.362 31.509 1.822 7.9 5.494 13.092 10.071 14.285 0.712 0.185 1.459 0.276 2.217 0.276 2.862 0 6.108-1.367 9.395-3.947-1.162-9.431-2.534-18.877-3.891-28.19-1.941-13.276-3.82-26.173-5.079-38.707-4.552 6.082-8.678 14.474-11.351 24.776zM303.212 84.382c0-10.235-8.3-18.534-18.534-18.534h-7.481c-0.281 0.036-0.574 0.057-0.891 0.057-12.8 0-20.306 12.892-20.306 12.892s-7.506-12.892-20.306-12.892c-0.317 0-0.609-0.021-0.891-0.057h-7.864c-10.235 0-18.535 8.3-18.535 18.534v0.712c0 10.235 8.299 18.534 18.535 18.534h57.738c10.235 0 18.534-8.3 18.534-18.534v-0.712zM308.142 127.202c-2.714-0.292-101.576-0.292-104.284 0-2.355 0.246-27.407-43.719-62.459 0.44-16.43 22.718-29.399 48.697-35.102 77.921h17.613l3.251-43.479h90.23l21.136 43.479h34.949l21.135-43.479h90.23l3.251 43.479h17.613c-5.699-29.225-18.673-55.199-35.103-77.921-35.051-44.16-60.103-0.195-62.459-0.44zM449.239 162.401c-2.673-10.296-6.8-18.693-11.346-24.796-1.26 12.554-3.144 25.477-5.084 38.779-1.357 9.313-2.734 18.755-3.891 28.185 3.287 2.58 6.533 3.947 9.395 3.947 0.758 0 1.505-0.098 2.217-0.286 4.577-1.188 8.248-6.4 10.071-14.3 2.079-8.976 1.592-20.178-1.362-31.529zM286.055 92.938h-60.109c-1.966 0-3.564-1.598-3.564-3.563s1.597-3.563 3.564-3.563h60.109c1.966 0 3.563 1.598 3.563 3.563s-1.592 3.563-3.563 3.563z" />
<glyph unicode="&#xe61c;" d="M375.911 143.166v262.605h-239.821v-262.605l119.91-91.474zM458.142 454.334c-5.611 0-10.558-2.658-13.803-6.728h-376.678c-3.251 4.070-8.192 6.728-13.803 6.728-9.794 0-17.73-7.941-17.73-17.731s7.941-17.731 17.73-17.731c5.54 0 10.419 2.591 13.671 6.569h24.894v-309.422l163.579-122.353 163.574 122.353v309.422h24.894c3.251-3.978 8.135-6.569 13.671-6.569 9.794 0 17.731 7.941 17.731 17.731s-7.931 17.731-17.726 17.731zM397.517 131.922l-141.517-109.445-141.517 109.445v293.519h283.034v-293.519z" />
<glyph unicode="&#xe61d;" d="M488.688 317.163c-44.749 110.797-160.358 171.684-273.505 151.598 0.286-0.64 0.609-1.244 0.875-1.899 2.626-6.482 3.753-13.2 3.609-19.763 97.536 16.937 197.186-32.215 241.813-123.223l-115.015-46.474c-35.538 82.688-79.175 131.348-123.156 153.81-1.024-7.362-3.661-14.428-7.757-20.613 35.559-19.42 75.842-61.154 110.433-141.466l-148.065-59.822c-31.642 83.743-31.196 143.125-17.997 181.115-7.112 2.13-13.675 5.842-19.221 10.885-17.977-46.054-16.112-113.505 16.743-200.289l-114.412-46.203c-30.224 97.51 13.957 217.57 99.594 267.095 9.661-11.955 26.343-16.752 41.334-10.695 18.365 7.424 27.254 28.339 19.82 46.715-7.414 18.375-28.334 27.254-46.715 19.825-14.51-5.863-23.050-20.132-22.364-34.928-101.822-55.271-151.762-200.218-106.686-311.803 45.43-112.43 163.81-173.435 278.528-150.62-1.863 2.786-3.471 5.806-4.746 9.017-1.613 3.927-2.606 7.926-3.144 11.93-101.488-18.396-205.589 35.005-247.926 132.741l114.949 46.438c36.332-85.438 89.38-143.252 133.975-166.159-0.906 8.038 4.403 18.519 9.656 21.75-35.399 22.046-88.775 72.986-123.126 152.709l148.096 59.827c29.87-79.257 28.283-153.738 19.272-194.662 7.010 1.173 18.002-2.58 23.358-8.428 13.993 48.020 10.014 127.401-22.134 211.374l115.425 46.643c36.332-98.288-12.144-217.534-94.776-275.763-9.779 11.207-25.918 15.611-40.484 9.712-18.391-7.404-27.274-28.308-19.845-46.7 7.424-18.381 28.349-27.248 46.736-19.84 14.802 5.995 23.45 20.793 22.313 35.911 95.303 64.272 149.299 199.531 104.546 310.257z" />
<glyph unicode="&#xe61e;" d="M157.522 194.575v-187.561s1.357 14.684 79.698-13.184c0 0 53.714-20.711 94.387-20.711 0 0 51.973-0.005 79.089 0 27.115 0 35.394 22.784 45.952 40.858 0 0 9.037 25.902 0 37.95 0 0 25.605 10.306 27.115 32.333 0 0 4.521 11.556-6.026 31.145 0 0 13.553 17.526 16.563 46.438 0 0 4.526 8.765-9.042 20.368 0 0 16.512 34.197 9.759 52.27 0 0-9.759 34.652-29.337 33.147 0 0-105.462-6.021-112.983-7.531-7.526-1.511-11.597-1.506-26.132 7.531 0 0-7.010 9.042 14.080 39.173 0 0 25.62 51.216 31.642 79.847 0 0 7.542 49.715-33.142 78.336 0 0-19.589 12.053-31.642 0 0 0-3.010-6.031-6.026-48.215 0 0-3.015-33.142-25.615-61.757 0 0-47.683-42.183-61.24-76.831-0.005 0.005-21.258-54.241-57.098-83.604zM25.953 206.531c-14.704-126.085-3.052-212.93-3.052-212.93h84.194v212.798c-51.2 6.462-81.142 0.133-81.142 0.133z" />
<glyph unicode="&#xe61f;" d="M422.377 285.841l168.203 97.058-168.203 97.102v-60.127c-65.202-8.325-109.19-58.768-151.575-110.214 12.132-15.649 24.041-31.588 35.707-47.371l12.755-17.141c17.853 23.218 35.261 44.499 52.113 60.995 19.678 19.701 37.243 31.010 51 35.35v-55.652zM330.551 193.837c-42.14 52.781-84.903 119.185-133.766 167.78-32.523 31.788-70.233 59.281-118.873 59.927h-77.913v-77.913h77.913c21.615 2.649 63.332-29.673 104.893-83.945 42.185-52.781 84.903-119.185 133.81-167.78 29.518-28.873 63.377-54.005 105.762-58.88v-58.903l168.203 97.124-168.203 97.079v-56.431c-23.151 7.591-57.456 37.065-91.826 81.942z" horiz-adv-x="601" />
<glyph unicode="&#xe620;" d="M341.334 394.666l-85.355 85.334h-255.978v-512h597.333v426.666h-256zM512 53.334h-426.666v256h426.666v-256z" horiz-adv-x="598" />
<glyph unicode="&#xe621;" d="M375.466 377.6l-102.4 102.366h-273.067v-511.966h375.433v409.583l0.034 0.017zM307.2 36.267h-238.934v375.466h170.667l0.034-68.267h68.233v-307.2zM273.067 377.6v51.2l53.334-51.2h-53.334z" horiz-adv-x="376" />
<glyph unicode="&#xe622;" d="M433.741 404.485h-364.8c-26.398 0-43.341-23.071-43.341-49.47v-192c0-26.399 16.942-46.531 43.341-46.531h244.997c16.333-24.002 34.028-57.216 34.028-57.216 12.856-23.055 27.904-20.429 33.433 5.381l11.024 51.83h41.324c26.399 0 52.659 20.127 52.659 46.531v192c-0.005 26.404-26.265 49.475-52.664 49.475z" />
<glyph unicode="&#xe623;" d="M365.714 91.429q0 7.428-5.428 12.857t-12.857 5.428-12.857-5.428-5.428-12.857 5.428-12.857 12.857-5.428 12.857 5.428 5.428 12.857zM438.857 91.429q0 7.428-5.428 12.857t-12.857 5.428-12.857-5.428-5.428-12.857 5.428-12.857 12.857-5.428 12.857 5.428 5.428 12.857zM475.428 155.429v-91.428q0-11.428-8-19.428t-19.428-8h-420.572q-11.428 0-19.428 8t-8 19.428v91.428q0 11.428 8 19.428t19.428 8h132.857l38.571-38.857q16.572-16 38.857-16t38.857 16l38.857 38.857h132.572q11.428 0 19.428-8t8-19.428zM382.572 318q4.857-11.714-4-20l-128-128q-5.143-5.428-12.857-5.428t-12.857 5.428l-128 128q-8.857 8.286-4 20 4.857 11.143 16.857 11.143h73.143v128q0 7.429 5.428 12.857t12.857 5.428h73.143q7.428 0 12.857-5.428t5.428-12.857v-128h73.143q12 0 16.857-11.143z" horiz-adv-x="476" />
<glyph unicode="&#xe624;" d="M109.715 36.572h256v73.143h-256v-73.143zM109.715 219.429h256v109.714h-45.714q-11.428 0-19.428 8t-8 19.428v45.714h-182.857v-182.857zM438.857 201.143q0 7.428-5.428 12.857t-12.857 5.428-12.857-5.428-5.428-12.857 5.428-12.857 12.857-5.428 12.857 5.428 5.428 12.857zM475.428 201.143v-118.857q0-3.714-2.714-6.428t-6.428-2.714h-64v-45.714q0-11.428-8-19.428t-19.428-8h-274.286q-11.428 0-19.428 8t-8 19.428v45.714h-64q-3.715 0-6.428 2.714t-2.715 6.428v118.857q0 22.572 16.143 38.714t38.715 16.143h18.285v155.429q0 11.428 8 19.428t19.428 8h192q11.428 0 25.143-5.714t21.714-13.715l43.428-43.428q8-8 13.714-21.714t5.714-25.143v-73.143h18.286q22.572 0 38.714-16.143t16.143-38.714z" horiz-adv-x="476" />
<glyph unicode="&#xe625;" d="M182.857 347.429v-256q0-7.428-5.429-12.857t-12.857-5.428-12.857 5.428l-128 128q-5.428 5.428-5.428 12.857t5.428 12.857l128 128q5.428 5.428 12.857 5.428t12.857-5.428 5.428-12.857z" horiz-adv-x="183" />
<glyph unicode="&#xe626;" d="M164.571 219.429q0-7.428-5.429-12.857l-128-128q-5.428-5.428-12.857-5.428t-12.857 5.428-5.428 12.857v256q0 7.428 5.428 12.857t12.857 5.428 12.857-5.428l128-128q5.428-5.428 5.428-12.857z" horiz-adv-x="183" />
<glyph unicode="&#xe627;" d="M395.428 210.572l-379.428-210.857q-6.572-3.714-11.286-0.857t-4.715 10.286v420.572q0 7.428 4.715 10.285t11.286-0.857l379.428-210.857q6.572-3.714 6.572-8.857t-6.572-8.857z" horiz-adv-x="403" />
<glyph unicode="&#xe628;" d="M438.857 420.572v-402.286q0-7.428-5.428-12.857t-12.857-5.428h-146.286q-7.428 0-12.857 5.428t-5.428 12.857v402.286q0 7.428 5.428 12.857t12.857 5.429h146.286q7.428 0 12.857-5.429t5.428-12.857zM182.857 420.572v-402.286q0-7.428-5.429-12.857t-12.857-5.428h-146.286q-7.428 0-12.857 5.428t-5.428 12.857v402.286q0 7.428 5.428 12.857t12.857 5.429h146.286q7.429 0 12.857-5.429t5.428-12.857z" horiz-adv-x="439" />
<glyph unicode="&#xe629;" d="M512 292.572q0-7.428-5.428-12.857l-146.286-146.286q-5.428-5.428-12.857-5.428t-12.857 5.428-5.428 12.857v73.143h-64q-28 0-50.143-1.714t-44-6.143-38-12.143-30.143-19.857-22.857-28.857-13.857-39.572-5-51.714q0-15.714 1.428-35.143 0-1.714 0.715-6.714t0.715-7.572q0-4.286-2.428-7.143t-6.715-2.857q-4.572 0-8 4.857-2 2.572-3.715 6.286t-3.857 8.572-3 6.857q-36.285 81.428-36.285 128.857 0 56.857 15.143 95.143 46.285 115.143 250 115.143h64v73.143q0 7.428 5.428 12.857t12.857 5.428 12.857-5.428l146.286-146.286q5.429-5.428 5.429-12.857z" />
<glyph unicode="&#xe62a;" d="M158.571 94l22.285 40.286q-24.857 18-38.857 45.428t-14 58q0 34.572 17.429 64.286-65.428-33.428-108.857-100.857 47.715-73.714 122-107.143zM269.714 310.857q0 5.714-4 9.714t-9.714 4q-35.714 0-61.286-25.571t-25.572-61.286q0-5.714 4-9.714t9.714-4 9.714 4 4 9.714q0 24.572 17.428 42t42 17.428q5.714 0 9.714 4t4 9.714zM373.428 365.429q0-2-0.286-2.572-30-53.714-90-161.714t-90.286-162l-14-25.428q-2.857-4.572-8-4.572-3.429 0-38.286 20-4.572 2.857-4.572 8 0 3.428 12.572 24.857-40.857 18.572-75.285 49.428t-59.572 70q-5.715 8.857-5.715 19.714t5.715 19.714q43.715 67.143 108.572 106t141.714 38.857q25.428 0 51.428-4.857l15.428 27.714q2.857 4.572 8 4.572 1.428 0 5.143-1.714t8.857-4.429 9.428-5.286 9-5.285 5.572-3.286q4.572-2.857 4.572-7.714zM384 237.714q0-39.714-22.572-72.428t-59.714-47l80 143.428q2.286-12.857 2.286-24zM512 201.143q0-10-5.714-19.714-11.143-18.286-31.143-41.428-42.857-49.143-99.286-76.286t-119.857-27.143l21.143 37.714q60.572 5.143 112.143 39.143t86.143 87.714q-32.857 51.143-80.572 84l18 32q27.143-18.286 52.143-43.714t41.286-52.572q5.714-9.714 5.714-19.714z" />
<glyph unicode="&#xe62b;" d="M401.143 79.714q0-33.428-22.572-56t-56-22.572q-38.572 0-67.143 28.572l-222 221.714q-32.285 32.857-32.285 77.428 0 45.428 31.428 77.143t76.857 31.714q45.143 0 78-32.285l172.857-173.143q2.857-2.857 2.857-6.286 0-4.571-8.714-13.285t-13.286-8.714q-3.714 0-6.572 2.857l-173.143 173.428q-22.571 22-51.715 22-30.285 0-51.143-21.428t-20.857-51.714q0-30 21.715-51.714l221.714-222q18-18 41.428-18 18.286 0 30.286 12t12 30.286q0 23.428-18 41.428l-166 166q-7.428 6.857-17.143 6.857-8.286 0-13.714-5.428t-5.429-13.714q0-9.143 7.143-16.857l117.143-117.143q2.857-2.857 2.857-6.286 0-4.572-8.857-13.428t-13.428-8.857q-3.429 0-6.286 2.857l-117.143 117.143q-18 17.429-18 42.572 0 23.428 16.285 39.714t39.715 16.286q25.143 0 42.571-18l166-166q28.572-28 28.572-67.143z" horiz-adv-x="403" />
<glyph unicode="&#xe62c;" d="M340 309.429l83.714 83.714-30.572 30.572-83.714-83.714zM467.714 393.143q0-7.714-5.143-12.857l-367.428-367.428q-5.143-5.143-12.857-5.143t-12.857 5.143l-56.572 56.572q-5.143 5.143-5.143 12.857t5.143 12.857l367.428 367.428q5.143 5.143 12.857 5.143t12.857-5.143l56.572-56.572q5.143-5.143 5.143-12.857zM81.715 447.429l28-8.572-28-8.572-8.572-28-8.572 28-28 8.572 28 8.572 8.572 28zM181.714 401.143l56-17.143-56-17.143-17.143-56-17.143 56-56 17.143 56 17.143 17.143 56zM447.428 264.572l28-8.571-28-8.572-8.572-28-8.572 28-28 8.572 28 8.572 8.572 28zM264.572 447.429l28-8.572-28-8.572-8.572-28-8.572 28-28 8.572 28 8.572 8.572 28z" horiz-adv-x="476" />
<glyph unicode="&#xe62d;" d="M512 155.429q0-47.428-36.286-128.857-0.857-2-3-6.857t-3.857-8.572-3.714-6.286q-3.428-4.857-8-4.857-4.286 0-6.714 2.857t-2.428 7.143q0 2.572 0.714 7.572t0.714 6.714q1.428 19.428 1.428 35.143 0 28.857-5 51.714t-13.857 39.572-22.857 28.857-30.143 19.857-38 12.143-44 6.143-50.143 1.714h-64v-73.143q0-7.428-5.429-12.857t-12.857-5.428-12.857 5.428l-146.286 146.286q-5.428 5.428-5.428 12.857t5.428 12.857l146.286 146.286q5.428 5.428 12.857 5.428t12.857-5.428 5.428-12.857v-73.143h64q203.714 0 250-115.143 15.143-38.285 15.143-95.143z" />
<glyph unicode="&#xe62e;" d="M159.143 109.714h170v170zM146.286 122.572l170 170h-170v-170zM475.428 100.572v-54.857q0-4-2.572-6.572t-6.572-2.572h-64v-64q0-4-2.572-6.572t-6.572-2.572h-54.857q-4 0-6.572 2.572t-2.572 6.572v64h-246.857q-4 0-6.572 2.572t-2.572 6.572v246.857h-64q-4 0-6.572 2.572t-2.571 6.572v54.857q0 4 2.571 6.572t6.572 2.572h64v64q0 4 2.572 6.572t6.572 2.571h54.857q4 0 6.572-2.571t2.571-6.572v-64h243.143l70.286 70.572q2.857 2.571 6.572 2.571t6.572-2.571q2.572-2.857 2.572-6.572t-2.572-6.572l-70.572-70.286v-243.143h64q4 0 6.572-2.572t2.572-6.572z" horiz-adv-x="476" />
<glyph unicode="&#xe62f;" d="M256-32c-141.166 0-256 114.841-256 256s114.835 256 256 256c141.159 0 256-114.841 256-256s-114.841-256-256-256v0zM256 431.697c-114.527 0-207.696-93.17-207.696-207.697s93.169-207.697 207.696-207.697c114.52 0 207.697 93.169 207.697 207.697s-93.177 207.697-207.697 207.697v0zM194.575 104.836c1.126 4.974 2.809 11.571 5.061 19.77l30.355 110.877c0.329 1.287 0.6 2.575 0.841 3.862 0.242 1.28 0.365 2.487 0.365 3.613 0 6.583-2.084 10.679-6.254 12.296-4.177 1.602-11.798 2.648-22.872 3.131v13.019c9.26 0.644 22.703 1.967 40.331 3.979 17.635 2.004 30.12 3.737 37.457 5.178l21.065 4.103-38.327-140.536c-3.211-12.046-5.376-20.407-6.51-25.074-2.889-11.893-4.345-19.61-4.345-23.135 0-3.54 0.804-5.829 2.421-6.868 1.602-1.053 3.372-1.572 5.31-1.572 4.995 0 11.191 4.257 18.6 12.778 7.416 8.514 13.941 17.438 19.58 26.755l10.847-6.993c-16.091-23.618-28.409-39.526-36.945-47.726-14-13.502-28.958-20.253-44.888-20.253-9.011 0-17.101 2.765-24.254 8.324-7.161 5.537-10.738 14.014-10.738 25.432 0 4.008 0.965 10.357 2.897 19.039v0zM310.675 385.185c6.43-6.43 9.647-14.226 9.647-23.384s-3.219-16.998-9.647-23.501c-6.43-6.51-14.219-9.764-23.384-9.764-9.158 0-16.991 3.255-23.501 9.764s-9.764 14.344-9.764 23.501c0 9.157 3.255 16.947 9.764 23.384 6.51 6.422 14.344 9.64 23.501 9.64s16.954-3.211 23.384-9.64v0z" />
<glyph unicode="&#xe630;" d="M512 219.429q0-7.428-5.428-12.857l-73.143-73.143q-5.428-5.428-12.857-5.428t-12.857 5.428-5.428 12.857v36.572h-109.714v-109.714h36.572q7.428 0 12.857-5.428t5.428-12.857-5.428-12.857l-73.143-73.143q-5.428-5.428-12.857-5.428t-12.857 5.428l-73.143 73.143q-5.428 5.428-5.428 12.857t5.428 12.857 12.857 5.428h36.571v109.714h-109.715v-36.572q0-7.428-5.428-12.857t-12.857-5.428-12.857 5.428l-73.143 73.143q-5.428 5.428-5.428 12.857t5.428 12.857l73.143 73.143q5.428 5.428 12.857 5.428t12.857-5.428 5.428-12.857v-36.571h109.715v109.714h-36.572q-7.428 0-12.857 5.428t-5.429 12.857 5.428 12.857l73.143 73.143q5.429 5.428 12.857 5.428t12.857-5.428l73.143-73.143q5.428-5.428 5.428-12.857t-5.428-12.857-12.857-5.428h-36.572v-109.714h109.714v36.572q0 7.428 5.428 12.857t12.857 5.429 12.857-5.428l73.143-73.143q5.428-5.428 5.428-12.857z" />
</font>
</defs>
</svg>
