<?xml version="1.0" encoding="utf-8"?>
<!-- Generator: Adobe Illustrator 14.0.0, SVG Export Plug-In . SVG Version: 6.00 Build 43363)  -->
<!DOCTYPE svg PUBLIC "-//W3C//DTD SVG 1.1//EN" "http://www.w3.org/Graphics/SVG/1.1/DTD/svg11.dtd">
<svg version="1.1" id="Your_Icon" xmlns="http://www.w3.org/2000/svg" xmlns:xlink="http://www.w3.org/1999/xlink" x="0px" y="0px"
	 width="32px" height="32px" viewBox="0 -2.772 32 32" enable-background="new 0 -2.772 32 32" xml:space="preserve">
<g>
	<path d="M7.339,20.959l-1.501,1.502v-8.873c0-0.646-0.524-1.17-1.17-1.17s-1.17,0.523-1.17,1.17v8.873l-1.501-1.502
		C1.54,20.502,0.8,20.502,0.343,20.961c-0.457,0.457-0.457,1.197,0,1.654l3.493,3.491c0.058,0.058,0.12,0.108,0.187,0.153
		c0.014,0.008,0.026,0.014,0.039,0.021c0.053,0.031,0.106,0.062,0.164,0.085c0.021,0.01,0.045,0.014,0.066,0.021
		c0.05,0.018,0.1,0.035,0.15,0.045c0.035,0.007,0.07,0.007,0.105,0.011c0.04,0.004,0.08,0.013,0.121,0.013
		c0.038,0,0.073-0.008,0.109-0.012c0.039-0.004,0.078-0.004,0.117-0.012c0.047-0.01,0.092-0.025,0.137-0.041
		c0.027-0.01,0.055-0.014,0.082-0.023c0.05-0.021,0.096-0.049,0.142-0.076c0.021-0.012,0.041-0.02,0.06-0.031
		c0.065-0.045,0.127-0.094,0.182-0.149l3.497-3.495c0.457-0.457,0.457-1.197,0-1.654S7.796,20.502,7.339,20.959z"/>
	<path d="M31.658,3.842l-3.493-3.493c-0.057-0.058-0.119-0.108-0.188-0.153c-0.013-0.008-0.025-0.014-0.039-0.021
		c-0.053-0.032-0.104-0.062-0.162-0.085c-0.021-0.01-0.045-0.014-0.066-0.021c-0.05-0.017-0.1-0.035-0.15-0.045
		c-0.035-0.007-0.07-0.007-0.104-0.011C27.414,0.009,27.376,0,27.334,0c-0.037,0-0.073,0.008-0.108,0.012
		c-0.039,0.004-0.078,0.004-0.117,0.012c-0.047,0.01-0.092,0.026-0.139,0.041c-0.025,0.01-0.054,0.014-0.08,0.025
		c-0.05,0.021-0.097,0.048-0.143,0.074c-0.02,0.013-0.041,0.021-0.061,0.032c-0.064,0.044-0.127,0.093-0.182,0.149l-3.497,3.496
		c-0.457,0.457-0.457,1.197,0,1.654s1.197,0.457,1.654,0l1.502-1.502v8.873c0,0.646,0.522,1.17,1.17,1.17
		c0.646,0,1.169-0.522,1.169-1.17V3.996l1.502,1.5c0.456,0.457,1.197,0.457,1.653,0S32.114,4.297,31.658,3.842z"/>
	<path d="M21.522,16.59H10.497c-0.676,0-1.225,0.55-1.225,1.227c0,0.678,0.549,1.227,1.225,1.227h11.025
		c0.678,0,1.227-0.549,1.227-1.227C22.749,17.14,22.199,16.59,21.522,16.59z"/>
	<path d="M21.522,11.806H10.497c-0.676,0-1.225,0.549-1.225,1.225c0,0.677,0.549,1.226,1.225,1.226h11.025
		c0.678,0,1.227-0.547,1.227-1.226C22.748,12.354,22.199,11.806,21.522,11.806z"/>
	<path d="M21.522,7.02H10.497c-0.676,0-1.225,0.548-1.225,1.225c0,0.678,0.549,1.226,1.225,1.226h11.025
		c0.678,0,1.227-0.548,1.227-1.226C22.749,7.567,22.199,7.02,21.522,7.02z"/>
</g>
</svg>
