<?xml version="1.0" encoding="utf-8"?>
<!-- Generator: Adobe Illustrator 14.0.0, SVG Export Plug-In . SVG Version: 6.00 Build 43363)  -->
<!DOCTYPE svg PUBLIC "-//W3C//DTD SVG 1.1//EN" "http://www.w3.org/Graphics/SVG/1.1/DTD/svg11.dtd">
<svg version="1.1" id="Layer_1" xmlns="http://www.w3.org/2000/svg" xmlns:xlink="http://www.w3.org/1999/xlink" width="32px" height="32px" viewBox="0 0 32 32">
<path d="M-0.001,28v-2.667c0-0.36,0.132-0.673,0.396-0.938c0.264-0.264,0.576-0.396,0.938-0.396h29.333
	c0.36,0,0.674,0.132,0.938,0.396C31.868,24.66,32,24.973,32,25.333V28c0,0.361-0.132,0.674-0.396,0.938
	c-0.265,0.265-0.576,0.396-0.938,0.396H1.333c-0.361,0-0.674-0.132-0.938-0.396C0.131,28.674-0.001,28.361-0.001,28z M-0.001,17.333
	v-2.667c0-0.361,0.132-0.673,0.396-0.938c0.264-0.265,0.576-0.396,0.938-0.396h29.333c0.36,0,0.674,0.132,0.938,0.396
	C31.868,13.992,32,14.305,32,14.666v2.667c0,0.36-0.132,0.674-0.396,0.938c-0.265,0.265-0.576,0.396-0.938,0.396H1.333
	c-0.361,0-0.674-0.132-0.938-0.396C0.131,18.007-0.001,17.693-0.001,17.333z M-0.001,6.667V4c0-0.361,0.132-0.674,0.396-0.938
	c0.264-0.265,0.576-0.396,0.938-0.396h29.333c0.36,0,0.674,0.132,0.938,0.396C31.868,3.326,32,3.639,32,4v2.667
	c0,0.36-0.132,0.674-0.396,0.938c-0.265,0.264-0.576,0.396-0.938,0.396H1.333c-0.361,0-0.674-0.132-0.938-0.396
	C0.131,7.34-0.001,7.027-0.001,6.667z"/>
</svg>
