<svg xmlns="http://www.w3.org/2000/svg" width="64" height="64" fill="none" viewBox="0 0 64 64"><defs><linearGradient id="youtrack_svg__a" x1="-.102" x2="64.053" y1="32" y2="32" gradientUnits="userSpaceOnUse"><stop stop-color="#FB43FF"/><stop offset=".97" stop-color="#FB406D"/></linearGradient></defs><path fill="url(#youtrack_svg__a)" d="M1.306 51.245a.25.25 0 0 1-.076-.31l7.636-15.726L.058 24.691a.25.25 0 0 1 .032-.352L25.78 2.932a12.665 12.665 0 0 1 15.884-.26 12.592 12.592 0 0 1 3.597 15.436l-2.8 5.767c1.092-.367 2.173-.7 3.241-1l12.674-3.64a.25.25 0 0 1 .313.186l5.306 23.585a.253.253 0 0 1-.215.307c-1.682.212-10.858 1.53-22.281 6.33-12.944 5.435-21.485 13.162-22.695 14.292a.246.246 0 0 1-.319.014L1.306 51.245Z"/><path fill="#000" d="M52 12H12v40h40V12Z"/><path fill="#fff" d="M33 44H17v3h16v-3ZM21.467 26.37l-5.488-9.378h3.15l3.399 5.992.397.858.397-.869 3.311-5.98h3.098l-5.403 9.357v5.648h-2.861v-5.627ZM30.288 16.992h12.037v2.637H37.78V32h-2.927v-12.37h-4.566v-2.637Z"/></svg>