<svg xmlns="http://www.w3.org/2000/svg" width="64" height="64" fill="none" viewBox="0 0 64 64"><defs><linearGradient id="teamcity_svg__a" x1="7.671" x2="61.126" y1="64.393" y2="39.609" gradientUnits="userSpaceOnUse"><stop offset=".1" stop-color="#3BEA62"/><stop offset=".59" stop-color="#6B57FF"/></linearGradient><linearGradient id="teamcity_svg__b" x1="59.933" x2="1.337" y1="59.676" y2="1.08" gradientUnits="userSpaceOnUse"><stop offset=".26" stop-color="#6B57FF"/><stop offset=".65" stop-color="#07C3F2"/></linearGradient></defs><path fill="#3BEA62" d="M6 47.55v12.259a4.125 4.125 0 0 0 4.19 4.124l11.044-.176a4.125 4.125 0 0 0 3.066-1.44l32.707-38.158c.64-.748.993-1.7.993-2.685V10.125A4.125 4.125 0 0 0 53.875 6H42.872c-1.19 0-2.321.514-3.105 1.409L7.021 44.834A4.123 4.123 0 0 0 6 47.55Z"/><path fill="url(#teamcity_svg__a)" d="M6 49.015v10.862a4.125 4.125 0 0 0 4.125 4.125h12.566c.2 0 .4-.014.598-.044l37.185-5.448A4.125 4.125 0 0 0 64 54.429V39.03a4.125 4.125 0 0 0-4.127-4.125l-18.504.005c-.426 0-.849.066-1.254.195L8.871 45.085A4.126 4.126 0 0 0 6 49.015H6Z"/><path fill="url(#teamcity_svg__b)" d="M0 4.125v34.127c0 1.659.993 3.155 2.52 3.8L39.943 57.85c.518.219 1.075.33 1.638.324l18.329-.15A4.125 4.125 0 0 0 64 53.9V36.234c0-.806-.236-1.593-.678-2.267L42.213 1.86A4.125 4.125 0 0 0 38.766 0H4.125A4.125 4.125 0 0 0 0 4.125Z"/><path fill="#000" d="M52 12H12v40h40V12Z"/><path fill="#fff" d="M33 44H17v3h16v-3ZM16.003 16.992H28.04v2.637h-4.545V32h-2.927v-12.37h-4.566v-2.637ZM32.79 31.242a7.287 7.287 0 0 1-2.744-2.786c-.665-1.183-.997-2.503-.997-3.961s.332-2.778.997-3.96 1.58-2.112 2.743-2.787c1.165-.675 2.465-1.014 3.902-1.014 1.215 0 2.33.225 3.345.675a6.867 6.867 0 0 1 2.535 1.892 6.441 6.441 0 0 1 1.355 2.793h-3.065a4.036 4.036 0 0 0-2.326-2.38 4.896 4.896 0 0 0-1.822-.333c-.887 0-1.687.222-2.402.665a4.611 4.611 0 0 0-1.677 1.827c-.404.776-.606 1.649-.606 2.62 0 .973.202 1.846.606 2.621a4.607 4.607 0 0 0 1.677 1.828c.715.443 1.515.664 2.402.664.657 0 1.265-.11 1.822-.332a4.015 4.015 0 0 0 2.326-2.38h3.065a6.442 6.442 0 0 1-1.355 2.792 6.863 6.863 0 0 1-2.535 1.892c-1.015.45-2.13.675-3.345.675-1.436 0-2.736-.337-3.901-1.013v.003Z"/></svg>