<?xml version="1.0" encoding="utf-8"?>
<!-- Generated by IcoMoon.io -->
<!DOCTYPE svg PUBLIC "-//W3C//DTD SVG 1.1//EN" "http://www.w3.org/Graphics/SVG/1.1/DTD/svg11.dtd">
<svg version="1.1" xmlns="http://www.w3.org/2000/svg" xmlns:xlink="http://www.w3.org/1999/xlink" width="32" height="32" viewBox="0 0 32 32">
	<path d="M22.921 4.007h-12.863c-0.22 0-0.398 0.178-0.398 0.398v21.63c0 0.22 0.178 0.398 0.398 0.398h2.174l8.053 3.115c0.044 0.017 0.092 0.026 0.138 0.026 0.076 0 0.152-0.023 0.216-0.067 0.104-0.072 0.167-0.19 0.167-0.316v-2.758h2.115c0.22 0 0.398-0.178 0.398-0.527v-21.63c0-0.091-0.178-0.269-0.398-0.269zM18.617 20.017c-0.593 0-1.073-0.48-1.073-1.073s0.48-1.073 1.073-1.073 1.073 0.481 1.073 1.073c-0 0.593-0.48 1.073-1.073 1.073zM22.523 25.637h-1.716v-17.834c0-0.166-0.107-0.312-0.264-0.364l-8.041-2.636h10.021v20.834z"></path>
</svg>
