<?xml version="1.0" encoding="utf-8"?>
<!-- Generator: Adobe Illustrator 14.0.0, SVG Export Plug-In . SVG Version: 6.00 Build 43363)  -->
<!DOCTYPE svg PUBLIC "-//W3C//DTD SVG 1.1//EN" "http://www.w3.org/Graphics/SVG/1.1/DTD/svg11.dtd">
<svg version="1.1" id="Layer_1" xmlns="http://www.w3.org/2000/svg" xmlns:xlink="http://www.w3.org/1999/xlink" x="0px" y="0px"
	 width="32px" height="32px" viewBox="0 0 32 32" enable-background="new 0 0 32 32" xml:space="preserve">
<path d="M29,3.683L27.562,5.06L22,10.621l-2.562-2.562L18,6.683L16.562,8.06L12,12.621L9.438,10.06L8,8.683L6.562,10.06l-5,5
	l-1.376,1.438l2.812,2.812l1.438-1.377l3.562-3.562l2.562,2.562l1.438,1.377l1.438-1.377l4.562-4.562l2.561,2.562l1.439,1.377
	l1.438-1.377l7-7l1.377-1.438L29,3.683z M0,25.494v2h32v-2H0z"/>
</svg>
