<?xml version="1.0" encoding="utf-8"?>
<!-- Generated by IcoMoon.io -->
<!DOCTYPE svg PUBLIC "-//W3C//DTD SVG 1.1//EN" "http://www.w3.org/Graphics/SVG/1.1/DTD/svg11.dtd">
<svg version="1.1" xmlns="http://www.w3.org/2000/svg" xmlns:xlink="http://www.w3.org/1999/xlink" width="27" height="32" viewBox="0 0 27 32">
	<path d="M23.429 15.946q0-2.875-1.554-5.268l-13.464 13.446q2.446 1.589 5.304 1.589 1.982 0 3.777-0.777t3.098-2.080 2.071-3.116 0.768-3.795zM5.589 21.286l13.482-13.464q-2.411-1.625-5.357-1.625-2.643 0-4.875 1.304t-3.536 3.554-1.304 4.893q0 2.893 1.589 5.339zM27.429 15.946q0 2.804-1.089 5.357t-2.92 4.393-4.375 2.929-5.33 1.089-5.33-1.089-4.375-2.929-2.92-4.393-1.089-5.357 1.089-5.348 2.92-4.384 4.375-2.929 5.33-1.089 5.33 1.089 4.375 2.929 2.92 4.384 1.089 5.348z"></path>
</svg>
