<?xml version="1.0" encoding="utf-8"?>
<!-- Generated by IcoMoon.io -->
<!DOCTYPE svg PUBLIC "-//W3C//DTD SVG 1.1//EN" "http://www.w3.org/Graphics/SVG/1.1/DTD/svg11.dtd">
<svg version="1.1" xmlns="http://www.w3.org/2000/svg" xmlns:xlink="http://www.w3.org/1999/xlink" width="33" height="32" viewBox="0 0 33 32">
	<path d="M24.75 21.91c0.346-1.158 0.587-2.4 0.715-3.7 0.492 0.162 1.050 0.262 1.652 0.262 1.901 0 3.442-0.918 3.442-2.050 0-1.133-1.541-2.051-3.442-2.051-0.578 0-1.115 0.094-1.594 0.243-0.076-1.069-0.236-2.097-0.46-3.080 1.672 0.205 4.146-0.408 5.001-2.655 0.363-0.953 1.025-4.105-0.27-4.427-2.073-0.515-3.062 1.571-4.22 3.365-0.403 0.623-0.795 1.136-1.125 1.576-1.574-4.371-4.63-7.336-8.146-7.336s-6.575 2.967-8.148 7.34c-0.33-0.44-0.724-0.954-1.128-1.58-1.159-1.794-2.148-3.881-4.22-3.365-1.295 0.322-0.633 3.474-0.27 4.427 0.856 2.248 3.334 2.861 5.006 2.655-0.224 0.984-0.385 2.012-0.46 3.082-0.479-0.151-1.018-0.245-1.598-0.245-1.901 0-3.442 0.918-3.442 2.051s1.541 2.050 3.442 2.050c0.604 0 1.163-0.101 1.657-0.263 0.128 1.301 0.369 2.543 0.715 3.702-1.87-0.11-4.29 0.576-5.177 2.905-0.363 0.953-0.938 3.895 0.384 4.079 2.988 0.414 2.378-1.343 3.538-3.136 0.576-0.893 1.291-1.663 1.81-2.274 1.632 4.017 4.551 6.704 7.893 6.704 3.34 0 6.259-2.685 7.891-6.7 0.518 0.61 1.23 1.38 1.806 2.271 1.159 1.794 0.549 3.552 3.538 3.136 1.322-0.184 0.747-3.126 0.384-4.079-0.886-2.327-3.304-3.014-5.173-2.905zM16.302 25.556c-1.354 0-2.453-2.377-2.453-5.309s1.098-5.309 2.453-5.309c1.354 0 2.453 2.377 2.453 5.309s-1.099 5.309-2.453 5.309zM16.181 11.428c-3.047 0-4.296 0-5.394 0 0-3.485 2.47-5.893 5.516-5.893s5.516 2.408 5.516 5.893c-1.415 0-2.591 0-5.638 0z"></path>
</svg>
