<?xml version="1.0" encoding="utf-8"?>
<!-- Generator: Adobe Illustrator 16.0.4, SVG Export Plug-In . SVG Version: 6.00 Build 0)  -->
<!DOCTYPE svg PUBLIC "-//W3C//DTD SVG 1.1//EN" "http://www.w3.org/Graphics/SVG/1.1/DTD/svg11.dtd">
<svg version="1.1" id="Layer_1" xmlns="http://www.w3.org/2000/svg" xmlns:xlink="http://www.w3.org/1999/xlink" x="0px" y="0px"
	 width="16px" height="16px" viewBox="0 0 16 16" enable-background="new 0 0 16 16" xml:space="preserve">
<polygon display="none" points="6,5 10,8 6,11 "/>
<g>
	<path d="M7.77,10.815L3.1,6.146C3.034,6.079,3,6.004,3,5.917c0-0.088,0.034-0.165,0.1-0.231l0.501-0.501
		c0.067-0.066,0.144-0.101,0.23-0.101c0.087,0,0.165,0.034,0.231,0.101L8,9.123l3.937-3.938c0.067-0.066,0.146-0.101,0.231-0.101
		s0.163,0.034,0.229,0.101L12.9,5.686C12.967,5.752,13,5.829,13,5.917c0,0.087-0.033,0.162-0.1,0.229l-4.669,4.669
		C8.164,10.883,8.087,10.916,8,10.916S7.837,10.883,7.77,10.815z"/>
</g>
</svg>
