<?xml version="1.0" encoding="utf-8"?>
<!-- Generator: Adobe Illustrator 16.0.4, SVG Export Plug-In . SVG Version: 6.00 Build 0)  -->
<!DOCTYPE svg PUBLIC "-//W3C//DTD SVG 1.1//EN" "http://www.w3.org/Graphics/SVG/1.1/DTD/svg11.dtd">
<svg version="1.1" id="Layer_1" xmlns="http://www.w3.org/2000/svg" xmlns:xlink="http://www.w3.org/1999/xlink" x="0px" y="0px"
	 width="16px" height="16px" viewBox="0 0 16 16" enable-background="new 0 0 16 16" xml:space="preserve">
<polygon display="none" points="6,5 10,8 6,11 "/>
<g>
	<path d="M8.23,5.185l4.67,4.669c0.066,0.067,0.1,0.143,0.1,0.229c0,0.088-0.033,0.165-0.1,0.231l-0.502,0.501
		c-0.067,0.066-0.145,0.101-0.23,0.101s-0.164-0.034-0.23-0.101L8,6.877l-3.937,3.938c-0.067,0.066-0.146,0.101-0.231,0.101
		s-0.163-0.034-0.229-0.101L3.1,10.314C3.033,10.248,3,10.171,3,10.083c0-0.087,0.033-0.162,0.1-0.229l4.669-4.669
		C7.836,5.117,7.913,5.084,8,5.084S8.163,5.117,8.23,5.185z"/>
</g>
</svg>
