<?xml version="1.0" encoding="utf-8"?>
<!-- Generator: Adobe Illustrator 16.0.4, SVG Export Plug-In . SVG Version: 6.00 Build 0)  -->
<!DOCTYPE svg PUBLIC "-//W3C//DTD SVG 1.1//EN" "http://www.w3.org/Graphics/SVG/1.1/DTD/svg11.dtd">
<svg version="1.1" id="Layer_1" xmlns="http://www.w3.org/2000/svg" xmlns:xlink="http://www.w3.org/1999/xlink" x="0px" y="0px"
	 width="16px" height="16px" viewBox="0 0 16 16" enable-background="new 0 0 16 16" xml:space="preserve">
<polygon display="none" points="6,5 10,8 6,11 "/>
<g>
	<path d="M10.916,8c0,0.087-0.033,0.164-0.101,0.23L6.146,12.9C6.079,12.967,6.004,13,5.917,13c-0.088,0-0.165-0.033-0.231-0.1
		l-0.501-0.502c-0.066-0.066-0.101-0.144-0.101-0.229s0.034-0.164,0.101-0.231L9.123,8L5.185,4.062
		C5.118,3.996,5.084,3.918,5.084,3.832c0-0.086,0.034-0.163,0.101-0.23L5.686,3.1C5.752,3.034,5.829,3,5.917,3
		c0.087,0,0.162,0.034,0.229,0.1l4.669,4.669C10.883,7.837,10.916,7.914,10.916,8z"/>
</g>
</svg>
