<svg xmlns="http://www.w3.org/2000/svg" xmlns:xlink="http://www.w3.org/1999/xlink" version="1.1" id="Your_Icon" x="0px" y="0px" width="100px" height="100px" viewBox="0 0 100 100" enable-background="new 0 0 100 100" xml:space="preserve">
<g>
	<path d="M90.326,5.005H32.847c-2.576,0-4.674,2.088-4.674,4.674v18.499H9.674C7.087,28.178,5,30.265,5,32.852v57.469   c0,2.586,2.087,4.674,4.674,4.674h57.469c2.586,0,4.674-2.088,4.674-4.674V71.822h18.509c2.576,0,4.674-2.088,4.674-4.674V9.679   C95,7.093,92.902,5.005,90.326,5.005z M62.469,85.647H14.348V37.526h48.121V85.647z M85.652,62.474H71.817V32.852   c0-2.586-2.088-4.674-4.674-4.674H37.521V14.353h48.131V62.474z"/>
</g>
</svg>