<?xml version="1.0" encoding="utf-8"?>
<!-- Generated by IcoMoon.io -->
<!DOCTYPE svg PUBLIC "-//W3C//DTD SVG 1.1//EN" "http://www.w3.org/Graphics/SVG/1.1/DTD/svg11.dtd">
<svg version="1.1" xmlns="http://www.w3.org/2000/svg" xmlns:xlink="http://www.w3.org/1999/xlink" width="32" height="32" viewBox="0 0 32 32">
	<path d="M15.875 18.055c-5.107 0-9.274-1.007-9.513-2.27-1.973 0.288-3.928 0.667-5.858 1.135 3.299 5.050 9.023 7.856 15.539 7.856 6.47 0 12.159-2.765 15.469-7.747-2.019-0.505-4.065-0.91-6.13-1.218-0.292 1.251-4.435 2.243-9.507 2.243z"></path>
	<path d="M32 16.27l-4.941-6.111c-1.281-1.778-3.367-2.935-5.724-2.935-2.106 0-3.998 0.925-5.29 2.392-1.292-1.467-3.184-2.392-5.291-2.392-2.356 0-4.442 1.157-5.723 2.935l-4.941 6.111c0.016 0.027 0.034 0.052 0.051 0.079 5.086-1.254 10.348-1.893 15.644-1.893 5.449 0 10.862 0.674 16.092 2.003 0.039-0.064 0.083-0.124 0.121-0.189h0.004z"></path>
</svg>
