<?xml version="1.0" encoding="utf-8"?>
<!-- Generated by IcoMoon.io -->
<!DOCTYPE svg PUBLIC "-//W3C//DTD SVG 1.1//EN" "http://www.w3.org/Graphics/SVG/1.1/DTD/svg11.dtd">
<svg version="1.1" xmlns="http://www.w3.org/2000/svg" xmlns:xlink="http://www.w3.org/1999/xlink" width="30" height="32" viewBox="0 0 30 32">
	<path d="M9.946 22.857h10.625v-10.625zM9.143 22.054l10.625-10.625h-10.625v10.625zM29.714 23.429v3.429q0 0.25-0.161 0.411t-0.411 0.161h-4v4q0 0.25-0.161 0.411t-0.411 0.161h-3.429q-0.25 0-0.411-0.161t-0.161-0.411v-4h-15.429q-0.25 0-0.411-0.161t-0.161-0.411v-15.429h-4q-0.25 0-0.411-0.161t-0.161-0.411v-3.429q0-0.25 0.161-0.411t0.411-0.161h4v-4q0-0.25 0.161-0.411t0.411-0.161h3.429q0.25 0 0.411 0.161t0.161 0.411v4h15.196l4.393-4.411q0.179-0.161 0.411-0.161t0.411 0.161q0.161 0.179 0.161 0.411t-0.161 0.411l-4.411 4.393v15.196h4q0.25 0 0.411 0.161t0.161 0.411z"></path>
</svg>
