<?xml version="1.0" encoding="utf-8"?>
<!-- Generator: Adobe Illustrator 16.0.4, SVG Export Plug-In . SVG Version: 6.00 Build 0)  -->
<!DOCTYPE svg PUBLIC "-//W3C//DTD SVG 1.1//EN" "http://www.w3.org/Graphics/SVG/1.1/DTD/svg11.dtd">
<svg version="1.1" id="Layer_1" xmlns="http://www.w3.org/2000/svg" xmlns:xlink="http://www.w3.org/1999/xlink" x="0px" y="0px"
	 width="32px" height="32px" viewBox="0 0 100 100" xml:space="preserve">
<g>
	<path d="M41.918,61.469c2.648,6.768,11.961,15.006,11.961,15.006c4.414,5.59,5.003,12.062,5.003,12.062
		c0.589,8.238,1.177,9.416,1.177,9.416c2.354,2.354,6.18,0,6.18,0c7.947-5.59,6.475-15.299,6.475-15.299
		c-1.176-5.594-6.18-15.596-6.18-15.596c-4.119-5.886-2.75-7.65-2.75-7.65c2.839-1.766,3.634-1.768,5.104-1.473
		c1.471,0.297,22.067,1.473,22.067,1.473c3.823,0.293,5.729-6.475,5.729-6.475c1.318-3.53-1.906-10.209-1.906-10.209
		c2.649-2.266,1.767-3.979,1.767-3.979c-0.588-5.646-3.233-9.069-3.233-9.069c2.06-3.826,1.176-6.083,1.176-6.083
		c-0.295-4.302-5.295-6.314-5.295-6.314c1.765-2.354,0-7.412,0-7.412c-2.062-3.53-3.68-7.98-8.977-7.98
		c-5.296-0.001-15.445,0-15.445,0c-7.944,0-18.437,4.045-18.437,4.045c-15.301,5.443-15.566,2.575-15.566,2.575V45.14
		C37.766,50.875,41.917,61.471,41.918,61.469z"/>
	<path d="M20.917,47.449V5.887H4.473c0,0-2.276,16.962,0.596,41.588C5.069,47.475,10.917,48.711,20.917,47.449z"/>
</g>
</svg>
