<?xml version="1.0" encoding="utf-8"?>
<!-- Generator: Adobe Illustrator 14.0.0, SVG Export Plug-In . SVG Version: 6.00 Build 43363)  -->
<!DOCTYPE svg PUBLIC "-//W3C//DTD SVG 1.1//EN" "http://www.w3.org/Graphics/SVG/1.1/DTD/svg11.dtd">
<svg version="1.1" id="Layer_1" xmlns="http://www.w3.org/2000/svg" xmlns:xlink="http://www.w3.org/1999/xlink" x="0px" y="0px"
	 width="32px" height="32px" viewBox="0 0 32 32" enable-background="new 0 0 32 32" xml:space="preserve">
<g id="Captions" display="none">
	<rect x="-192" display="inline" width="185" height="99"/>
	<rect y="-36" display="inline" width="100" height="30"/>
	<text transform="matrix(1 0 0 1 66 -19.5)" display="inline" font-family="'Helvetica'" font-size="2.4">http://thenounproject.com</text>
	<text transform="matrix(1 0 0 1 7.166 -24.5)" display="inline" font-family="'Helvetica-Bold'" font-size="6.1578">The Noun Project</text>
	<text transform="matrix(1 0 0 1 8.2861 -19.7002)" display="inline" font-family="'Helvetica-Bold'" font-size="4">Icon Template</text>
	<text transform="matrix(1 0 0 1 -178.5 10.5)" display="inline" font-family="'Helvetica-Bold'" font-size="6.1578">Reminders</text>
	<line display="inline" stroke="#FFFFFF" stroke-miterlimit="10" x1="8" y1="-14.5" x2="18" y2="-14.5"/>
	<line display="inline" stroke="#FFFFFF" stroke-miterlimit="10" x1="-179" y1="16.5" x2="-162" y2="16.5"/>
	<g display="inline">
		<g>
			<g>
				<rect x="-170.802" y="31.318" width="8.721" height="8.642"/>
				<path d="M-164.455,42.312h4.747v-4.703h-4.747V42.312z M-159.266,42.749h-5.63V37.17h5.63V42.749L-159.266,42.749z
					 M-166.221,44.062h8.279v-8.203h-8.279V44.062L-166.221,44.062z M-157.5,44.5h-9.163v-9.079h9.163V44.5L-157.5,44.5z"/>
				<polygon points="-166.149,44.133 -166.292,43.991 -158.013,35.787 -157.871,35.93 				"/>
			</g>
		</g>
	</g>
	<rect x="-179" y="58" display="inline" width="35" height="32.5"/>
	<text transform="matrix(1 0 0 1 -179 60.1572)" display="inline" font-family="'Helvetica-Bold'" font-size="3">Strokes</text>
	<text transform="matrix(1 0 0 1 -179 65.1572)" display="inline" font-family="'Helvetica'" font-size="2.4">Try to keep strokes at 4px</text>
	<text transform="matrix(1 0 0 1 -179 70.1572)" display="inline" font-family="'Helvetica'" font-size="2.4">Minimum stroke weight is 2px</text>
	<text transform="matrix(1 0 0 1 -179 74.6572)" display="inline" font-family="'Helvetica'" font-size="2.4">For thicker strokes use even </text>
	<text transform="matrix(1 0 0 1 -179 77.6572)" display="inline" font-family="'Helvetica'" font-size="2.4">numbers: 6px, 8px etc.</text>
	<text transform="matrix(1 0 0 1 -179 82.1572)" display="inline" font-family="'Helvetica-Bold'" font-size="2.4">Remember to expand strokes </text>
	<text transform="matrix(1 0 0 1 -179 85.1572)" display="inline" font-family="'Helvetica-Bold'" font-size="2.4">before saving as an SVG </text>
	<rect x="-136.5" y="58" display="inline" width="35" height="32.5"/>
	<text transform="matrix(1 0 0 1 -136.5 60.1572)" display="inline" font-family="'Helvetica-Bold'" font-size="3">Size</text>
	<text transform="matrix(1 0 0 1 -136.5 65.1572)" display="inline" font-family="'Helvetica'" font-size="2.4">Cannot be wider or taller than </text>
	<text transform="matrix(1 0 0 1 -136.5 68.6572)" display="inline" font-family="'Helvetica'" font-size="2.4">100px (artboard size)</text>
	<text transform="matrix(1 0 0 1 -136.5 73.6572)" display="inline" font-family="'Helvetica'" font-size="2.4">Scale your icon to fill as much of </text>
	<text transform="matrix(1 0 0 1 -136.5 76.6572)" display="inline" font-family="'Helvetica'" font-size="2.4">the artboard as possible</text>
	<rect x="-94" y="58" display="inline" width="35" height="32.5"/>
	<text transform="matrix(1 0 0 1 -94 60.1572)" display="inline" font-family="'Helvetica-Bold'" font-size="3">Ungroup</text>
	<text transform="matrix(1 0 0 1 -94 65.1572)" display="inline" font-family="'Helvetica'" font-size="2.4">If your design has more than one </text>
	<text transform="matrix(1 0 0 1 -94 68.1572)" display="inline" font-family="'Helvetica'" font-size="2.4">shape, make sure to ungroup</text>
	<rect x="-50" y="58" display="inline" width="35" height="32.5"/>
	<text transform="matrix(1 0 0 1 -50 60.1572)" display="inline" font-family="'Helvetica-Bold'" font-size="3">Save as</text>
	<text transform="matrix(1 0 0 1 -50 65.1572)" display="inline" font-family="'Helvetica'" font-size="2.4">Save as .SVG and make sure </text>
	<text transform="matrix(1 0 0 1 -50 68.1572)" display="inline" font-family="'Helvetica'" font-size="2.4">“Use Artboards” is checked</text>
	<text transform="matrix(1.0074 0 0 1 -125.542 30.5938)" display="inline" font-family="'Helvetica'" font-size="2.5731">100px</text>
	<text transform="matrix(1.0074 0 0 1 -41 39)" display="inline" font-family="'Helvetica-Bold'" font-size="5.1462">.SVG</text>
	<rect x="-126.514" y="34.814" display="inline" width="10.261" height="10.186"/>
	<rect x="-126.477" y="31.766" display="inline" width="0.522" height="2.338"/>
	<rect x="-116.812" y="31.766" display="inline" width="0.523" height="2.338"/>
	<rect x="-127" y="32.337" display="inline" width="11.233" height="0.572"/>
	<g display="inline">
		<rect x="-83.805" y="33.844" width="10.305" height="10.156"/>
		<rect x="-76.809" y="28.707" width="3.308" height="3.261"/>
	</g>
	<rect x="-178.5" y="22.5" display="inline" stroke="#FFFFFF" stroke-miterlimit="10" width="30" height="30"/>
	<rect x="-136.5" y="22.5" display="inline" stroke="#FFFFFF" stroke-miterlimit="10" width="30" height="30"/>
	<rect x="-93.5" y="22.5" display="inline" stroke="#FFFFFF" stroke-miterlimit="10" width="30" height="30"/>
	<rect x="-49.5" y="22.5" display="inline" stroke="#FFFFFF" stroke-miterlimit="10" width="30" height="30"/>
</g>
<g id="Your_Icon">
	<path d="M21.297,4.732l-4.336-4.334l-0.046-0.045l-0.004-0.002c-0.012-0.01-0.021-0.02-0.031-0.026
		c-0.018-0.015-0.033-0.027-0.053-0.042L16.796,0.26c-0.232-0.168-0.508-0.259-0.797-0.259s-0.562,0.091-0.796,0.261
		c-0.017,0.01-0.031,0.021-0.042,0.03c-0.021,0.017-0.028,0.022-0.027,0.022c-0.033,0.025-0.064,0.055-0.094,0.084l-4.336,4.337
		c-0.53,0.53-0.53,1.392,0,1.921c0.256,0.257,0.598,0.398,0.961,0.398s0.705-0.142,0.961-0.398l2.018-2.016v6.479
		c0,0.75,0.608,1.358,1.357,1.358c0.75,0,1.359-0.609,1.359-1.358V4.641l2.017,2.017c0.256,0.257,0.599,0.397,0.96,0.397
		c0.364,0,0.705-0.142,0.962-0.398c0.257-0.256,0.397-0.598,0.397-0.961S21.554,4.99,21.297,4.732z"/>
	<path d="M21.297,25.344c-0.256-0.256-0.599-0.397-0.961-0.397s-0.704,0.143-0.961,0.397l-2.017,2.018v-6.48
		c0-0.749-0.609-1.359-1.358-1.359c-0.75,0-1.358,0.61-1.358,1.359v6.479l-2.017-2.017c-0.257-0.257-0.599-0.397-0.961-0.397
		c-0.363,0-0.704,0.142-0.96,0.397c-0.258,0.258-0.398,0.598-0.398,0.961c0,0.362,0.141,0.705,0.398,0.961l4.335,4.336l0.046,0.047
		l0.004,0.002c0.012,0.01,0.021,0.019,0.031,0.025c0.016,0.014,0.033,0.026,0.052,0.041l0.032,0.023
		C15.437,31.909,15.712,31.999,16,32h0.001c0.288-0.001,0.562-0.091,0.796-0.261c0.017-0.011,0.03-0.021,0.042-0.03
		c0.021-0.018,0.028-0.023,0.027-0.021c0.033-0.026,0.064-0.057,0.094-0.086l4.336-4.336C21.827,26.735,21.827,25.874,21.297,25.344
		z"/>
	<circle cx="16" cy="15.982" r="2.297"/>
	<path d="M11.12,14.622H4.64l2.016-2.017c0.531-0.529,0.531-1.392,0-1.92c-0.256-0.258-0.598-0.398-0.961-0.398
		c-0.362,0-0.705,0.141-0.961,0.398L0.399,15.02l-0.047,0.045l-0.002,0.005c-0.01,0.011-0.02,0.021-0.027,0.03
		c-0.014,0.017-0.026,0.032-0.041,0.053l-0.021,0.031c-0.17,0.232-0.259,0.508-0.26,0.797c0,0.289,0.09,0.563,0.26,0.795
		c0.01,0.017,0.021,0.031,0.031,0.044c0.011,0.014,0.021,0.026,0.023,0.026l0,0c0.025,0.032,0.055,0.064,0.084,0.094l4.336,4.338
		c0.257,0.256,0.598,0.396,0.961,0.396s0.703-0.141,0.961-0.396c0.257-0.258,0.398-0.6,0.398-0.963c0-0.362-0.142-0.703-0.398-0.961
		l-2.016-2.017h6.479c0.749,0,1.358-0.608,1.358-1.358C12.479,15.232,11.869,14.622,11.12,14.622z"/>
	<path d="M31.739,15.184c-0.01-0.016-0.021-0.03-0.03-0.041c-0.011-0.016-0.022-0.029-0.022-0.029s0,0,0,0.001
		c-0.025-0.033-0.055-0.065-0.084-0.095l-4.336-4.336c-0.258-0.256-0.599-0.397-0.961-0.397c-0.363,0-0.705,0.142-0.962,0.397
		s-0.397,0.598-0.397,0.961s0.142,0.705,0.397,0.961l2.017,2.017h-6.479c-0.75,0-1.359,0.61-1.359,1.358
		c0,0.75,0.609,1.358,1.359,1.358h6.479l-2.017,2.017c-0.528,0.529-0.528,1.393,0,1.922c0.257,0.257,0.599,0.398,0.962,0.398
		s0.703-0.143,0.961-0.398l4.336-4.336l0.045-0.045l0.002-0.006c0.011-0.011,0.021-0.021,0.026-0.029
		c0.015-0.018,0.027-0.033,0.042-0.053l0.021-0.032c0.17-0.232,0.26-0.507,0.261-0.796C31.999,15.691,31.909,15.417,31.739,15.184z"
		/>
</g>
</svg>
