<?xml version="1.0" encoding="utf-8"?>
<!-- Generated by IcoMoon.io -->
<!DOCTYPE svg PUBLIC "-//W3C//DTD SVG 1.1//EN" "http://www.w3.org/Graphics/SVG/1.1/DTD/svg11.dtd">
<svg version="1.1" xmlns="http://www.w3.org/2000/svg" xmlns:xlink="http://www.w3.org/1999/xlink" width="30" height="32" viewBox="0 0 30 32">
	<path d="M22.857 24q0-0.464-0.339-0.804t-0.804-0.339-0.804 0.339-0.339 0.804 0.339 0.804 0.804 0.339 0.804-0.339 0.339-0.804zM27.429 24q0-0.464-0.339-0.804t-0.804-0.339-0.804 0.339-0.339 0.804 0.339 0.804 0.804 0.339 0.804-0.339 0.339-0.804zM29.714 20v5.714q0 0.714-0.5 1.214t-1.214 0.5h-26.286q-0.714 0-1.214-0.5t-0.5-1.214v-5.714q0-0.714 0.5-1.214t1.214-0.5h8.304l2.411 2.429q1.036 1 2.429 1t2.429-1l2.429-2.429h8.286q0.714 0 1.214 0.5t0.5 1.214zM23.911 9.839q0.304 0.732-0.25 1.25l-8 8q-0.321 0.339-0.804 0.339t-0.804-0.339l-8-8q-0.554-0.518-0.25-1.25 0.304-0.696 1.054-0.696h4.571v-8q0-0.464 0.339-0.804t0.804-0.339h4.571q0.464 0 0.804 0.339t0.339 0.804v8h4.571q0.75 0 1.054 0.696z"></path>
</svg>
