<?xml version="1.0" encoding="utf-8"?>
<!-- Generated by IcoMoon.io -->
<!DOCTYPE svg PUBLIC "-//W3C//DTD SVG 1.1//EN" "http://www.w3.org/Graphics/SVG/1.1/DTD/svg11.dtd">
<svg version="1.1" xmlns="http://www.w3.org/2000/svg" xmlns:xlink="http://www.w3.org/1999/xlink" width="32" height="32" viewBox="0 0 32 32">
	<path d="M32 12.679v14.179q0 1.179-0.839 2.018t-2.018 0.839h-26.286q-1.179 0-2.018-0.839t-0.839-2.018v-14.179q0.786 0.875 1.804 1.554 6.464 4.393 8.875 6.161 1.018 0.75 1.652 1.17t1.688 0.857 1.964 0.438h0.036q0.911 0 1.964-0.438t1.688-0.857 1.652-1.17q3.036-2.196 8.893-6.161 1.018-0.696 1.786-1.554zM32 7.429q0 1.411-0.875 2.696t-2.179 2.196q-6.714 4.661-8.357 5.804-0.179 0.125-0.759 0.545t-0.964 0.679-0.929 0.58-1.027 0.482-0.893 0.161h-0.036q-0.411 0-0.893-0.161t-1.027-0.482-0.929-0.58-0.964-0.679-0.759-0.545q-1.625-1.143-4.679-3.259t-3.661-2.545q-1.107-0.75-2.089-2.063t-0.982-2.438q0-1.393 0.741-2.321t2.116-0.929h26.286q1.161 0 2.009 0.839t0.848 2.018z" fill="#000000"></path>
</svg>
