<?xml version="1.0" encoding="utf-8"?>
<!-- Generated by IcoMoon.io -->
<!DOCTYPE svg PUBLIC "-//W3C//DTD SVG 1.1//EN" "http://www.w3.org/Graphics/SVG/1.1/DTD/svg11.dtd">
<svg version="1.1" xmlns="http://www.w3.org/2000/svg" xmlns:xlink="http://www.w3.org/1999/xlink" width="32" height="32" viewBox="0 0 32 32">
	<path d="M16 2.19c-7.627 0-13.81 6.183-13.81 13.81s6.183 13.81 13.81 13.81c7.627 0 13.81-6.183 13.81-13.81s-6.183-13.81-13.81-13.81zM16 25.5c-1.174 0-2.125-0.951-2.125-2.125s0.951-2.125 2.125-2.125c1.174 0 2.125 0.951 2.125 2.125s-0.951 2.125-2.125 2.125zM18.125 17.493c0 1.174-0.951 2.125-2.125 2.125s-2.125-0.952-2.125-2.125v-8.868c0-1.174 0.951-2.125 2.125-2.125s2.125 0.951 2.125 2.125v8.868z"></path>
</svg>
