<?xml version="1.0" encoding="utf-8"?>
<!-- Generator: Adobe Illustrator 14.0.0, SVG Export Plug-In . SVG Version: 6.00 Build 43363)  -->
<!DOCTYPE svg PUBLIC "-//W3C//DTD SVG 1.1//EN" "http://www.w3.org/Graphics/SVG/1.1/DTD/svg11.dtd">
<svg version="1.1" id="Layer_1" xmlns="http://www.w3.org/2000/svg" xmlns:xlink="http://www.w3.org/1999/xlink" x="0px" y="0px"
	 width="32px" height="32px" viewBox="0 -5.714 32 32" enable-background="new 0 -5.714 32 32" xml:space="preserve">
<path d="M0,10.286C0,9.882,0.119,9.47,0.357,9.054c1.666-2.727,3.908-4.916,6.724-6.571C9.896,0.829,12.87,0,16,0
	s6.104,0.828,8.92,2.482c2.814,1.655,5.057,3.846,6.723,6.571C31.881,9.47,32,9.882,32,10.286c0,0.404-0.119,0.814-0.357,1.23
	c-1.666,2.738-3.906,4.935-6.723,6.58c-2.816,1.648-5.789,2.477-8.92,2.477s-6.104-0.828-8.919-2.482
	c-2.815-1.653-5.058-3.846-6.724-6.569C0.119,11.101,0,10.689,0,10.286z M2.286,10.286c1.583,2.439,3.567,4.383,5.956,5.831
	c2.387,1.443,4.973,2.17,7.759,2.17s5.372-0.727,7.759-2.17c2.387-1.447,4.372-3.392,5.955-5.831
	c-1.811-2.81-4.076-4.911-6.803-6.304C23.639,5.22,24.001,6.558,24.001,8c0,2.203-0.783,4.087-2.349,5.651
	C20.086,15.216,18.203,16,16.001,16s-4.086-0.781-5.651-2.349C8.783,12.085,8,10.203,8,8c0-1.44,0.363-2.78,1.089-4.018
	C6.363,5.375,4.096,7.476,2.286,10.286z M10.57,8c0,0.238,0.084,0.439,0.25,0.607c0.168,0.167,0.369,0.25,0.607,0.25
	c0.238,0,0.44-0.083,0.607-0.25c0.167-0.168,0.25-0.369,0.25-0.607c0-1.023,0.363-1.898,1.089-2.625
	c0.726-0.726,1.601-1.089,2.625-1.089c0.237,0,0.44-0.083,0.605-0.25c0.166-0.167,0.25-0.369,0.25-0.606
	c0-0.238-0.084-0.44-0.25-0.606c-0.167-0.167-0.37-0.25-0.605-0.25c-1.488,0-2.765,0.532-3.831,1.598
	C11.104,5.235,10.57,6.513,10.57,8z"/>
</svg>
