<?xml version="1.0" encoding="utf-8"?>
<!-- Generated by IcoMoon.io -->
<!DOCTYPE svg PUBLIC "-//W3C//DTD SVG 1.1//EN" "http://www.w3.org/Graphics/SVG/1.1/DTD/svg11.dtd">
<svg version="1.1" xmlns="http://www.w3.org/2000/svg" xmlns:xlink="http://www.w3.org/1999/xlink" width="25" height="32" viewBox="0 0 25 32">
	<path d="M12.738 32c0-0.004 0.015-0.009 0-0.012-0.015 0.004 0 0.009 0 0.012z" fill="#000000"></path>
	<path d="M12.739 0l-12.739 3.282c0 0 0 2.864 0 8.732 0 11.648 8.492 18.95 12.738 19.961 4.246-1.012 12.738-8.313 12.738-19.961 0-5.868 0-8.732 0-8.732l-12.737-3.282zM16.562 15.536l1.885 6.238-0.464 0.317-5.334-3.714-5.413 3.769-0.413-0.285 1.915-6.325-5.36-4.063 0.093-0.398 6.761-0.065 2.151-6.12h0.532l2.152 6.12 6.734 0.1 0.165 0.346-5.405 4.079z" fill="#000000"></path>
</svg>
