<?xml version="1.0" encoding="utf-8"?>
<!-- Generated by IcoMoon.io -->
<!DOCTYPE svg PUBLIC "-//W3C//DTD SVG 1.1//EN" "http://www.w3.org/Graphics/SVG/1.1/DTD/svg11.dtd">
<svg version="1.1" xmlns="http://www.w3.org/2000/svg" xmlns:xlink="http://www.w3.org/1999/xlink" width="38" height="32" viewBox="0 0 38 32">
	<path d="M26.399 12.135l10.513-6.066-10.513-6.069v3.758c-4.075 0.52-6.824 3.673-9.473 6.888 0.758 0.978 1.503 1.974 2.232 2.961l0.797 1.071c1.116-1.451 2.204-2.781 3.257-3.812 1.23-1.231 2.328-1.938 3.187-2.209v3.478zM20.659 17.885c-2.634-3.299-5.306-7.449-8.36-10.486-2.033-1.987-4.39-3.705-7.43-3.745h-4.87v4.87h4.87c1.351-0.166 3.958 1.855 6.556 5.247 2.637 3.299 5.306 7.449 8.363 10.486 1.845 1.805 3.961 3.375 6.61 3.68v3.681l10.513-6.070-10.513-6.067v3.527c-1.447-0.474-3.591-2.317-5.739-5.121z"></path>
</svg>
