<?xml version="1.0" encoding="utf-8"?>
<!-- Generated by IcoMoon.io -->
<!DOCTYPE svg PUBLIC "-//W3C//DTD SVG 1.1//EN" "http://www.w3.org/Graphics/SVG/1.1/DTD/svg11.dtd">
<svg version="1.1" xmlns="http://www.w3.org/2000/svg" xmlns:xlink="http://www.w3.org/1999/xlink" width="32" height="32" viewBox="0 0 32 32">
	<path d="M16 0c-8.836 0-16 7.164-16 16s7.164 16 16 16 16-7.164 16-16-7.164-16-16-16zM5.68 12c0-0.065 0.006-0.128 0.010-0.192 2.77-0.942 4.461-2.387 5.439-3.533 1.492 0.581 2.551 2.028 2.551 3.725 0 2.209-1.791 4-4 4s-4-1.791-4-4zM21.454 25.416c-0.196 0.196-0.452 0.293-0.708 0.293s-0.513-0.098-0.708-0.293c-2.5-2.5-5.594-2.515-8.076-0.034-0.391 0.392-1.025 0.392-1.416 0s-0.391-1.024 0-1.416c3.263-3.262 7.627-3.247 10.907 0.034 0.391 0.391 0.391 1.025 0 1.416zM22.321 16c-2.209 0-4.001-1.791-4.001-4 0-1.698 1.059-3.144 2.551-3.725 0.978 1.147 2.669 2.591 5.439 3.533 0.003 0.064 0.010 0.127 0.010 0.192 0 2.209-1.791 4-3.999 4z" fill="#000000"></path>
</svg>
