<?xml version="1.0" encoding="utf-8"?>
<!-- Generated by IcoMoon.io -->
<!DOCTYPE svg PUBLIC "-//W3C//DTD SVG 1.1//EN" "http://www.w3.org/Graphics/SVG/1.1/DTD/svg11.dtd">
<svg version="1.1" xmlns="http://www.w3.org/2000/svg" xmlns:xlink="http://www.w3.org/1999/xlink" width="27" height="32" viewBox="0 0 27 32">
	<path d="M21.304 9.696q0.196-0.125 0.446-0.393v0.018q0 0.036-0.17 0.179t-0.205 0.214q-0.018-0.018-0.071-0.018zM21.196 9.714q-0.018-0.018-0.045-0.054t-0.027-0.054q0.054 0.036 0.179 0.089-0.107 0.071-0.107 0.018zM13 6.446q-0.286-0.036-0.464-0.089 0.018 0 0.116 0.018t0.188 0.036 0.161 0.036zM13.804 5.786q0.125-0.071 0.241-0.045t0.134 0.134q-0.089-0.054-0.375-0.089zM13.661 5.893l-0.054-0.036q-0.036-0.054-0.098-0.089t-0.080-0.036q0.036 0.018 0.375 0.054-0.107 0.071-0.143 0.107zM11.839 4.393v-0.036q0.018 0.036 0.054 0.098t0.054 0.098zM9.964 5.107q0 0.036-0.018 0.036l-0.018-0.036h0.036zM16.661 23.75v0zM13.714 2.286q3.732 0 6.884 1.839t4.991 4.991 1.839 6.884-1.839 6.884-4.991 4.991-6.884 1.839-6.884-1.839-4.991-4.991-1.839-6.884 1.839-6.884 4.991-4.991 6.884-1.839zM22.143 24.536l0.089-0.089q-0.125-0.179-0.518-0.214 0.018-0.214-0.25-0.473t-0.482-0.277q0-0.071-0.188-0.196t-0.313-0.143q-0.161-0.036-0.482 0.161-0.125 0.054-0.071 0.089-0.054-0.054-0.214-0.196t-0.286-0.196q-0.036-0.018-0.134-0.018t-0.152-0.036q-0.018-0.018-0.107-0.080t-0.125-0.080-0.116-0.054-0.134-0.027-0.134 0.045-0.152 0.107-0.080 0.277-0.045 0.259q-0.143-0.107-0.009-0.357t0.027-0.357q-0.125-0.125-0.375-0.009t-0.375 0.277q-0.018 0.018-0.17 0.098t-0.205 0.134q-0.071 0.107-0.161 0.313t-0.107 0.241q0-0.036-0.045-0.116t-0.045-0.116q-0.214 0.036-0.286-0.054 0.089 0.286 0.143 0.304l-0.071-0.036q-0.018 0.107 0.054 0.268t0.071 0.196q0.018 0.089-0.027 0.232t-0.045 0.196q0 0.036 0.089 0.196 0.071 0.339-0.036 0.571 0 0.018-0.063 0.125t-0.116 0.196l-0.036 0.089-0.036-0.018q-0.018-0.018-0.036 0-0.018 0.107-0.161 0.232t-0.179 0.196q-0.268 0.411-0.161 0.679 0.054 0.143 0.179 0.179 0.054 0.018 0.054-0.036 0.018 0.161-0.196 0.482 0.018 0.018 0.071 0.054-0.304 0-0.179 0.25 3.607-0.643 6.286-3.232h-0.054zM12.143 21.232q0.286-0.054 0.545 0.286t0.402 0.411q0.732 0.357 1.054 0.196 0 0.161 0.25 0.5 0.054 0.071 0.116 0.205t0.098 0.188q0.089 0.125 0.339 0.286t0.339 0.286q0.107-0.054 0.161-0.161 0.232 0.625 0.429 0.607 0.089 0 0.143-0.143 0 0.018-0.009 0.054t-0.027 0.054q0.125-0.268 0.089-0.464l0.107-0.071q0.089-0.071 0.089-0.089-0.107-0.107-0.161 0.054-0.536 0.25-0.857-0.393-0.036-0.054-0.080-0.143t-0.089-0.214-0.027-0.205 0.107-0.080q0.196 0 0.223-0.027t-0.045-0.107-0.071-0.134q-0.018-0.071-0.027-0.223t-0.027-0.223l-0.089-0.107q-0.089-0.107-0.205-0.241t-0.134-0.17q-0.071 0.179-0.295 0.152t-0.33-0.17q0.018 0.036-0.009 0.116t-0.027 0.116q-0.25 0-0.304-0.018 0.018-0.107 0.054-0.375t0.071-0.393q0.018-0.089 0.098-0.241t0.143-0.277 0.080-0.25-0.080-0.188-0.33-0.045q-0.357 0.018-0.518 0.393-0.018 0.054-0.054 0.205t-0.089 0.223-0.161 0.125q-0.143 0.054-0.482 0.036t-0.464-0.089q-0.25-0.143-0.429-0.545t-0.196-0.741q0-0.179 0.054-0.491t0.054-0.482-0.107-0.473q0.054-0.036 0.179-0.188t0.196-0.205q0.036-0.036 0.089-0.036h0.089t0.071-0.036 0.054-0.107q-0.018-0.018-0.071-0.054-0.054-0.054-0.071-0.054 0.071 0.054 0.339 0.018t0.339-0.036q0-0.018 0.393 0 0.304 0.232 0.429-0.036 0-0.018-0.045-0.188t-0.009-0.259q0.089 0.518 0.571 0.179 0.054 0.071 0.295 0.107t0.33 0.089q0.054 0.036 0.125 0.098t0.107 0.089 0.107 0.009 0.161-0.125q0.196 0.304 0.232 0.446 0.196 0.768 0.357 0.857 0.143 0.036 0.223 0.036t0.089-0.188 0-0.277-0.027-0.232l-0.036-0.661q-0.286-0.054-0.357-0.223t0.027-0.357 0.295-0.348q0.018-0.018 0.295-0.143t0.384-0.214q0.429-0.339 0.304-0.696 0.161 0.036 0.196-0.161l-0.089-0.054q-0.071-0.054-0.143-0.098t-0.089-0.027q0.196-0.125 0.036-0.321 0.089-0.054 0.143-0.205t0.161-0.205q0.161 0.25 0.393 0.054 0.143-0.161 0.036-0.321 0.089-0.143 0.393-0.205t0.357-0.17q0.089 0.018 0.125 0t0.036-0.080v-0.134t0.018-0.152 0.054-0.134q0.071-0.107 0.286-0.188t0.25-0.098l0.339-0.214q0.071-0.071 0-0.071 0.321 0.036 0.571-0.196 0.232-0.214-0.089-0.411 0.036-0.125-0.071-0.188t-0.286-0.098q0.054-0.018 0.214-0.009t0.214-0.027q0.268-0.196-0.125-0.304-0.357-0.089-0.839 0.232-0.054 0.036-0.232 0.214t-0.304 0.196q0.268-0.321 0.089-0.393 0.143 0.018 0.402-0.161t0.277-0.196q0.071-0.036 0.188-0.045t0.152-0.027q1.268-0.446 1.643 0.018 0.143-0.196 0.196-0.268t0.17-0.161 0.277-0.143q0.375-0.125 0.411-0.161l0.018-0.411q-0.214 0.018-0.321-0.143t-0.125-0.393l-0.107 0.143q0-0.107-0.063-0.134t-0.134-0.009-0.17 0.036-0.134 0q-0.161-0.036-0.348-0.277t-0.259-0.295q0.161 0 0.161-0.089-0.036-0.089-0.179-0.143 0.018-0.107-0.036-0.143t-0.161 0q-0.036-0.214-0.018-0.232-0.107-0.018-0.196-0.196t-0.143-0.179q-0.036 0-0.080 0.036t-0.089 0.098l-0.089 0.125t-0.063 0.098l-0.036 0.036q-0.214-0.107-0.429 0.179-0.161-0.018-0.304 0.036 0.268-0.107 0.036-0.232-0.196-0.089-0.375-0.036 0.214-0.089 0.179-0.25t-0.214-0.286q0.018 0 0.071 0.018t0.071 0.018q-0.018-0.089-0.17-0.17t-0.348-0.161-0.25-0.116q-0.125-0.089-0.643-0.188t-0.643-0.027q-0.089 0.054-0.107 0.107t0.027 0.152 0.063 0.152q0.107 0.411 0.089 0.482-0.018 0.054-0.152 0.143t-0.098 0.214q0.018 0.071 0.205 0.179t0.223 0.214q0.089 0.232-0.071 0.446-0.071 0.089-0.268 0.196t-0.25 0.179q-0.089 0.089-0.063 0.205t0.009 0.17q0.018-0.018 0.018-0.045t0.018-0.045q0 0.232 0.196 0.393 0.143 0.107-0.286 0.321-0.357 0.196-0.357 0.071 0.018-0.143-0.134-0.286t-0.188-0.214-0.063-0.339-0.17-0.375q-0.107-0.071-0.339-0.071t-0.321 0.089q0-0.179-0.875-0.536-0.304-0.143-1.036-0.071 0.125-0.018 0-0.304-0.143-0.286-0.375-0.214-0.143-0.446-0.071-0.625 0.036-0.089 0.161-0.25t0.161-0.268q0.018-0.054 0.277-0.107t0.295-0.143q0.018-0.071-0.045-0.116t-0.17-0.080q0.946 0.107 1.125-0.321 0.089-0.161 0.054-0.25 0 0.018 0.036 0.018t0.036 0.018q0.214-0.054 0.125-0.304 0.339-0.143 0.464-0.143 0.089 0.018 0.196 0.107t0.179 0.089q0.304 0.054 0.384-0.179t-0.17-0.411q0.125 0.071 0.125-0.107-0.018-0.232-0.125-0.339-0.054-0.036-0.116-0.045t-0.116 0-0.125-0.009q-0.018 0-0.143-0.036-0.018 0.018-0.036 0.018h-0.143q-0.071 0.036-0.071 0.089v0.018q-0.018 0.054 0.071 0.107l0.089 0.018 0.054 0.036q-0.018 0-0.045 0.045t-0.045 0.045q0 0.054 0.054 0.089-0.036 0.018-0.25 0.134t-0.304 0.188q-0.018 0.018-0.071 0.045t-0.071 0.045q-0.036 0.018-0.071-0.036t-0.071-0.161-0.071-0.205-0.080-0.179-0.098-0.080q-0.214 0-0.321 0.304 0.054-0.179-0.232-0.313t-0.446-0.134q0.357-0.268-0.161-0.536l-0.018-0.018q-0.536 0.071-0.804 0.125-0.036 0.107 0.054 0.214-0.018 0.125 0.107 0.161 0 0.018 0.009 0.018t0.009 0.018q0-0.018-0.009-0.018t-0.009-0.018q0.054 0.018 0.188 0.027t0.17 0.027q0.054 0.018 0.080 0.036l0.134 0.089t0.098 0.107-0.045 0.089q-0.036 0.018-0.161 0.071t-0.223 0.098-0.116 0.063q-0.054 0.089 0 0.286t-0.036 0.268q-0.089-0.089-0.179-0.33t-0.143-0.313q0.143 0.161-0.536 0.107l-0.143-0.018q-0.071 0-0.268 0.036t-0.286 0.018q-0.125 0-0.518-0.107 0.125-0.304 0.089-0.446 0.089 0 0.125-0.036l-0.107-0.054q-0.054 0.018-0.446 0.161 0.036 0.054 0.143 0.17t0.161 0.205q-0.393-0.107-0.482 0.036 0 0.018-0.161 0-0.446-0.018-0.429 0.125 0.018 0.071 0.161 0.214 0 0.161-0.018 0.161-0.482-0.393-0.536-0.411-3.071 1.482-4.929 4.429 0.018 0.036 0.045 0.196t0.063 0.152 0.196-0.080q0.161 0.161 0.054 0.375 0.036-0.036 0.643 0.375 1 0.714 0.393 0.946v-0.098t0.018-0.116q-0.161 0.018-0.339-0.089-0.054 0.107 0.009 0.357t0.205 0.25q-0.143 0-0.188 0.304t-0.045 0.688-0.018 0.455l0.036 0.018q-0.054 0.232 0.107 0.67t0.429 0.366q-0.071 0.321 0.089 0.375-0.018 0.071 0 0.143t0.080 0.152 0.107 0.125l0.241 0.241q0.5 0.196 0.732 0.518 0.071 0.107 0.188 0.438t0.277 0.455q-0.036 0.107 0.179 0.384t0.196 0.455q-0.018 0-0.045 0.009t-0.045 0.009q0.054 0.143 0.295 0.286t0.295 0.25q0.036 0.054 0.045 0.188t0.054 0.214 0.152 0.045q0.054-0.429-0.464-1.214-0.286-0.482-0.321-0.554-0.054-0.089-0.098-0.295t-0.080-0.277q0.482 0.161 0.464 0.232-0.089 0.179 0.464 0.929 0.036 0.054 0.179 0.179t0.196 0.214q0.054 0.071 0.17 0.259t0.188 0.277q-0.018 0-0.054 0.036l-0.054 0.054q0.071 0.036 0.161 0.089t0.143 0.080 0.134 0.089 0.134 0.134q0.286 0.321 0.357 0.589 0.018 0.071 0.009 0.277t0.027 0.295q0.036 0.107 0.107 0.196t0.205 0.179 0.205 0.125 0.259 0.116 0.205 0.098q0.036 0.018 0.321 0.196t0.446 0.25q0.179 0.071 0.295 0.080t0.286-0.045 0.277-0.071z"></path>
</svg>
