<?xml version="1.0" encoding="utf-8"?>
<!-- Generated by IcoMoon.io -->
<!DOCTYPE svg PUBLIC "-//W3C//DTD SVG 1.1//EN" "http://www.w3.org/Graphics/SVG/1.1/DTD/svg11.dtd">
<svg version="1.1" xmlns="http://www.w3.org/2000/svg" xmlns:xlink="http://www.w3.org/1999/xlink" width="44" height="32" viewBox="0 0 44 32">
	<path d="M10.686 18.703c2.308 0 4.176-1.889 4.176-4.212 0-2.328-1.869-4.213-4.176-4.213s-4.177 1.889-4.177 4.213c0.001 2.323 1.873 4.212 4.177 4.212zM42.648 27.038c-0.295-6.253-9.516-9.606-13.227-9.606-2.852 0-8.692 1.985-11.386 5.732-2.239-1.965-5.636-2.997-7.373-2.997-2.679 0-9.023 2.439-9.235 6.987h18.766c-0.001-0.041-0.014-0.076-0.015-0.117l22.471 0zM29.461 15.418c3.201 0 5.793-2.591 5.793-5.792s-2.596-5.793-5.793-5.793-5.792 2.596-5.792 5.793 2.591 5.792 5.792 5.792z" fill="#000000"></path>
</svg>
