<?xml version="1.0" encoding="utf-8"?>
<!-- Generated by IcoMoon.io -->
<!DOCTYPE svg PUBLIC "-//W3C//DTD SVG 1.1//EN" "http://www.w3.org/Graphics/SVG/1.1/DTD/svg11.dtd">
<svg version="1.1" xmlns="http://www.w3.org/2000/svg" xmlns:xlink="http://www.w3.org/1999/xlink" width="32" height="32" viewBox="0 0 32 32">
	<path d="M16 32c-8.836 0-16-7.164-16-16s7.164-16 16-16 16 7.164 16 16-7.164 16-16 16zM16 2.909c-7.231 0-13.091 5.86-13.091 13.091s5.86 13.091 13.091 13.091 13.091-5.86 13.091-13.091-5.86-13.091-13.091-13.091zM17.455 18.703c0 0.797 0 1.661 0 1.661h-2.909c0 0 0-2.105 0-2.909s0.652-1.455 1.455-1.455v0c1.606 0 2.909-1.303 2.909-2.909s-1.303-2.909-2.909-2.909-2.909 1.303-2.909 2.909c0 0.532 0.153 1.025 0.403 1.455h-3.105c-0.122-0.467-0.207-0.95-0.207-1.455 0-3.213 2.605-5.818 5.818-5.818s5.818 2.605 5.818 5.818c0 2.707-1.857 4.963-4.364 5.612zM17.455 24.727h-2.909v-2.909h2.909v2.909z"></path>
</svg>
