<?xml version="1.0" encoding="utf-8"?>
<!-- Generated by IcoMoon.io -->
<!DOCTYPE svg PUBLIC "-//W3C//DTD SVG 1.1//EN" "http://www.w3.org/Graphics/SVG/1.1/DTD/svg11.dtd">
<svg version="1.1" xmlns="http://www.w3.org/2000/svg" xmlns:xlink="http://www.w3.org/1999/xlink" width="32" height="32" viewBox="0 0 32 32">
	<path d="M16 32c-8.823 0-16-7.178-16-16s7.177-16 16-16c8.822 0 16 7.178 16 16s-7.178 16-16 16v0zM16 3.019c-7.158 0-12.981 5.823-12.981 12.981s5.823 12.981 12.981 12.981c7.157 0 12.981-5.823 12.981-12.981s-5.824-12.981-12.981-12.981v0z" fill="#000000"></path>
	<path d="M12.161 23.448c0.070-0.311 0.176-0.723 0.316-1.236l1.897-6.93c0.021-0.080 0.037-0.161 0.053-0.241s0.023-0.155 0.023-0.226c0-0.411-0.13-0.667-0.391-0.768s-0.737-0.165-1.429-0.196v-0.814c0.579-0.040 1.419-0.123 2.521-0.249s1.883-0.234 2.341-0.324l1.317-0.256-2.395 8.784c-0.201 0.753-0.336 1.275-0.407 1.567-0.181 0.743-0.272 1.226-0.272 1.446s0.050 0.364 0.151 0.429c0.1 0.066 0.211 0.098 0.332 0.098 0.312 0 0.699-0.266 1.163-0.799s0.871-1.090 1.224-1.672l0.678 0.437c-1.006 1.476-1.776 2.47-2.309 2.983-0.875 0.844-1.81 1.266-2.806 1.266-0.563 0-1.069-0.173-1.516-0.52-0.448-0.346-0.671-0.876-0.671-1.59 0-0.25 0.060-0.647 0.181-1.19v0zM19.417 5.926c0.402 0.402 0.603 0.889 0.603 1.462s-0.201 1.062-0.603 1.469c-0.402 0.407-0.889 0.61-1.462 0.61s-1.062-0.203-1.469-0.61-0.61-0.896-0.61-1.469c0-0.572 0.203-1.059 0.61-1.462s0.896-0.603 1.469-0.603 1.060 0.201 1.462 0.603v0z" fill="#000000"></path>
</svg>
