<?xml version="1.0" encoding="utf-8"?>
<!-- Generated by IcoMoon.io -->
<!DOCTYPE svg PUBLIC "-//W3C//DTD SVG 1.1//EN" "http://www.w3.org/Graphics/SVG/1.1/DTD/svg11.dtd">
<svg version="1.1" xmlns="http://www.w3.org/2000/svg" xmlns:xlink="http://www.w3.org/1999/xlink" width="18" height="32" viewBox="0 0 18 32">
	<path d="M13.143 10.286q0 0.232-0.17 0.402t-0.402 0.17-0.402-0.17-0.17-0.402q0-0.821-0.964-1.268t-1.893-0.446q-0.232 0-0.402-0.17t-0.17-0.402 0.17-0.402 0.402-0.17q0.893 0 1.777 0.286t1.554 0.964 0.67 1.607zM16 10.286q0-1.286-0.616-2.393t-1.607-1.813-2.196-1.107-2.438-0.402-2.438 0.402-2.196 1.107-1.607 1.813-0.616 2.393q0 1.804 1.214 3.214 0.179 0.196 0.545 0.589t0.545 0.589q2.286 2.732 2.518 5.321h4.071q0.232-2.589 2.518-5.321 0.179-0.196 0.545-0.589t0.545-0.589q1.214-1.411 1.214-3.214zM18.286 10.286q0 2.768-1.839 4.786-0.804 0.875-1.33 1.554t-1.063 1.705-0.607 1.92q0.839 0.5 0.839 1.464 0 0.661-0.446 1.143 0.446 0.482 0.446 1.143 0 0.929-0.804 1.446 0.232 0.411 0.232 0.839 0 0.821-0.563 1.268t-1.384 0.446q-0.357 0.786-1.071 1.25t-1.554 0.464-1.554-0.464-1.071-1.25q-0.821 0-1.384-0.446t-0.563-1.268q0-0.429 0.232-0.839-0.804-0.518-0.804-1.446 0-0.661 0.446-1.143-0.446-0.482-0.446-1.143 0-0.964 0.839-1.464-0.071-0.893-0.607-1.92t-1.063-1.705-1.33-1.554q-1.839-2.018-1.839-4.786 0-1.768 0.795-3.295t2.089-2.536 2.929-1.589 3.33-0.58 3.33 0.58 2.929 1.589 2.089 2.536 0.795 3.295z" fill="#000000"></path>
</svg>
