<?xml version="1.0" encoding="utf-8"?>
<!-- Generated by IcoMoon.io -->
<!DOCTYPE svg PUBLIC "-//W3C//DTD SVG 1.1//EN" "http://www.w3.org/Graphics/SVG/1.1/DTD/svg11.dtd">
<svg version="1.1" xmlns="http://www.w3.org/2000/svg" xmlns:xlink="http://www.w3.org/1999/xlink" width="32" height="32" viewBox="0 0 32 32">
	<path d="M9.845 17.839v11.723s0.085-0.918 4.981 0.824c0 0 3.357 1.294 5.899 1.294 0 0 3.248 0 4.943 0s2.212-1.424 2.872-2.554c0 0 0.565-1.619 0-2.372 0 0 1.6-0.644 1.695-2.021 0 0 0.283-0.722-0.377-1.947 0 0 0.847-1.095 1.035-2.902 0 0 0.283-0.548-0.565-1.273 0 0 1.032-2.137 0.61-3.267 0 0-0.61-2.166-1.834-2.072 0 0-6.591 0.376-7.061 0.471s-0.725 0.094-1.633-0.471c0 0-0.438-0.565 0.88-2.448 0 0 1.601-3.201 1.978-4.99 0 0 0.471-3.107-2.071-4.896 0 0-1.224-0.753-1.978 0 0 0-0.188 0.377-0.377 3.013 0 0-0.188 2.071-1.601 3.86 0 0-2.98 2.636-3.828 4.802-0-0-1.329 3.39-3.569 5.225zM1.622 17.092c-0.919 7.88-0.191 13.308-0.191 13.308h5.262v-13.3c-3.2-0.404-5.071-0.008-5.071-0.008z"></path>
</svg>
