<?xml version="1.0" encoding="utf-8"?>
<!-- Generated by IcoMoon.io -->
<!DOCTYPE svg PUBLIC "-//W3C//DTD SVG 1.1//EN" "http://www.w3.org/Graphics/SVG/1.1/DTD/svg11.dtd">
<svg version="1.1" xmlns="http://www.w3.org/2000/svg" xmlns:xlink="http://www.w3.org/1999/xlink" width="30" height="32" viewBox="0 0 30 32">
	<path d="M21.25 10.375l5.232-5.232-1.911-1.911-5.232 5.232zM29.232 5.143q0 0.482-0.321 0.804l-22.964 22.964q-0.321 0.321-0.804 0.321t-0.804-0.321l-3.536-3.536q-0.321-0.321-0.321-0.804t0.321-0.804l22.964-22.964q0.321-0.321 0.804-0.321t0.804 0.321l3.536 3.536q0.321 0.321 0.321 0.804zM5.107 1.75l1.75 0.536-1.75 0.536-0.536 1.75-0.536-1.75-1.75-0.536 1.75-0.536 0.536-1.75zM11.357 4.643l3.5 1.071-3.5 1.071-1.071 3.5-1.071-3.5-3.5-1.071 3.5-1.071 1.071-3.5zM27.964 13.179l1.75 0.536-1.75 0.536-0.536 1.75-0.536-1.75-1.75-0.536 1.75-0.536 0.536-1.75zM16.536 1.75l1.75 0.536-1.75 0.536-0.536 1.75-0.536-1.75-1.75-0.536 1.75-0.536 0.536-1.75z"></path>
</svg>
