<?xml version="1.0" encoding="utf-8"?>
<!-- Generated by IcoMoon.io -->
<!DOCTYPE svg PUBLIC "-//W3C//DTD SVG 1.1//EN" "http://www.w3.org/Graphics/SVG/1.1/DTD/svg11.dtd">
<svg version="1.1" xmlns="http://www.w3.org/2000/svg" xmlns:xlink="http://www.w3.org/1999/xlink" width="32" height="32" viewBox="0 0 32 32">
	<path d="M32 16q0 0.464-0.339 0.804l-4.571 4.571q-0.339 0.339-0.804 0.339t-0.804-0.339-0.339-0.804v-2.286h-6.857v6.857h2.286q0.464 0 0.804 0.339t0.339 0.804-0.339 0.804l-4.571 4.571q-0.339 0.339-0.804 0.339t-0.804-0.339l-4.571-4.571q-0.339-0.339-0.339-0.804t0.339-0.804 0.804-0.339h2.286v-6.857h-6.857v2.286q0 0.464-0.339 0.804t-0.804 0.339-0.804-0.339l-4.571-4.571q-0.339-0.339-0.339-0.804t0.339-0.804l4.571-4.571q0.339-0.339 0.804-0.339t0.804 0.339 0.339 0.804v2.286h6.857v-6.857h-2.286q-0.464 0-0.804-0.339t-0.339-0.804 0.339-0.804l4.571-4.571q0.339-0.339 0.804-0.339t0.804 0.339l4.571 4.571q0.339 0.339 0.339 0.804t-0.339 0.804-0.804 0.339h-2.286v6.857h6.857v-2.286q0-0.464 0.339-0.804t0.804-0.339 0.804 0.339l4.571 4.571q0.339 0.339 0.339 0.804z"></path>
</svg>
