<?xml version="1.0" encoding="utf-8"?>
<!-- Generated by IcoMoon.io -->
<!DOCTYPE svg PUBLIC "-//W3C//DTD SVG 1.1//EN" "http://www.w3.org/Graphics/SVG/1.1/DTD/svg11.dtd">
<svg version="1.1" xmlns="http://www.w3.org/2000/svg" xmlns:xlink="http://www.w3.org/1999/xlink" width="25" height="32" viewBox="0 0 25 32">
	<path d="M25.071 24.732q0 2.089-1.411 3.5t-3.5 1.411q-2.411 0-4.196-1.786l-13.875-13.857q-2.018-2.054-2.018-4.839 0-2.839 1.964-4.821t4.804-1.982q2.821 0 4.875 2.018l10.804 10.821q0.179 0.179 0.179 0.393 0 0.286-0.545 0.83t-0.83 0.545q-0.232 0-0.411-0.179l-10.821-10.839q-1.411-1.375-3.232-1.375-1.893 0-3.196 1.339t-1.304 3.232q0 1.875 1.357 3.232l13.857 13.875q1.125 1.125 2.589 1.125 1.143 0 1.893-0.75t0.75-1.893q0-1.464-1.125-2.589l-10.375-10.375q-0.464-0.429-1.071-0.429-0.518 0-0.857 0.339t-0.339 0.857q0 0.571 0.446 1.054l7.321 7.321q0.179 0.179 0.179 0.393 0 0.286-0.554 0.839t-0.839 0.554q-0.214 0-0.393-0.179l-7.321-7.321q-1.125-1.089-1.125-2.661 0-1.464 1.018-2.482t2.482-1.018q1.571 0 2.661 1.125l10.375 10.375q1.786 1.75 1.786 4.196z"></path>
</svg>
