<?xml version="1.0" encoding="utf-8"?>
<!-- Generated by IcoMoon.io -->
<!DOCTYPE svg PUBLIC "-//W3C//DTD SVG 1.1//EN" "http://www.w3.org/Graphics/SVG/1.1/DTD/svg11.dtd">
<svg version="1.1" xmlns="http://www.w3.org/2000/svg" xmlns:xlink="http://www.w3.org/1999/xlink" width="27" height="32" viewBox="0 0 27 32">
	<path d="M6.482 27.429l1.625-1.625-4.196-4.196-1.625 1.625v1.911h2.286v2.286h1.911zM15.821 10.857q0-0.393-0.393-0.393-0.179 0-0.304 0.125l-9.679 9.679q-0.125 0.125-0.125 0.304 0 0.393 0.393 0.393 0.179 0 0.304-0.125l9.679-9.679q0.125-0.125 0.125-0.304zM14.857 7.429l7.429 7.429-14.857 14.857h-7.429v-7.429zM27.054 9.143q0 0.946-0.661 1.607l-2.964 2.964-7.429-7.429 2.964-2.946q0.643-0.679 1.607-0.679 0.946 0 1.625 0.679l4.196 4.179q0.661 0.696 0.661 1.625z"></path>
</svg>
