<?xml version="1.0" encoding="utf-8"?>
<!-- Generated by IcoMoon.io -->
<!DOCTYPE svg PUBLIC "-//W3C//DTD SVG 1.1//EN" "http://www.w3.org/Graphics/SVG/1.1/DTD/svg11.dtd">
<svg version="1.1" xmlns="http://www.w3.org/2000/svg" xmlns:xlink="http://www.w3.org/1999/xlink" width="32" height="32" viewBox="0 0 32 32">
	<path d="M16 30.092c-7.77 0-14.092-6.321-14.092-14.092s6.322-14.092 14.092-14.092c7.77 0 14.092 6.322 14.092 14.092s-6.321 14.092-14.092 14.092v0zM16 3.736c-6.763 0-12.264 5.501-12.264 12.264 0 6.762 5.502 12.264 12.264 12.264s12.264-5.502 12.264-12.264c0-6.763-5.502-12.264-12.264-12.264v0z"></path>
	<path d="M17.176 17.588c-0.040-0.052-0.083-0.1-0.128-0.145-0.002-0.002-0.003-0.005-0.005-0.007l-6.858-7.168c-0.016-0.016-0.035-0.027-0.054-0.035-0.143-0.1-0.343-0.107-0.484 0.002-0.087 0.066-0.143 0.163-0.157 0.272-0.011 0.086 0.006 0.171 0.046 0.245 0.002 0.004 0.002 0.008 0.005 0.012 0 0 5.248 8.591 5.283 8.636 0.283 0.368 0.712 0.579 1.177 0.579 0.329 0 0.642-0.106 0.904-0.307 0.315-0.243 0.515-0.592 0.568-0.986 0.050-0.392-0.055-0.782-0.297-1.097z"></path>
	<path d="M15.999 7.437c-0.324 0-0.589-0.264-0.589-0.588s0.264-0.589 0.589-0.589 0.589 0.264 0.589 0.589-0.265 0.588-0.589 0.588v0z"></path>
	<path d="M18.901 7.819c-0.052 0-0.103-0.006-0.153-0.020-0.151-0.041-0.279-0.138-0.358-0.274s-0.099-0.295-0.059-0.447c0.082-0.306 0.414-0.498 0.721-0.415 0.313 0.083 0.5 0.407 0.416 0.72-0.069 0.257-0.302 0.436-0.568 0.436v0z"></path>
	<path d="M13.098 7.819c-0.266 0-0.5-0.179-0.569-0.436-0.041-0.152-0.019-0.31 0.059-0.446s0.205-0.234 0.358-0.274c0.308-0.082 0.639 0.11 0.721 0.416 0.041 0.152 0.019 0.311-0.059 0.447s-0.205 0.234-0.357 0.274c-0.050 0.013-0.101 0.020-0.152 0.020v0z"></path>
	<path d="M10.395 8.939c-0.209 0-0.405-0.113-0.51-0.294-0.078-0.136-0.099-0.295-0.058-0.446s0.138-0.279 0.274-0.357c0.271-0.157 0.648-0.055 0.804 0.215 0.162 0.282 0.066 0.642-0.215 0.804-0.090 0.051-0.191 0.079-0.294 0.079v0z"></path>
	<path d="M8.073 10.72c-0.158 0-0.305-0.061-0.417-0.173-0.229-0.229-0.229-0.603 0-0.832 0.222-0.222 0.61-0.223 0.833 0 0.229 0.229 0.229 0.603 0 0.832-0.111 0.111-0.259 0.172-0.417 0.172v0z"></path>
	<path d="M6.291 13.042c-0.103 0-0.205-0.027-0.294-0.079-0.136-0.079-0.233-0.206-0.274-0.358s-0.020-0.311 0.059-0.446c0.156-0.27 0.532-0.373 0.804-0.216 0.282 0.162 0.378 0.523 0.216 0.804-0.105 0.182-0.301 0.295-0.51 0.295v0z"></path>
	<path d="M25.671 13.012c-0.227 0-0.44-0.121-0.554-0.317-0.928-1.572-2.25-2.885-3.83-3.799-0.149-0.086-0.255-0.224-0.298-0.39-0.045-0.166-0.021-0.34 0.064-0.488 0.17-0.296 0.581-0.406 0.878-0.234 1.769 1.024 3.254 2.497 4.293 4.259 0.086 0.147 0.111 0.32 0.068 0.486-0.042 0.166-0.148 0.306-0.296 0.393-0.099 0.058-0.211 0.089-0.325 0.089v0z"></path>
	<path d="M19.853 19.136c-1.046 0-1.445 0.776-1.705 1.114-0.514 0.669-1.298 1.012-2.081 0.992-0.785 0.019-1.567-0.323-2.082-0.992-0.26-0.338-0.659-1.114-1.705-1.114-0.728 0-4.843 0-7.276 0 1.367 4.786 5.778 8.301 10.997 8.301s9.63-3.515 10.997-8.301c-2.447 0-6.428 0-7.143 0zM19.14 24.904h-6.28c-0.583 0-1.058-0.461-1.058-1.028 0-0.568 0.475-1.029 1.058-1.029h6.28c0.584 0 1.058 0.461 1.058 1.029 0 0.566-0.474 1.028-1.057 1.028z"></path>
</svg>
