<?xml version="1.0" encoding="utf-8"?>
<!-- Generated by IcoMoon.io -->
<!DOCTYPE svg PUBLIC "-//W3C//DTD SVG 1.1//EN" "http://www.w3.org/Graphics/SVG/1.1/DTD/svg11.dtd">
<svg version="1.1" xmlns="http://www.w3.org/2000/svg" xmlns:xlink="http://www.w3.org/1999/xlink" width="32" height="32" viewBox="0 0 32 32">
	<path d="M14.857 9.143q0-1.429-1-2.429t-2.429-1-2.429 1-1 2.429q0 0.75 0.339 1.482-0.732-0.339-1.482-0.339-1.429 0-2.429 1t-1 2.429 1 2.429 2.429 1 2.429-1 1-2.429q0-0.75-0.339-1.482 0.732 0.339 1.482 0.339 1.429 0 2.429-1t1-2.429zM30.054 21.714q0 0.304-0.875 1.179t-1.179 0.875q-0.161 0-0.509-0.286t-0.652-0.589-0.688-0.714-0.438-0.464l-1.714 1.714 3.929 3.929q0.5 0.5 0.5 1.214 0 0.75-0.696 1.446t-1.446 0.696q-0.714 0-1.214-0.5l-11.982-11.982q-3.143 2.339-6.518 2.339-2.911 0-4.741-1.83t-1.83-4.741q0-2.857 1.696-5.589t4.429-4.429 5.589-1.696q2.911 0 4.741 1.83t1.83 4.741q0 3.375-2.339 6.518l6.339 6.339 1.714-1.714q-0.054-0.054-0.464-0.438t-0.714-0.688-0.589-0.652-0.286-0.509q0-0.304 0.875-1.179t1.179-0.875q0.232 0 0.411 0.179 0.107 0.107 0.821 0.795t1.464 1.42 1.545 1.536 1.304 1.393 0.509 0.732z"></path>
</svg>
