<?xml version="1.0" encoding="utf-8"?>
<!-- Generated by IcoMoon.io -->
<!DOCTYPE svg PUBLIC "-//W3C//DTD SVG 1.1//EN" "http://www.w3.org/Graphics/SVG/1.1/DTD/svg11.dtd">
<svg version="1.1" xmlns="http://www.w3.org/2000/svg" xmlns:xlink="http://www.w3.org/1999/xlink" width="30" height="32" viewBox="0 0 30 32">
	<path d="M6.857 27.429h16v-4.571h-16v4.571zM6.857 16h16v-6.857h-2.857q-0.714 0-1.214-0.5t-0.5-1.214v-2.857h-11.429v11.429zM27.429 17.143q0-0.464-0.339-0.804t-0.804-0.339-0.804 0.339-0.339 0.804 0.339 0.804 0.804 0.339 0.804-0.339 0.339-0.804zM29.714 17.143v7.429q0 0.232-0.17 0.402t-0.402 0.17h-4v2.857q0 0.714-0.5 1.214t-1.214 0.5h-17.143q-0.714 0-1.214-0.5t-0.5-1.214v-2.857h-4q-0.232 0-0.402-0.17t-0.17-0.402v-7.429q0-1.411 1.009-2.42t2.42-1.009h1.143v-9.714q0-0.714 0.5-1.214t1.214-0.5h12q0.714 0 1.571 0.357t1.357 0.857l2.714 2.714q0.5 0.5 0.857 1.357t0.357 1.571v4.571h1.143q1.411 0 2.42 1.009t1.009 2.42z" fill="#000000"></path>
</svg>
