<?xml version="1.0" encoding="utf-8"?>
<!-- Generated by IcoMoon.io -->
<!DOCTYPE svg PUBLIC "-//W3C//DTD SVG 1.1//EN" "http://www.w3.org/Graphics/SVG/1.1/DTD/svg11.dtd">
<svg version="1.1" xmlns="http://www.w3.org/2000/svg" xmlns:xlink="http://www.w3.org/1999/xlink" width="32" height="32" viewBox="0 0 32 32">
	<path d="M32 11.429q0 0.464-0.339 0.804l-9.143 9.143q-0.339 0.339-0.804 0.339t-0.804-0.339-0.339-0.804v-4.571h-4q-1.75 0-3.134 0.107t-2.75 0.384-2.375 0.759-1.884 1.241-1.429 1.804-0.866 2.473-0.313 3.232q0 0.982 0.089 2.196 0 0.107 0.045 0.42t0.045 0.473q0 0.268-0.152 0.446t-0.42 0.179q-0.286 0-0.5-0.304-0.125-0.161-0.232-0.393t-0.241-0.536-0.188-0.429q-2.268-5.089-2.268-8.054 0-3.554 0.946-5.946 2.893-7.196 15.625-7.196h4v-4.571q0-0.464 0.339-0.804t0.804-0.339 0.804 0.339l9.143 9.143q0.339 0.339 0.339 0.804z" fill="#000000"></path>
</svg>
