<?xml version="1.0" encoding="utf-8"?>
<!-- Generated by IcoMoon.io -->
<!DOCTYPE svg PUBLIC "-//W3C//DTD SVG 1.1//EN" "http://www.w3.org/Graphics/SVG/1.1/DTD/svg11.dtd">
<svg version="1.1" xmlns="http://www.w3.org/2000/svg" xmlns:xlink="http://www.w3.org/1999/xlink" width="32" height="32" viewBox="0 0 32 32">
	<path d="M17.837 11.41c-0.317-1.801-0.948-3.948-1.72-5.761l-0.003 0.001c-1.576-1.357-4.852-1.93-8.444-1.296-3.592 0.632-6.475 2.291-7.492 4.106l-0.029 0.006c-0.104 1.966 0.036 4.199 0.354 6.002 1.272 7.208 6.508 14.211 11.295 13.367 4.786-0.845 7.311-9.216 6.040-16.425zM3.396 14.727c-0.211 0.076-0.45 0.073-0.668-0.030-0.439-0.203-0.627-0.723-0.423-1.16 0.803-1.723 2.856-2.47 4.578-1.668 0.437 0.204 0.626 0.724 0.422 1.161-0.205 0.437-0.724 0.627-1.16 0.423-0.85-0.396-1.862-0.026-2.258 0.821-0.102 0.22-0.282 0.375-0.492 0.453zM15.881 17.68c-2.161 6.854-7.021 7.71-11.395 2.010l0.008-0.002c-0.004-0.003-0.008-0.004-0.011-0.007-0.254-0.178-0.316-0.528-0.138-0.783 0.179-0.254 0.527-0.317 0.783-0.139 0.346 0.244 0.713 0.449 1.089 0.624 1.299 0.604 2.747 0.802 4.186 0.548 1.44-0.254 2.732-0.936 3.745-1.946 0.294-0.294 0.567-0.612 0.81-0.958 0.18-0.254 0.529-0.316 0.783-0.138 0.255 0.178 0.316 0.527 0.138 0.783-0.001 0.003-0.004 0.006-0.007 0.008l0.008-0.001zM15.826 12.387c-0.34 0.341-0.893 0.341-1.234 0-0.663-0.662-1.741-0.662-2.402 0-0.171 0.171-0.395 0.257-0.619 0.257-0.224-0.002-0.447-0.085-0.619-0.257-0.34-0.341-0.34-0.894 0-1.235 1.345-1.343 3.53-1.343 4.873 0 0.342 0.342 0.342 0.895 0 1.235zM31.851 8.465h-0.003c-1.018-1.816-3.899-3.474-7.492-4.107-2.699-0.477-5.22-0.271-6.976 0.436l0.115 0.268c0.678 1.589 1.268 3.473 1.641 5.199 0.787 0.313 1.46 0.912 1.846 1.738 0.204 0.438 0.015 0.958-0.422 1.163-0.352 0.163-0.754 0.069-1.005-0.199 0.156 1.64 0.14 3.312-0.040 4.935 0.773 0.137 1.543 0.433 2.339 0.573 2.032 0.358 4.244-0.297 5.323 3.13l-0.008-0.002c0.003 0.004 0.006 0.007 0.008 0.010 0.177 0.254 0.116 0.605-0.138 0.783s-0.604 0.116-0.782-0.138c-0.243-0.348-0.518-0.664-0.811-0.958-1.014-1.012-2.852-0.562-4.291-0.816-0.803-0.141-1.372-0.202-1.899-0.532-0.188 0.989-0.436 1.643-0.751 2.55-0.43 1.248-0.959 2.343-1.571 3.273 0.916 1.101 2.016 1.842 3.269 2.064 4.787 0.843 10.024-6.16 11.295-13.367 0.318-1.803 0.459-4.037 0.354-6.002zM29.761 13.924c-0.343 0.341-0.895 0.341-1.236 0-0.664-0.663-1.741-0.663-2.404 0-0.169 0.171-0.393 0.257-0.617 0.257s-0.447-0.086-0.617-0.257c-0.342-0.341-0.342-0.894 0-1.234 1.341-1.343 3.528-1.345 4.873-0.002 0.34 0.341 0.34 0.894 0 1.236z" fill="#000000"></path>
</svg>
