<?xml version="1.0" encoding="utf-8"?>
<!-- Generated by IcoMoon.io -->
<!DOCTYPE svg PUBLIC "-//W3C//DTD SVG 1.1//EN" "http://www.w3.org/Graphics/SVG/1.1/DTD/svg11.dtd">
<svg version="1.1" xmlns="http://www.w3.org/2000/svg" xmlns:xlink="http://www.w3.org/1999/xlink" width="15" height="32" viewBox="0 0 15 32">
	<path d="M8.701 31.332l2.522-2.5v-14.641c2.205-1.252 3.694-3.601 3.688-6.298 0.008-4.018-3.279-7.272-7.329-7.281-4.059 0.009-7.346 3.263-7.352 7.281 0.005 2.69 1.488 5.034 3.688 6.288v2.945l2.332 2.333-1.785 1.785 1.714 1.713-1.76 1.76 1.784 1.785-1.784 1.785 3.045 3.046c0.459 0.44 0.78 0.451 1.237-0.001zM5.655 4.706c0.010-1.074 0.884-1.937 1.952-1.928 1.083-0.010 1.956 0.854 1.951 1.928 0.006 1.056-0.868 1.92-1.951 1.928-1.068-0.008-1.942-0.872-1.952-1.928z"></path>
</svg>
