<?xml version="1.0" encoding="utf-8"?>
<!-- Generated by IcoMoon.io -->
<!DOCTYPE svg PUBLIC "-//W3C//DTD SVG 1.1//EN" "http://www.w3.org/Graphics/SVG/1.1/DTD/svg11.dtd">
<svg version="1.1" xmlns="http://www.w3.org/2000/svg" xmlns:xlink="http://www.w3.org/1999/xlink" width="32" height="32" viewBox="0 0 32 32">
	<path d="M23.494 21.052v-16.413h-14.989v16.413l7.494 5.717z"></path>
	<path d="M28.634 1.604c-0.351 0-0.66 0.166-0.863 0.42h-23.542c-0.203-0.254-0.512-0.42-0.863-0.42-0.612 0-1.108 0.496-1.108 1.108s0.496 1.108 1.108 1.108c0.346 0 0.651-0.162 0.854-0.411h1.556v19.339l10.224 7.647 10.223-7.647v-19.339h1.556c0.203 0.249 0.508 0.411 0.854 0.411 0.612 0 1.108-0.496 1.108-1.108s-0.496-1.108-1.108-1.108zM24.845 21.755l-8.845 6.84-8.845-6.84v-18.345h17.69v18.345z"></path>
</svg>
