<?xml version="1.0" encoding="utf-8"?>
<!-- Generated by IcoMoon.io -->
<!DOCTYPE svg PUBLIC "-//W3C//DTD SVG 1.1//EN" "http://www.w3.org/Graphics/SVG/1.1/DTD/svg11.dtd">
<svg version="1.1" xmlns="http://www.w3.org/2000/svg" xmlns:xlink="http://www.w3.org/1999/xlink" width="32" height="32" viewBox="0 0 32 32">
	<path d="M30.543 10.177c-2.797-6.925-10.022-10.73-17.094-9.475 0.018 0.040 0.038 0.078 0.055 0.119 0.164 0.405 0.235 0.825 0.226 1.235 6.096-1.059 12.324 2.013 15.113 7.701l-7.188 2.905c-2.221-5.168-4.948-8.209-7.697-9.613-0.064 0.46-0.229 0.902-0.485 1.288 2.222 1.214 4.74 3.822 6.902 8.842l-9.254 3.739c-1.978-5.234-1.95-8.945-1.125-11.32-0.444-0.133-0.855-0.365-1.201-0.68-1.124 2.878-1.007 7.094 1.046 12.518l-7.151 2.888c-1.889-6.094 0.872-13.598 6.225-16.693 0.604 0.747 1.646 1.047 2.583 0.668 1.148-0.464 1.703-1.771 1.239-2.92-0.463-1.148-1.771-1.703-2.92-1.239-0.907 0.366-1.441 1.258-1.398 2.183-6.364 3.454-9.485 12.514-6.668 19.488 2.839 7.027 10.238 10.84 17.408 9.414-0.116-0.174-0.217-0.363-0.297-0.564-0.101-0.245-0.163-0.495-0.196-0.746-6.343 1.15-12.849-2.188-15.495-8.296l7.184-2.902c2.271 5.34 5.586 8.953 8.373 10.385-0.057-0.502 0.275-1.157 0.604-1.359-2.212-1.378-5.548-4.562-7.695-9.544l9.256-3.739c1.867 4.954 1.768 9.609 1.204 12.166 0.438-0.073 1.125 0.161 1.46 0.527 0.875-3.001 0.626-7.963-1.383-13.211l7.214-2.915c2.271 6.143-0.759 13.596-5.924 17.235-0.611-0.7-1.62-0.976-2.53-0.607-1.149 0.463-1.705 1.769-1.24 2.919s1.772 1.703 2.921 1.24c0.925-0.375 1.466-1.3 1.395-2.244 5.956-4.017 9.331-12.471 6.534-19.391z"></path>
</svg>
