<svg xmlns="http://www.w3.org/2000/svg" width="32" height="32" viewBox="0 0 100 100">
  <g>
    <path d="M89.646 78.092h-80.291c-3.327 0-6.022-2.697-6.022-6.022v-6.021h18.065c21.702 0 19.571-19.238 15.909-31.72-2.405-2.807-3.866-6.445-3.866-10.432 0-8.868 7.19-16.058 16.058-16.058s16.059 7.19 16.059 16.058c0 4.116-1.561 7.856-4.109 10.699-8.059 28.204 16.152 31.454 16.152 31.454h18.064999999999998v6.021c.001 3.324-2.696 6.021-6.02 6.021zm1.975 10.525c0 1.961-1.615 3.553-3.614 3.553h-77.011c-1.996 0-3.626-1.592-3.626-3.553l-.021-6.512h84.305l-.033 6.512z"/>
  </g>
</svg>