<?xml version="1.0" encoding="utf-8"?>
<!-- Generator: Adobe Illustrator 14.0.0, SVG Export Plug-In . SVG Version: 6.00 Build 43363)  -->
<!DOCTYPE svg PUBLIC "-//W3C//DTD SVG 1.1//EN" "http://www.w3.org/Graphics/SVG/1.1/DTD/svg11.dtd">
<svg version="1.1" id="Layer_1" xmlns="http://www.w3.org/2000/svg" xmlns:xlink="http://www.w3.org/1999/xlink" x="0px" y="0px"
	 width="32px" height="32px" viewBox="0 0 32 32" enable-background="new 0 0 32 32" xml:space="preserve">
<g>
	<path d="M0,4.5v22h32v-22H0z M21.333,9.833V6.5H30v3.333H21.333z M30,11.167V14.5h-8.667v-3.333H30z M20,9.833h-8.667V6.5H20V9.833
		z M20,11.167V14.5h-8.667v-3.333H20z M10,14.5H2v-3.333h8V14.5z M10,15.833v3.334H2v-3.334H10z M11.333,15.833H20v3.334h-8.667
		V15.833z M20,20.5v4h-8.667v-4H20z M21.333,20.5H30v4h-8.667V20.5z M21.333,19.167v-3.334H30v3.334H21.333z M10,6.5v3.333H2V6.5H10
		z M2,20.5h8v4H2V20.5z"/>
</g>
</svg>
