<?xml version="1.0" encoding="utf-8"?>
<!-- Generator: Adobe Illustrator 14.0.0, SVG Export Plug-In . SVG Version: 6.00 Build 43363)  -->
<!DOCTYPE svg PUBLIC "-//W3C//DTD SVG 1.1//EN" "http://www.w3.org/Graphics/SVG/1.1/DTD/svg11.dtd">
<svg version="1.1" id="Layer_1" xmlns="http://www.w3.org/2000/svg" xmlns:xlink="http://www.w3.org/1999/xlink" x="0px" y="0px"
	 width="32px" height="32px" viewBox="0 0 32 32" enable-background="new 0 0 32 32" xml:space="preserve">
<g>
	<path d="M17.581,1.848c-0.7,0-1.267,0.566-1.267,1.268s0.567,1.268,1.267,1.268c6.552,0,11.884,5.333,11.884,11.885
		c0,6.554-5.332,11.886-11.884,11.886c-6.013,0-10.996-4.491-11.775-10.295l0.887,0.888c0.248,0.247,0.572,0.37,0.897,0.37
		c0.325,0,0.648-0.123,0.896-0.37c0.496-0.496,0.496-1.298,0-1.793l-3.161-3.161c-0.495-0.495-1.299-0.495-1.793,0l-3.162,3.161
		c-0.495,0.495-0.495,1.297,0,1.793c0.494,0.494,1.298,0.494,1.793,0l1.066-1.066c0.711,7.291,6.875,13.01,14.35,13.01
		c7.949,0,14.42-6.469,14.42-14.42S25.531,1.848,17.581,1.848z"/>
	<circle cx="22.828" cy="8.997" r="1.195"/>
	<circle cx="25.217" cy="15.757" r="1.195"/>
	<circle cx="22.828" cy="22.327" r="1.193"/>
	<circle cx="17.398" cy="25.91" r="1.194"/>
	<path d="M12.805,23.286c0.344,0,0.688-0.132,0.951-0.395l4.593-4.597c0.253-0.252,0.394-0.594,0.394-0.95v-9.05
		c0-0.741-0.602-1.344-1.342-1.344c-0.742,0-1.345,0.603-1.345,1.344v8.494l-4.2,4.202c-0.525,0.525-0.525,1.377,0,1.9
		C12.117,23.155,12.461,23.286,12.805,23.286z"/>
</g>
</svg>
