<?xml version="1.0" encoding="utf-8"?>
<!-- Generated by IcoMoon.io -->
<!DOCTYPE svg PUBLIC "-//W3C//DTD SVG 1.1//EN" "http://www.w3.org/Graphics/SVG/1.1/DTD/svg11.dtd">
<svg version="1.1" xmlns="http://www.w3.org/2000/svg" xmlns:xlink="http://www.w3.org/1999/xlink" width="18" height="32" viewBox="0 0 18 32">
	<path d="M9.143 20.571q0-0.643-0.357-1.232-0.018-0.018-0.277-0.402t-0.455-0.679-0.446-0.786-0.375-0.902q-0.071-0.286-0.375-0.286t-0.375 0.286q-0.125 0.411-0.375 0.902t-0.446 0.786-0.455 0.679-0.277 0.402q-0.357 0.589-0.357 1.232 0 0.946 0.67 1.616t1.616 0.67 1.616-0.67 0.67-1.616zM18.286 18.286q0 3.786-2.679 6.464t-6.464 2.679-6.464-2.679-2.679-6.464q0-2.589 1.446-4.911 0.107-0.161 1.116-1.616t1.804-2.696 1.777-3.179 1.482-3.598q0.161-0.536 0.607-0.839t0.911-0.304 0.92 0.304 0.598 0.839q0.5 1.661 1.482 3.598t1.777 3.179 1.804 2.696 1.116 1.616q1.446 2.268 1.446 4.911z" fill="#000000"></path>
</svg>
