<?xml version="1.0" encoding="utf-8"?>
<!-- Generated by IcoMoon.io -->
<!DOCTYPE svg PUBLIC "-//W3C//DTD SVG 1.1//EN" "http://www.w3.org/Graphics/SVG/1.1/DTD/svg11.dtd">
<svg version="1.1" xmlns="http://www.w3.org/2000/svg" xmlns:xlink="http://www.w3.org/1999/xlink" width="35" height="32" viewBox="0 0 35 32">
	<path d="M28.261 3.401h-7.152c0-1.317-1.064-2.385-2.385-2.385h-2.385c-1.317 0-2.385 1.064-2.385 2.385h-7.152c-1.317 0-2.385 1.069-2.385 2.385s-0.025 1.152-0.025 2.385h26.218c0-1.462 0.021-1.064 0.021-2.385 0.015-1.321-1.052-2.385-2.369-2.385zM9.195 10.549c-1.317 0-1.152 0.051-2.385 0.051l0 19.015c0 1.317 1.069 2.385 2.385 2.385h16.685c1.317 0 2.385-1.064 2.385-2.385v-19.102c-1.389 0-1.064 0.036-2.385 0.036l-16.685 0zM13.962 26.785h-2.385v-10.871h2.385v10.871zM18.728 26.785h-2.385l0.003-10.871h2.385l-0.003 10.871zM23.495 26.785h-2.385l0.003-10.871h2.385l-0.003 10.871z" fill="#000000"></path>
</svg>
