<?xml version="1.0" encoding="utf-8"?>
<!-- Generated by IcoMoon.io -->
<!DOCTYPE svg PUBLIC "-//W3C//DTD SVG 1.1//EN" "http://www.w3.org/Graphics/SVG/1.1/DTD/svg11.dtd">
<svg version="1.1" xmlns="http://www.w3.org/2000/svg" xmlns:xlink="http://www.w3.org/1999/xlink" width="32" height="32" viewBox="0 0 32 32">
	<path d="M26.486 17.132c-1.172 1.033-2.872 0.583-2.872-1.437v-6.014c0-0.826-0.613-1.416-1.439-1.416h-6.059c-2.021 0-2.471-1.702-1.437-2.873 1.702-1.928 0.79-4.909-2.307-5.039-3.096 0.129-4.008 3.105-2.306 5.034 1.034 1.172 0.584 2.878-1.437 2.878h-5.969c-0.826 0-1.501 0.59-1.501 1.416v6.138c0 0.36 0.161 0.966 0.506 1.127 0.343 0.16 0.787-0.007 1.151-0.34 1.122-1.023 2.629-1.308 3.908-0.745 1.286 0.567 2.177 1.898 2.177 3.561v0.049c0 1.658-0.902 2.976-2.194 3.546s-2.807 0.263-3.933-0.763c-0.361-0.329-0.784-0.487-1.114-0.333-0.339 0.158-0.502 0.738-0.502 1.098v6.178c0 0.826 0.675 1.525 1.501 1.525h19.514c0.826 0 1.439-0.699 1.439-1.525v-6.014c0-2.021 1.687-2.47 2.858-1.437 1.928 1.702 4.886 0.79 5.016-2.307-0.129-3.096-3.073-4.008-5.001-2.306z"></path>
</svg>
