<?xml version="1.0" encoding="utf-8"?>
<!-- Generator: Adobe Illustrator 16.0.4, SVG Export Plug-In . SVG Version: 6.00 Build 0)  -->
<!DOCTYPE svg PUBLIC "-//W3C//DTD SVG 1.1//EN" "http://www.w3.org/Graphics/SVG/1.1/DTD/svg11.dtd">
<svg version="1.1" id="Layer_1" xmlns="http://www.w3.org/2000/svg" xmlns:xlink="http://www.w3.org/1999/xlink" x="0px" y="0px"
	 width="100px" height="100px" viewBox="0 0 100 100" enable-background="new 0 0 100 100" xml:space="preserve">
<g>
	<path d="M92.363,78.445C87.518,61.773,78.564,61.2,76.637,60.75c-3.794-0.889-8.389-0.51-10.84-1.275
		c-0.43,3.59-7.338,6.443-15.797,6.443c-8.46,0-15.368-2.854-15.798-6.443c-2.451,0.767-7.045,0.387-10.839,1.275
		c-1.927,0.45-10.881,1.023-15.726,17.695c-0.656,2.265-0.425,4.725,0.644,6.742C12.249,92.693,33.125,95.004,50,95
		c16.874,0.004,37.75-2.307,41.719-9.812C92.789,83.169,93.02,80.709,92.363,78.445z"/>
	<path d="M30.058,41.73c1.786,4.803,4.612,9.468,8.107,12.881c1.978,1.934,4.169,3.464,6.507,4.391
		c1.607,0.637,3.283,0.99,5.006,0.99c1.722,0,3.399-0.354,5.005-0.99c2.42-0.959,4.685-2.562,6.715-4.593
		c3.41-3.404,6.166-7.997,7.916-12.719c1.346-0.396,2.758-2.918,3.332-6.139c0.625-3.496,0.035-6.545-1.313-7.053
		c0.049-0.853,0.08-1.716,0.078-2.601C71.379,13.226,63.951,5.86,52.236,5.075C42.025,4.39,34.331,8.447,30.826,15.192
		c-1.179,2.269-1.852,5.108-2.11,8.192c-0.393,1.606-0.624,3.274-0.624,5h0.038c-0.001,0.014-0.003,0.027-0.004,0.04
		c-0.025,0.003-0.05,0.004-0.075,0.009c-1.494,0.26-2.174,3.447-1.519,7.118C27.134,38.925,28.655,41.533,30.058,41.73z
		 M69.062,36.034c-0.318,1.784-1.016,3.252-1.756,3.88c-0.297,0.25-0.601,0.368-0.89,0.317c-0.163-0.028-0.312-0.108-0.444-0.232
		c-1.619,5.038-4.705,10.058-8.601,13.106c-2.323,1.817-4.935,2.937-7.694,2.937c-2.7,0-5.258-1.069-7.543-2.819
		c-3.966-3.036-7.11-8.12-8.751-13.223c-0.134,0.124-0.281,0.204-0.444,0.232c-0.337,0.059-0.691-0.11-1.031-0.45
		c-0.688-0.687-1.316-2.079-1.614-3.748c-0.02-0.11-0.03-0.216-0.046-0.325c0.018-1.168,0.068-2.301,0.147-3.42
		c0.145-0.43,0.34-0.766,0.59-0.945c0.105-0.076,0.219-0.126,0.341-0.147c0.278-0.049,0.568,0.058,0.853,0.287l0,0
		c0.001,0,0.001,0,0.002,0c0.001-0.022,0.003-0.045,0.005-0.068c0.098-0.952,1.368-9.27,9.374-8.527c0,0,7.02,2.581,13.407,0.3
		c0.687-0.015,1.355-0.02,1.976,0.003c2.646,0.098,4.457,1.47,6.353,2.353c-0.071-0.871-0.741-1.765-0.705-2.353
		c0.302,0.087,0.577,0.215,0.843,0.359c1.366,1.454,2.688,3.896,3.739,7.884c0.002,0.017,0.003,0.034,0.004,0.051
		c0.003-0.002,0.005-0.004,0.009-0.007c0,0.002,0.002,0.003,0.002,0.005l0.015-0.018c0.276-0.217,0.56-0.317,0.83-0.27
		c0.069,0.012,0.136,0.034,0.198,0.063C69.104,31.669,69.479,33.708,69.062,36.034z"/>
</g>
</svg>
