<?xml version="1.0" encoding="utf-8"?>
<!-- Generated by IcoMoon.io -->
<!DOCTYPE svg PUBLIC "-//W3C//DTD SVG 1.1//EN" "http://www.w3.org/Graphics/SVG/1.1/DTD/svg11.dtd">
<svg version="1.1" xmlns="http://www.w3.org/2000/svg" xmlns:xlink="http://www.w3.org/1999/xlink" width="32" height="32" viewBox="0 0 32 32">
	<path d="M27.667 16.468c-0.088-0.023-0.18-0.035-0.273-0.035-0.219 0-0.44 0.066-0.655 0.187-0.070-0.668-0.116-1.33-0.116-1.975 0-3.091-0.218-6.596-1.836-9.16-1.65-2.614-4.524-3.885-8.788-3.885s-7.138 1.271-8.788 3.885c-1.618 2.564-1.836 6.069-1.836 9.16 0 0.645-0.046 1.308-0.116 1.975-0.215-0.121-0.436-0.187-0.655-0.187-0.093 0-0.184 0.012-0.273 0.035-0.967 0.251-1.374 1.792-0.927 3.513 0.237 0.913 0.667 1.676 1.165 2.145-0.033 0.497-0.045 0.985-0.026 1.464 0.066 1.667 0.519 2.964 1.385 3.964 0.813 0.94 1.978 1.627 3.56 2.097 1.695 0.503 3.824 0.748 6.51 0.748s4.815-0.245 6.51-0.749c1.583-0.47 2.748-1.156 3.56-2.097 0.866-1.001 1.318-2.298 1.385-3.964 0.019-0.478 0.007-0.966-0.026-1.463 0.499-0.469 0.928-1.233 1.165-2.146 0.448-1.721 0.040-3.262-0.927-3.513zM22.529 15.224c2.272-0.183 2.523-2.61 2.662-2.749 0.078-0.078 0.363 0.564 0.363 2.727 0 0.321-0.016 0.723-0.046 1.037h-19.015c-0.030-0.314-0.046-0.695-0.046-1.016h16.083zM19.5 17.167c0.052 0.535 0.505 0.954 1.053 0.954 0.55 0 1.003-0.422 1.053-0.959l1.897 0.002-0.187 2.127h-4.395l-0.965-2.114 1.544-0.010zM10.394 17.163c0.050 0.537 0.503 0.959 1.053 0.959 0.548 0 1.001-0.419 1.053-0.954l1.544 0.009-0.965 2.114h-4.395l-0.188-2.127 1.897-0.001zM3.923 19.846c-0.184-0.71-0.215-1.408-0.085-1.969 0.114-0.494 0.343-0.818 0.629-0.893 0.044-0.012 0.091-0.017 0.139-0.017 0.179 0 0.382 0.085 0.587 0.247-0.073 0.589-0.158 1.18-0.243 1.762-0.121 0.83-0.239 1.636-0.317 2.419-0.284-0.38-0.542-0.905-0.709-1.548zM18.951 24.726c0 0.64-0.519 1.158-1.158 1.158h-0.468c-0.018-0.002-0.036-0.004-0.056-0.004-0.8 0-1.269-0.806-1.269-0.806s-0.469 0.806-1.269 0.806c-0.020 0-0.038 0.001-0.056 0.004h-0.492c-0.64 0-1.158-0.519-1.158-1.158v-0.044c0-0.64 0.519-1.158 1.158-1.158h3.609c0.64 0 1.158 0.519 1.158 1.158v0.044zM19.259 22.050c-0.17 0.018-6.348 0.018-6.518 0-0.147-0.015-1.713 2.732-3.904-0.028-1.027-1.42-1.837-3.044-2.194-4.87h1.101l0.203 2.717h5.639l1.321-2.717h2.184l1.321 2.717h5.639l0.203-2.717h1.101c-0.356 1.827-1.167 3.45-2.194 4.87-2.191 2.76-3.756 0.012-3.904 0.028zM28.077 19.85c-0.167 0.644-0.425 1.168-0.709 1.55-0.079-0.785-0.196-1.592-0.318-2.424-0.085-0.582-0.171-1.172-0.243-1.762 0.205-0.161 0.408-0.247 0.587-0.247 0.047 0 0.094 0.006 0.139 0.018 0.286 0.074 0.516 0.4 0.629 0.894 0.13 0.561 0.1 1.261-0.085 1.971z"></path>
	<path d="M17.878 24.191h-3.757c-0.123 0-0.223 0.1-0.223 0.223s0.1 0.223 0.223 0.223h3.757c0.123 0 0.223-0.1 0.223-0.223s-0.1-0.223-0.223-0.223z"></path>
</svg>
