<svg id="Layer_1" data-name="Layer 1" xmlns="http://www.w3.org/2000/svg" width="32.57911" height="31.77461" viewBox="0 0 32.57911 31.77461">
  <title>Git Hub</title>
  <path d="M16.2885,0a16.2911,16.2911,0,0,0-5.1479,31.7466c.81451.1494,1.1118-.3535,1.1118-.7852,0-.3867-.0141-1.4111-.022-2.7705-4.5312.9844-5.48729-2.1836-5.48729-2.1836A4.31364,4.31364,0,0,0,4.9345,23.6245c-1.479-1.0107.1119-.9902.1119-.9902A3.42172,3.42172,0,0,1,7.5415,24.313a3.46829,3.46829,0,0,0,4.7407,1.3535,3.48053,3.48053,0,0,1,1.0342-2.1777c-3.6172-.4111-7.4199-1.8086-7.4199-8.0508a6.29652,6.29652,0,0,1,1.6767-4.3711,5.859,5.859,0,0,1,.1597-4.311s1.3677-.438,4.4795,1.6699a15.44,15.44,0,0,1,8.1562,0c3.1099-2.1079,4.4751-1.6699,4.4751-1.6699a5.8508,5.8508,0,0,1,.1621,4.311,6.28582,6.28582,0,0,1,1.6744,4.3711c0,6.2578-3.8086,7.6348-7.4375,8.0381a3.88777,3.88777,0,0,1,1.1059,3.0166c0,2.1777-.02,3.9346-.02,4.4687,0,.4356.2934.9424,1.1201.7833A16.292,16.292,0,0,0,16.2885,0Z" fill-rule="evenodd"/>
</svg>
