<svg xmlns="http://www.w3.org/2000/svg" xmlns:xlink="http://www.w3.org/1999/xlink" width="44" height="2546" viewBox="0 0 44 2546"><svg width="32" height="32" viewBox="0 0 32 32"><path stroke="#449FDB" d="M0 0"/><path d="M14.222 0h3.556v14.222H32v3.556H17.778V32h-3.556V17.778H0v-3.556h14.222V0z"/></svg><svg width="32" height="32" viewBox="0 0 32 32" y="32"><path stroke="#449FDB" d="M0 0"/><path d="M32 32H0V0h32v32zm-5.333-18.667h-8v-8h-5.333v8h-8v5.333h8v8h5.333v-8h8v-5.333z"/></svg><svg width="29.925" height="25.719" viewBox="0 0 29.925 25.719" y="64"><path fill="#FA930D" d="M17.064 0h-1.246v25.72h1.246c7.104 0 12.86-5.757 12.86-12.858C29.925 5.672 24.25.068 17.05.004L17.064 0zm.947 15.78s-.21-3.658.15-4.297c.534-.95 2.84-.48 2.8.963.04 2.02-2.908 3.422-2.908 3.334h-.04z"/><path fill="#556780" d="M13.426 11.48c-.54-.95-2.836-.478-2.836.964 0 2 3 3.396 3 3.334-.02.088.264-3.71-.137-4.297h-.027zM12.1 19.46c-3.303-.376-5.885-3.196-5.885-6.605 0-3.438 2.615-6.27 5.957-6.613l.147-.033c1.482-.237 2.616-1.52 2.616-3.063 0-1.71-1.388-3.103-3.103-3.103h-.32C5.048.724 0 6.204 0 12.844c0 6.603 5 12.2 11.6 12.794h.2c1.71 0 3.104-1.39 3.104-3.104.037-1.69-1.252-2.893-2.853-3.094l.05.02z"/></svg><svg width="32" height="32" viewBox="0 0 32 32" y="90"><path stroke="#449FDB" d="M0 0"/><path d="M22.92 4.007H10.06c-.22 0-.398.178-.398.398v21.63c0 .22.178.398.398.398h2.174l8.053 3.115.138.026c.076 0 .152-.023.216-.067.103-.072.166-.19.166-.316v-2.757h2.115c.22 0 .4-.178.4-.527V4.276c0-.09-.18-.27-.4-.27zm-4.303 16.01c-.593 0-1.073-.48-1.073-1.073s.48-1.073 1.073-1.073 1.073.482 1.073 1.074c0 .593-.48 1.073-1.073 1.073zm3.906 5.62h-1.716V7.803c0-.166-.107-.312-.264-.364l-8.04-2.637h10.02v20.834z"/></svg><svg width="33" height="32" viewBox="0 0 33 32" y="122"><path stroke="#449FDB" d="M0 0"/><path d="M22.21 2.02H10.5L2.22 10.3v11.71l8.28 8.28h11.71l8.28-8.28V10.3l-8.28-8.28zm6.082 19.078L21.3 28.09h-9.89L4.42 21.1V11.21l6.993-6.993h9.89l6.992 6.993v9.888zM14.142 6.676h4.69v11.727h-4.69V6.676zm0 14.145h4.69v4.692h-4.69v-4.69z"/></svg><svg width="27" height="32" viewBox="0 0 27 32" y="154"><path stroke="#449FDB" d="M0 0"/><path d="M23.43 15.946q0-2.875-1.555-5.268L8.41 24.124q2.447 1.59 5.305 1.59 1.982 0 3.777-.778t3.098-2.08 2.07-3.116.77-3.795zm-17.84 5.34L19.07 7.822q-2.41-1.625-5.356-1.625-2.643 0-4.875 1.304t-3.537 3.555T4 15.948q0 2.893 1.588 5.34zm21.84-5.34q0 2.804-1.09 5.357t-2.92 4.393-4.375 2.93-5.33 1.088-5.33-1.09-4.375-2.928-2.92-4.393T0 15.946t1.09-5.348 2.92-4.384 4.375-2.93 5.33-1.088 5.33 1.09 4.375 2.928 2.92 4.384 1.09 5.348z"/></svg><svg width="33" height="32" viewBox="0 0 33 32" y="186"><path stroke="#449FDB" d="M0 0"/><path d="M24.75 21.91c.346-1.158.587-2.4.715-3.7.492.162 1.05.262 1.652.262 1.9 0 3.442-.918 3.442-2.05 0-1.133-1.542-2.05-3.443-2.05-.578 0-1.115.093-1.594.242-.076-1.07-.236-2.097-.46-3.08 1.672.205 4.146-.408 5-2.655.364-.954 1.026-4.106-.27-4.428-2.072-.515-3.06 1.57-4.22 3.365-.402.623-.794 1.136-1.124 1.576-1.575-4.37-4.63-7.336-8.147-7.336s-6.575 2.967-8.148 7.34c-.33-.44-.724-.954-1.128-1.58-1.16-1.794-2.148-3.88-4.22-3.365-1.295.322-.633 3.474-.27 4.427.856 2.247 3.334 2.86 5.006 2.654-.224.984-.385 2.012-.46 3.082-.48-.15-1.018-.245-1.598-.245-1.9 0-3.442.92-3.442 2.052s1.54 2.05 3.442 2.05c.604 0 1.163-.1 1.657-.263.128 1.3.37 2.542.715 3.7-1.87-.11-4.29.577-5.177 2.906-.363.953-.938 3.895.384 4.08 2.988.413 2.378-1.344 3.538-3.137.576-.894 1.29-1.664 1.81-2.275 1.632 4.017 4.55 6.704 7.893 6.704 3.34 0 6.26-2.686 7.89-6.7.52.61 1.23 1.38 1.807 2.27 1.16 1.794.55 3.552 3.538 3.136 1.322-.184.747-3.126.384-4.08-.886-2.326-3.304-3.013-5.173-2.904zm-8.448 3.646c-1.354 0-2.453-2.377-2.453-5.31s1.097-5.308 2.452-5.308c1.354 0 2.453 2.377 2.453 5.31s-1.1 5.308-2.453 5.308zm-.12-14.128h-5.395c0-3.485 2.47-5.893 5.516-5.893s5.516 2.408 5.516 5.893h-5.64z"/></svg><svg width="18" height="32" viewBox="0 0 18 32" y="218"><path stroke="#449FDB" d="M0 0"/><path d="M18.286 12.57q0 .465-.34.805l-8 8q-.338.34-.803.34t-.804-.34l-8-8Q0 13.035 0 12.57t.34-.803.803-.34h16q.464 0 .804.34t.34.804z"/></svg><svg width="11" height="32" viewBox="0 0 11 32" y="250"><path stroke="#449FDB" d="M0 0"/><path d="M11.43 8v16q0 .464-.34.804t-.804.34-.804-.34l-8-8q-.34-.34-.34-.804t.34-.804l8-8q.34-.34.804-.34t.804.34.34.804z"/></svg><svg width="11" height="32" viewBox="0 0 11 32" y="282"><path stroke="#449FDB" d="M0 0"/><path d="M10.286 16q0 .464-.34.804l-8 8q-.338.34-.803.34t-.804-.34T0 24V8q0-.464.34-.804t.803-.34.804.34l8 8q.34.34.34.804z"/></svg><svg width="18" height="32" viewBox="0 0 18 32" y="314"><path stroke="#449FDB" d="M0 0"/><path d="M18.286 21.714q0 .464-.34.804t-.803.34h-16q-.464 0-.804-.34T0 21.714t.34-.804l8-8q.338-.34.803-.34t.804.34l8 8q.34.34.34.804z"/></svg><svg width="37" height="32" viewBox="0 0 37 32" y="346"><path stroke="#449FDB" d="M0 0"/><path d="M27.482 4.58c-6.43 5.198-5.196 4.177-13.51 11.822-2.895-2.094-3.945-2.92-8.112-5.017-.517.492-1.176 1.192-1.176 1.192s4.75 7.413 9.41 13.112c5.678-7.46 6.205-8.285 14.885-19.67-.446-.446-.982-.898-1.498-1.44z"/></svg><svg width="21" height="32" viewBox="0 0 21 32" y="378"><path stroke="#449FDB" d="M0 0"/><path d="M13.25 28.09L1.607 16.463q-.66-.66-.66-1.616t.66-1.616L13.25 1.607q.66-.66 1.616-.66t1.616.66l1.34 1.34q.66.66.66 1.615t-.66 1.616l-8.68 8.68 8.68 8.66q.66.68.66 1.625t-.66 1.607l-1.34 1.34q-.66.66-1.616.66t-1.616-.66z"/></svg><svg width="21" height="32" viewBox="0 0 21 32" y="410"><path stroke="#449FDB" d="M0 0"/><path d="M19.625 14.857q0 .93-.66 1.625L7.32 28.107q-.66.66-1.606.66t-1.607-.66l-1.357-1.34q-.66-.695-.66-1.624 0-.946.66-1.607l8.68-8.68-8.68-8.66Q2.09 5.5 2.09 4.57q0-.945.66-1.606l1.357-1.34Q4.75.947 5.714.947t1.607.68L18.965 13.25q.66.66.66 1.607z"/></svg><svg width="32" height="32" viewBox="0 0 32 32" y="442"><path stroke="#449FDB" d="M0 0"/><path d="M25.96 23.424l-2.595 2.592-7.203-7.203-7.206 7.206-2.593-2.595 7.205-7.206-7.204-7.205 2.592-2.592 7.205 7.204 7.205-7.204 2.595 2.593-7.205 7.204z"/></svg><svg width="27" height="32" viewBox="0 0 27 32" y="474"><path stroke="#449FDB" d="M0 0"/><path d="M18.286 16q0-1.893-1.34-3.232t-3.23-1.34-3.233 1.34T9.143 16t1.34 3.232 3.232 1.34 3.232-1.34T18.287 16zm9.143-1.946v3.964q0 .214-.144.41t-.357.233l-3.305.5q-.34.965-.696 1.626.624.893 1.91 2.464.18.214.18.446t-.162.41q-.482.662-1.768 1.93t-1.68 1.268q-.213 0-.463-.16l-2.464-1.93q-.786.41-1.625.68-.286 2.428-.518 3.32-.125.5-.643.5h-3.964q-.25 0-.438-.152t-.205-.384l-.5-3.286q-.875-.286-1.607-.66l-2.518 1.91q-.18.16-.446.16-.25 0-.447-.195-2.25-2.036-2.946-3-.125-.18-.125-.41 0-.215.143-.412.268-.375.91-1.188t.965-1.26q-.482-.892-.732-1.767L.52 18.588q-.232-.036-.375-.223t-.143-.42V13.98q0-.213.143-.41t.34-.232l3.32-.5q.25-.82.696-1.643-.713-1.018-1.91-2.464-.18-.213-.18-.428 0-.18.162-.41.464-.644 1.76-1.92t1.687-1.278q.23 0 .463.18l2.464 1.91q.786-.41 1.625-.68.286-2.428.518-3.32.125-.5.643-.5h3.964q.25 0 .438.152t.205.384l.5 3.286q.875.286 1.607.66l2.536-1.91q.16-.16.43-.16.23 0 .445.178Q24.162 7 24.804 7.91q.125.143.125.393 0 .214-.144.41-.268.376-.91 1.19t-.965 1.258q.465.894.733 1.75l3.268.5q.233.037.376.224t.143.42z"/></svg><svg width="38" height="32" viewBox="0 0 38 32" y="506"><path stroke="#449FDB" d="M0 0"/><path d="M1.758-.15v32.056h32.056V-.15H1.758zm29.59 29.59H4.224V2.316h27.124V29.44zm-4.93-14.795H9.155v2.466h17.26v-2.465z"/></svg><svg width="32" height="32" viewBox="0 0 32 32" y="538"><path stroke="#449FDB" d="M0 0"/><path d="M27.11 4.72H4.31c-1.65 0-2.71 1.442-2.71 3.092v12c0 1.65 1.06 2.908 2.71 2.908h15.31c1.022 1.5 2.128 3.576 2.128 3.576.804 1.44 1.744 1.277 2.09-.336l.69-3.24h2.582c1.65 0 3.29-1.257 3.29-2.907v-12c0-1.65-1.64-3.092-3.29-3.092z"/></svg><svg width="32" height="32" viewBox="0 0 32 32" y="570"><path stroke="#449FDB" d="M0 0"/><path d="M15.875 18.055c-5.107 0-9.274-1.007-9.513-2.27-1.973.288-3.928.667-5.858 1.135 3.3 5.05 9.023 7.856 15.54 7.856 6.47 0 12.158-2.765 15.468-7.747-2.02-.506-4.065-.91-6.13-1.22-.292 1.252-4.435 2.244-9.507 2.244zM32 16.27l-4.94-6.11c-1.282-1.78-3.368-2.936-5.725-2.936-2.106 0-3.998.925-5.29 2.392-1.292-1.467-3.184-2.392-5.29-2.392-2.357 0-4.443 1.157-5.724 2.935L.09 16.27l.05.08c5.087-1.255 10.35-1.894 15.645-1.894 5.45 0 10.862.674 16.092 2.003l.12-.19h.005z"/></svg><svg width="30" height="32" viewBox="0 0 30 32" y="602"><path stroke="#449FDB" d="M0 0"/><path d="M9.946 22.857H20.57V12.232zm-.803-.803L19.768 11.43H9.143v10.624zm20.57 1.375v3.428q0 .25-.16.41t-.41.162h-4v4q0 .25-.162.41t-.41.162h-3.43q-.25 0-.41-.16t-.16-.412v-4H5.14q-.25 0-.41-.16t-.162-.412v-15.43h-4q-.25 0-.41-.16t-.162-.41v-3.43q0-.25.16-.41t.412-.162h4v-4q0-.25.16-.41t.412-.162h3.43q.25 0 .41.16t.16.412v4h15.197l4.393-4.41q.18-.162.41-.162t.412.16q.16.18.16.412t-.16.41l-4.41 4.394v15.196h4q.25 0 .41.16t.16.412z"/></svg><svg width="27.289" height="26.434" viewBox="0 0 27.289 26.434" y="634"><path fill="#9A3965" d="M22.376 18.09c.688-1.486 1.076-3.13 1.076-4.875 0-1.743-.39-3.396-1.076-4.886-2.506.215-4.496 2.31-4.496 4.874 0 2.577 1.995 4.67 4.496 4.886M7.883 13.21c0-4.67 2.166-8.85 5.554-11.59-.563-.102-1.13-.142-1.714-.142C5.246 1.48 0 6.72 0 13.2s5.246 11.724 11.723 11.724c.585 0 1.16-.052 1.714-.134-3.388-2.74-5.554-6.92-5.554-11.602"/><path fill="#FA930D" d="M22.955.01h-.014L22.81 0C15.52 0 9.585 5.935 9.585 13.224c0 7.286 5.934 13.21 13.223 13.21l1.057-.012.122.012c1.827 0 3.295-1.48 3.295-3.297 0-1.812-1.468-3.295-3.296-3.295l-.11.012c-.063-.012-1.066-.012-1.066-.012-3.653 0-6.63-2.967-6.63-6.618 0-3.666 2.977-6.63 6.63-6.63l.146.01c.082-.022 1.035-.01 1.035-.01 1.827 0 3.295-1.48 3.295-3.296 0-1.817-1.468-3.296-3.295-3.296l-1.04.008"/></svg><svg width="31.839" height="30" viewBox="0 0 31.839 30" y="661"><path fill="#FA930D" d="M22.04 0c-2.22 0-4.385.764-6.122 2.157C14.182.764 12.018 0 9.798 0 4.396 0 0 4.396 0 9.798v16.514C0 28.346 1.654 30 3.687 30s3.687-1.653 3.687-3.688l.002-10.27c-2.5-.978-4.273-3.406-4.273-6.254 0-3.714 3.01-6.722 6.72-6.722s6.722 3.008 6.722 6.722c0 2.868-1.798 5.308-4.326 6.274v10.262l.01.205.02.21h.006C12.47 28.585 14.04 30 15.92 30c1.878 0 3.45-1.415 3.662-3.26h.035V10.227h.004V9.8c0-1.336 1.087-2.422 2.42-2.422 1.334 0 2.42 1.086 2.42 2.424l.003 16.51c0 2.034 1.654 3.69 3.688 3.69 2.036 0 3.69-1.655 3.69-3.69V9.8C31.837 4.395 27.44 0 22.04 0z"/><circle fill="#9A3965" cx="9.824" cy="9.787" r="4.289"/></svg><svg width="31.417" height="29.494" viewBox="0 0 31.417 29.494" y="691"><path fill="#9A3965" d="M18.69 14.38c0 1.688-1.362 3.042-3.046 3.042-1.682 0-3.04-1.365-3.04-3.04s1.358-3.048 3.04-3.048c1.686-.053 3.018 1.346 3.018 2.947M20.835 3.96h-.172v6.34h.172c2.262 0 4.2 1.8 4.2 4.104 0 2.264-1.842 4.073-4.104 4h-8.75v7.633h.013c.054 2 1.6 3.396 3.6 3.46 1.96 0 3.55-1.59 3.55-3.552l-.01-.19v-.987h1.647c5.768 0 10.436-4.672 10.436-10.438C31.27 8.68 26.662 3.88 20.86 3.88"/><path fill="#FA930D" d="M10.443 24.782h.172v-6.347h-.172c-2.266 0-4.094-1.836-4.094-4.104 0-2.26 1.827-4.07 4.093-4.07h8.742v-6.8h-.012C19.126 1.542 17.563 0 15.63 0c-1.957 0-3.55 1.6-3.55 3.555v.355h-1.642C4.676 3.91 0 8.57 0 14.33c.004 5.725 4.658 10.52 10.458 10.52"/></svg><svg width="28.857" height="29.094" viewBox="0 0 28.857 29.094" y="721"><path fill="#F3972A" d="M8.536 16.81c0 2.09 1.706 3.798 3.797 3.798 2.09 0 3.797-1.707 3.797-3.797 0-2.102-1.707-3.797-3.797-3.797-2.09.002-3.797 1.697-3.797 3.798"/><path fill="#9A3965" d="M27.917 5.42c-.627-.64-1.463-.965-2.356-.95h-.93V3.213c0-.856-.337-1.66-.938-2.274C23.09.334 22.276 0 21.42 0c-.87 0-1.673.337-2.29.938-.603.617-.937 1.418-.937 2.274l-.013 13.56c0 3.218-2.625 5.84-5.854 5.856-.406 0-.803-.047-1.187-.115-2.707-.56-4.67-2.973-4.67-5.748.013-3.216 2.647-5.84 5.863-5.855h3.9V4.456H12.32c-3.298 0-6.387 1.29-8.71 3.61C1.277 10.385 0 13.485 0 16.773c0 1.162.163 2.312.487 3.438l.162.52c.013.013.196.546.196.546l.196.434-.012.01.025.046.22.44h-.01l.01.032.244.453.02.047.27.453.255.407.047.078.255.352.094.115-.034-.035.325.396-.06-.047.06.065.325.396.384.407.79.754.382.313.257.195.16.115.28.195.14.104.22.14.224.144.29.176.15.08.383.195-.06-.02.15.08.324.15.142.067.35.14.15.07.35.128.162.06.35.114.14.047.36.096.08.02.082.013v.014l.396.094h.046v.013c.85.178 1.72.27 2.564.27 6.794 0 12.312-5.54 12.312-12.332v-5.854h.916c.896.035 1.73-.3 2.37-.938 1.25-1.252 1.25-3.296-.003-4.55"/><path fill="#FA930D" d="M8.536 16.81c0 2.09 1.706 3.798 3.797 3.798 2.09 0 3.797-1.707 3.797-3.797 0-2.102-1.707-3.797-3.797-3.797-2.09.002-3.797 1.697-3.797 3.798"/></svg><svg width="30" height="32" viewBox="0 0 30 32" y="751"><path stroke="#449FDB" d="M0 0"/><path d="M22.857 24q0-.464-.34-.804t-.803-.34-.804.34-.34.804.34.804.804.34.804-.34.34-.804zm4.572 0q0-.464-.34-.804t-.804-.34-.804.34-.34.804.34.804.804.34.804-.34.34-.804zm2.284-4v5.714q0 .714-.5 1.214t-1.214.5H1.714q-.714 0-1.214-.5T0 25.714V20q0-.714.5-1.214t1.214-.5h8.304l2.41 2.43q1.037 1 2.43 1t2.43-1l2.428-2.43h8.286q.714 0 1.214.5t.5 1.214zM23.91 9.84q.305.73-.25 1.25l-8 8q-.32.338-.803.338t-.804-.34l-8-8q-.554-.517-.25-1.25.304-.695 1.054-.695h4.57v-8q0-.464.34-.804T12.57 0h4.572q.464 0 .804.34t.34.803v8h4.57q.75 0 1.054.696z"/></svg><svg width="37" height="32" viewBox="0 0 37 32" y="783"><path stroke="#449FDB" d="M0 0"/><path d="M15.31 1.882v5.773h5.773V1.882H15.31zm0 17.318h5.773v-5.773H15.31V19.2zm0 11.545h5.773v-5.773H15.31v5.773z"/></svg><svg width="32" height="32" viewBox="0 0 32 32" y="815"><path stroke="#449FDB" d="M0 0"/><path d="M32 12.68v14.178q0 1.18-.84 2.018t-2.017.84H2.857q-1.18 0-2.018-.84T0 26.858v-14.18q.786.876 1.804 1.555 6.464 4.393 8.875 6.16 1.017.75 1.65 1.17t1.69.858 1.963.44h.036q.91 0 1.963-.44t1.688-.856 1.653-1.17q3.036-2.196 8.893-6.16 1.018-.697 1.786-1.555zm0-5.25q0 1.41-.875 2.695t-2.18 2.196q-6.713 4.662-8.356 5.805-.18.125-.76.545t-.964.68-.93.58-1.026.48-.893.162h-.036q-.41 0-.892-.16t-1.027-.483-.928-.58-.964-.68-.76-.545q-1.624-1.143-4.678-3.26t-3.66-2.544Q1.96 11.57.98 10.26T-.002 7.82q0-1.393.74-2.32t2.117-.93H29.14q1.162 0 2.01.84t.848 2.017z"/></svg><svg width="32" height="32" viewBox="0 0 32 32" y="847"><path stroke="#449FDB" d="M0 0"/><path d="M16 2.19C8.373 2.19 2.19 8.373 2.19 16S8.373 29.81 16 29.81c7.627 0 13.81-6.183 13.81-13.81S23.627 2.19 16 2.19zm0 23.31c-1.174 0-2.125-.95-2.125-2.125s.95-2.125 2.125-2.125 2.125.95 2.125 2.125S17.175 25.5 16 25.5zm2.125-8.007c0 1.174-.95 2.125-2.125 2.125s-2.125-.952-2.125-2.125V8.625c0-1.174.95-2.125 2.125-2.125s2.125.95 2.125 2.125v8.868z"/></svg><svg width="38" height="32" viewBox="0 0 38 32" y="879"><path stroke="#449FDB" d="M0 0"/><path d="M1.758-.223v32.056h32.056V-.223H1.758zm29.59 29.59H4.224V2.243h27.124v27.124zm-14.795-4.932h2.466v-7.397h7.396v-2.466H19.02V7.175h-2.467v7.397H9.156v2.466h7.397v7.397z"/></svg><svg width="25" height="32" viewBox="0 0 25 32" y="911"><path stroke="#449FDB" d="M0 0"/><path d="M12.738 32v-.012V32zm0-32L0 3.282v8.732c0 11.648 8.492 18.95 12.738 19.96 4.246-1.01 12.738-8.312 12.738-19.96V3.282L12.74 0zm3.824 15.536l1.885 6.238-.464.317-5.334-3.713-5.414 3.77-.413-.286 1.915-6.324-5.36-4.063.093-.398 6.762-.065 2.15-6.12h.533l2.152 6.12 6.734.1.166.346-5.405 4.08z"/></svg><svg width="23" height="32" viewBox="0 0 23 32" y="943"><path stroke="#449FDB" d="M0 0"/><path d="M23.467 6.4l-6.4-6.398H0V32h23.465V6.4h.002zM19.2 27.733H4.267V4.266h10.667l.002 4.267H19.2v19.2zM17.067 6.4V3.2L20.4 6.4h-3.333z"/></svg><svg width="37" height="32" viewBox="0 0 37 32" y="975"><path stroke="#449FDB" d="M0 0"/><path d="M21.333 5.333L15.998 0h-16v32h37.334V5.333h-16zM32 26.667H5.333v-16H32v16z"/></svg><svg width="38" height="32" viewBox="0 0 38 32" y="1007"><path stroke="#449FDB" d="M0 0"/><path d="M26.4 12.135L36.91 6.07 26.4 0v3.758c-4.076.52-6.825 3.673-9.474 6.888.758.978 1.503 1.974 2.232 2.96l.797 1.072c1.116-1.45 2.204-2.78 3.257-3.812 1.23-1.23 2.328-1.938 3.187-2.21v3.48zm-5.74 5.75c-2.635-3.3-5.307-7.45-8.36-10.486-2.034-1.988-4.39-3.706-7.43-3.746H0v4.87h4.87c1.35-.166 3.957 1.855 6.555 5.247 2.637 3.3 5.306 7.45 8.363 10.487 1.845 1.805 3.96 3.375 6.61 3.68v3.68l10.513-6.07L26.4 19.482v3.528c-1.447-.474-3.59-2.317-5.74-5.12z"/></svg><svg width="32" height="32" viewBox="0 0 32 32" y="1039"><path stroke="#449FDB" d="M0 0"/><path d="M16 0C7.164 0 0 7.164 0 16s7.164 16 16 16 16-7.164 16-16S24.836 0 16 0zM5.68 12l.01-.192c2.77-.942 4.46-2.387 5.44-3.533 1.49.58 2.55 2.028 2.55 3.725 0 2.21-1.79 4-4 4s-4-1.79-4-4zm15.774 13.416c-.196.196-.452.293-.708.293s-.513-.1-.708-.294c-2.5-2.5-5.594-2.515-8.076-.034-.39.392-1.025.392-1.416 0s-.39-1.024 0-1.416c3.263-3.262 7.627-3.247 10.907.034.39.39.39 1.025 0 1.416zM22.32 16c-2.208 0-4-1.79-4-4 0-1.698 1.06-3.144 2.55-3.725.98 1.147 2.67 2.59 5.44 3.533l.01.192c0 2.21-1.79 4-4 4z"/></svg><svg width="27" height="32" viewBox="0 0 27 32" y="1071"><path stroke="#449FDB" d="M0 0"/><path d="M21.304 9.696q.196-.125.446-.393v.018q0 .037-.17.18t-.205.214l-.07-.018zm-.108.018l-.045-.054-.026-.054.18.09q-.108.07-.108.017zM13 6.446q-.286-.036-.464-.09l.116.02.188.035.16.037zm.804-.66q.125-.07.24-.045t.135.135q-.09-.054-.376-.09zm-.143.107l-.053-.036-.098-.09-.08-.035.374.054-.143.107zm-1.82-1.5v-.036l.053.098.054.098zm-1.876.714l-.018.036-.018-.036h.036zM16.66 23.75zM13.715 2.286q3.732 0 6.884 1.84t4.99 4.99T27.43 16t-1.84 6.884-4.99 4.99-6.884 1.84-6.884-1.84-4.99-4.99T0 16t1.84-6.884 4.99-4.99 6.884-1.84zm8.43 22.25l.088-.09q-.125-.178-.518-.213.018-.214-.25-.473t-.482-.277q0-.07-.188-.196t-.313-.143q-.16-.036-.48.16-.126.055-.072.09-.054-.054-.214-.196t-.286-.196l-.134-.018-.152-.036-.107-.08-.125-.08-.116-.054-.134-.027-.134.045-.152.107-.08.276-.045.26q-.144-.108-.01-.358t.027-.357q-.125-.124-.375-.008t-.375.277l-.17.097-.205.134-.16.314-.108.24-.045-.115-.046-.117q-.214.036-.286-.054.09.285.143.303l-.07-.036q-.018.107.054.268t.07.196q.02.09-.026.233t-.045.196l.09.195q.07.34-.037.57l-.063.126-.116.197-.036.09-.035-.02h-.036q-.02.108-.162.233t-.18.196q-.267.41-.16.68.054.142.18.178l.053-.036q.02.16-.195.482l.07.054q-.303 0-.178.25 3.607-.643 6.286-3.232h-.054zm-10-3.304q.285-.054.544.286t.402.41q.732.358 1.054.197 0 .16.25.5l.116.205.098.188q.09.125.34.286t.338.286q.107-.054.16-.16.233.624.43.606.09 0 .143-.143l-.01.054-.027.054q.125-.267.09-.463l.106-.07.088-.09q-.107-.107-.16.054-.537.25-.858-.392l-.08-.143-.09-.214-.026-.204.107-.08q.197 0 .224-.027t-.045-.108-.072-.134l-.027-.223-.026-.223-.09-.107-.204-.24-.134-.17q-.07.178-.295.15t-.33-.17l-.008.117-.027.116-.304-.018.055-.375.07-.393.1-.24.142-.278.08-.25-.08-.188-.33-.045q-.357.02-.518.394l-.055.205-.09.222-.16.125q-.143.054-.482.036t-.464-.09q-.25-.142-.43-.544t-.196-.742q0-.18.054-.49t.054-.483-.107-.473l.18-.188.195-.205.09-.037h.088l.07-.036.055-.107-.07-.054-.072-.054q.072.054.34.018t.34-.036q0-.018.392 0 .304.232.43-.036 0-.018-.046-.188t-.01-.26q.09.52.572.18.054.07.295.107t.33.09l.125.097.107.09.107.008.16-.125q.197.304.233.446.196.768.357.857.143.036.223.036t.09-.188 0-.277-.028-.23l-.036-.662q-.285-.054-.356-.223t.027-.357.296-.348q.018-.018.295-.143t.385-.214q.43-.34.304-.696.16.036.195-.16l-.09-.055-.142-.098-.09-.027q.197-.125.037-.32.09-.055.143-.206t.16-.204q.162.25.394.054.143-.16.036-.32.09-.144.393-.206t.357-.17h.125l.036-.08v-.134l.018-.152.054-.134q.07-.107.286-.188t.25-.098l.34-.214q.07-.07 0-.07.32.035.57-.197.232-.214-.09-.41.037-.126-.07-.19t-.286-.097l.214-.01.214-.026q.268-.196-.125-.304-.358-.09-.84.232-.054.036-.232.214t-.304.196q.268-.32.09-.393.142.017.4-.162t.278-.196l.188-.045.152-.027q1.268-.446 1.643.018l.196-.268.17-.16.278-.144q.375-.125.41-.16l.02-.412q-.215.018-.322-.143t-.125-.392l-.106.143q0-.106-.063-.133t-.133-.01-.17.037-.134 0q-.16-.036-.348-.277t-.26-.295q.162 0 .162-.09-.036-.088-.18-.142.02-.107-.035-.143t-.16 0l-.02-.232q-.106-.018-.195-.196t-.143-.18l-.08.036-.09.098-.088.125-.063.097-.036.036q-.214-.107-.43.18-.16-.02-.303.035.268-.107.036-.232-.196-.09-.375-.036.214-.09.18-.25t-.215-.286l.07.018.072.018q-.018-.09-.17-.17t-.348-.16-.25-.117q-.125-.09-.643-.188t-.642-.027q-.09.054-.107.107t.028.152.063.152q.108.41.09.48-.018.055-.152.144t-.098.214q.018.07.205.18t.223.213q.09.233-.07.447-.072.09-.27.196t-.25.18q-.088.088-.062.204t.01.17l.017-.045.018-.045q0 .232.197.393.143.107-.286.32-.356.197-.356.072.018-.143-.134-.286t-.188-.214-.063-.34-.17-.374q-.108-.07-.34-.07t-.32.088q0-.18-.876-.536-.304-.143-1.036-.07.125-.02 0-.305-.143-.286-.375-.214-.143-.445-.07-.624.035-.09.16-.25t.16-.268q.02-.054.278-.107t.296-.142q.018-.07-.045-.116t-.17-.08q.947.107 1.126-.32.09-.162.054-.25l.036.017.036.017q.214-.054.125-.304.34-.143.464-.143.09.018.197.107t.18.09q.303.053.383-.18t-.17-.41q.125.07.125-.108-.018-.233-.125-.34l-.116-.045h-.116l-.125-.01-.143-.035-.036.018h-.143l-.07.09v.017q-.018.054.07.107l.09.018.054.036-.045.045-.046.046.054.09q-.036.017-.25.133t-.304.187l-.07.045-.072.045-.07-.036-.072-.16-.07-.205-.08-.18-.1-.08q-.213 0-.32.305.054-.18-.232-.313t-.446-.134q.357-.268-.16-.536l-.02-.018q-.535.07-.803.124-.037.107.053.214-.018.125.107.16l.01.02.008.017-.01-.018-.008-.018.188.026.17.027.08.036.134.088.098.107-.045.09-.16.07-.224.098-.115.063q-.054.09 0 .286t-.036.268q-.09-.09-.18-.33t-.143-.313q.143.16-.536.107l-.142-.018-.268.036-.286.018q-.125 0-.518-.107.125-.304.09-.446l.124-.036-.107-.053-.446.16.143.17.16.206q-.392-.107-.48.036h-.162q-.446-.02-.43.124.02.07.162.214l-.018.16q-.482-.392-.536-.41-3.07 1.482-4.93 4.43l.046.195.063.152.196-.08q.162.16.055.375.036-.036.643.375 1 .714.393.946v-.097l.02-.116q-.162.018-.34-.09-.054.108.01.358t.204.25q-.143 0-.188.304t-.045.687-.017.455l.036.018q-.055.232.106.67t.43.366q-.072.32.088.375-.018.072 0 .144t.08.152.107.125l.242.242q.5.196.732.518.07.107.188.438t.277.455q-.037.107.178.384t.196.455l-.045.01-.046.008q.054.143.295.286t.294.25l.045.188.053.214.152.045q.054-.43-.464-1.214l-.32-.555q-.054-.09-.098-.295t-.08-.277q.482.16.464.232-.09.18.464.93l.18.178.195.214.17.26.188.276-.054.036-.055.053.16.09.144.08.133.088.134.135q.286.32.357.59l.01.276.026.296q.036.107.107.196t.205.18.205.124.26.116.204.098q.037.018.322.196t.446.25q.18.07.295.08t.286-.045.276-.07z"/></svg><svg width="44" height="32" viewBox="0 0 44 32" y="1103"><path stroke="#449FDB" d="M0 0"/><path d="M10.686 18.703c2.308 0 4.176-1.89 4.176-4.212 0-2.327-1.87-4.212-4.176-4.212S6.51 12.168 6.51 14.49c0 2.324 1.872 4.213 4.176 4.213zm31.962 8.335c-.295-6.253-9.516-9.606-13.227-9.606-2.85 0-8.69 1.985-11.385 5.732-2.24-1.965-5.636-2.997-7.373-2.997-2.68 0-9.023 2.44-9.235 6.987h18.766l-.015-.117h22.47zM29.46 15.418c3.202 0 5.794-2.59 5.794-5.792s-2.596-5.793-5.793-5.793-5.79 2.596-5.79 5.793 2.59 5.792 5.79 5.792z"/></svg><svg width="32" height="32" viewBox="0 0 32 32" y="1135"><path stroke="#449FDB" d="M0 0"/><path d="M16 32C7.164 32 0 24.836 0 16S7.164 0 16 0s16 7.164 16 16-7.164 16-16 16zm0-29.09C8.77 2.91 2.91 8.77 2.91 16S8.77 29.09 16 29.09 29.09 23.23 29.09 16 23.23 2.91 16 2.91zm1.455 15.793v1.66h-2.91v-2.908S15.2 16 16.002 16c1.607 0 2.91-1.303 2.91-2.91s-1.303-2.908-2.91-2.908-2.908 1.303-2.908 2.91c0 .53.153 1.024.403 1.454H10.39c-.122-.467-.207-.95-.207-1.455 0-3.212 2.605-5.817 5.818-5.817s5.82 2.605 5.82 5.818c0 2.708-1.858 4.964-4.365 5.613zm0 6.024h-2.91v-2.91h2.91v2.91z"/></svg><svg width="26.918" height="27.379" viewBox="0 0 26.918 27.379" y="1167"><path fill="#FA930D" d="M0 13.837c0 2.2 1.8 4 4 3.95 2.2-.054 3.943-1.778 3.943-3.95S6.173 9.9 4 9.9s-4 1.766-4 3.937z"/><path fill="#136BA2" d="M23.516 0c-2.164 0-3.457 1.746-3.457 4.666v18.01c0 3 1.198 4.604 3.398 4.666 2.2.066 3.458-1.746 3.458-4.666V4.726C26.97 1.747 25.676 0 23.516 0zM17.46.378H3.305v.008C1.462.458 0 1.968 0 3.826c0 1.8 1.4 3.396 3.4 3.396v.028h7.244v6.277l-.014.147h.02v.2c0 3.65-2.972 6.62-6.622 6.62l-.176-.01-.022.02-.296-.012c-1.902 0-3.446 1.54-3.446 3.442 0 2 1.6 3.396 3.4 3.44l.312-.01h.01l.198.007c7.45 0 13.514-6.058 13.514-13.505v-2.36C17.46 11.48 17.46.688 17.46.377z"/></svg><svg width="32" height="32" viewBox="0 0 32 32" y="1195"><path stroke="#449FDB" d="M0 0"/><path d="M16 32C7.177 32 0 24.822 0 16S7.177 0 16 0c8.822 0 16 7.178 16 16s-7.178 16-16 16zm0-28.98C8.842 3.02 3.02 8.84 3.02 16S8.84 28.98 16 28.98c7.157 0 12.98-5.822 12.98-12.98S23.158 3.02 16 3.02zm-3.84 20.428c.07-.31.177-.723.317-1.236l1.897-6.93.053-.24.023-.227c0-.41-.13-.667-.39-.768s-.738-.165-1.43-.196v-.813c.58-.04 1.42-.123 2.52-.25s1.884-.233 2.342-.323l1.317-.256-2.396 8.784c-.2.753-.336 1.275-.407 1.567-.18.742-.272 1.225-.272 1.445s.05.364.15.43c.1.065.212.097.333.097.312 0 .7-.266 1.163-.8s.872-1.09 1.225-1.67l.678.436c-1.006 1.476-1.776 2.47-2.31 2.983-.874.845-1.81 1.267-2.805 1.267-.563 0-1.07-.173-1.516-.52-.448-.346-.67-.876-.67-1.59 0-.25.06-.647.18-1.19zm7.257-17.522c.402.402.603.89.603 1.462s-.2 1.062-.603 1.47c-.402.406-.89.61-1.462.61s-1.062-.204-1.47-.61-.61-.897-.61-1.47c0-.572.204-1.06.61-1.462s.897-.603 1.47-.603 1.06.2 1.462.603z"/></svg><svg width="18" height="32" viewBox="0 0 18 32" y="1227"><path stroke="#449FDB" d="M0 0"/><path d="M13.143 10.286q0 .232-.17.402t-.402.17-.4-.17-.17-.402q0-.82-.965-1.268t-1.893-.446q-.232 0-.402-.17T8.57 8t.17-.402.402-.17q.893 0 1.777.286t1.553.964.67 1.607zm2.857 0Q16 9 15.384 7.893T13.777 6.08 11.58 4.973 9.144 4.57t-2.438.403T4.51 6.08 2.9 7.893t-.616 2.393q0 1.804 1.214 3.214l.545.59.545.588q2.286 2.732 2.518 5.32h4.07q.233-2.588 2.52-5.32l.544-.59.545-.588Q16 12.09 16 10.286zm2.286 0q0 2.768-1.84 4.786-.803.875-1.33 1.554t-1.062 1.705-.607 1.92q.84.5.84 1.465 0 .66-.447 1.143.446.482.446 1.143 0 .93-.804 1.447.232.41.232.84 0 .82-.563 1.267T11.768 28q-.357.786-1.07 1.25t-1.555.464-1.554-.464T6.518 28q-.822 0-1.385-.446t-.563-1.268q0-.43.232-.84-.804-.517-.804-1.445 0-.66.446-1.142-.446-.482-.446-1.143 0-.964.84-1.464-.072-.892-.608-1.92t-1.063-1.704-1.33-1.554q-1.84-2.018-1.84-4.786 0-1.768.796-3.295t2.09-2.535 2.928-1.59 3.33-.58 3.33.58 2.93 1.59 2.09 2.536.794 3.296z"/></svg><svg width="25.652" height="26.271" viewBox="0 0 25.652 26.271" y="1259"><path fill="#607FAB" d="M.127 22.007v.086c.02 2.4 2 4.2 4.2 4.18 2.314-.02 4.198-1.912 4.182-4.228l-.026-4.626-8.357 4.587zM25.563 21.867c-.082-.9-.475-1.736-1.104-2.38l-.01-.022-7.61-6.626-7.3 3.995 9.553 8.396c.716.605 1.6 1 2.6.95l.345-.02c1.042-.1 1.98-.597 2.652-1.403.646-.884.963-1.884.963-2.896l-.09.007zM8.433 4.867L8.43 4.42l.003-.104C8.423 1.994 6.515.106 4.195.126 1.875.15-.008 2.042 0 4.36L.032 9.51l8.4-4.643z"/><path fill="#FA930D" d="M.055 11.327L19.668.477C20.242.17 20.876.005 21.508 0c.41-.002.802 0 1.2.2 2.063.6 3.2 2.8 2.602 4.938-.27.864-.828 1.602-1.574 2.095l-.016.02-.238.136L.147 20.19l-.09-8.855-.002-.008z"/></svg><svg width="32" height="32" viewBox="0 0 32 32" y="1286"><path stroke="#449FDB" d="M0 0"/><path d="M9.845 17.84V29.56s.085-.918 4.98.824c0 0 3.358 1.294 5.9 1.294h4.943s2.212-1.424 2.872-2.554c0 0 .565-1.62 0-2.372 0 0 1.6-.644 1.695-2.02 0 0 .283-.723-.377-1.948 0 0 .847-1.095 1.035-2.902 0 0 .283-.548-.565-1.273 0 0 1.032-2.136.61-3.266 0 0-.61-2.166-1.834-2.072 0 0-6.59.376-7.06.47s-.726.095-1.634-.47c0 0-.438-.565.88-2.448 0 0 1.6-3.2 1.978-4.99 0 0 .47-3.107-2.07-4.896 0 0-1.225-.753-1.98 0 0 0-.187.377-.376 3.013 0 0-.188 2.072-1.6 3.86 0 0-2.98 2.637-3.83 4.803 0 0-1.328 3.39-3.568 5.225zm-8.223-.748c-.92 7.88-.19 13.308-.19 13.308h5.26V17.1c-3.2-.404-5.07-.008-5.07-.008z"/></svg><svg width="30" height="32" viewBox="0 0 30 32" y="1318"><path stroke="#449FDB" d="M0 0"/><path d="M21.25 10.375l5.232-5.232-1.91-1.91-5.233 5.23zm7.982-5.232q0 .482-.32.804L5.946 28.91q-.32.322-.804.322t-.804-.32L.802 25.374q-.32-.32-.32-.804t.32-.803L23.767.803q.32-.32.804-.32t.805.32L28.91 4.34q.322.32.322.803zM5.107 1.75l1.75.536-1.75.536-.536 1.75-.535-1.75-1.75-.536 1.75-.536L4.57 0zm6.25 2.893l3.5 1.07-3.5 1.072-1.07 3.5-1.072-3.5-3.5-1.07 3.5-1.072 1.07-3.5zm16.607 8.536l1.75.535-1.75.536-.536 1.75-.536-1.75-1.75-.535 1.75-.536.536-1.75zM16.536 1.75l1.75.536-1.75.536L16 4.572l-.536-1.75-1.75-.536 1.75-.536L16 0z"/></svg><svg width="32" height="29" viewBox="0 0 32 29" y="1350"><title>highlighterIcon</title><path d="M6.493 26.662l-2.255 2.074H0l4.632-3.934-.84-.84 4.268-4.266-1.135-1.136c-.123-.124-.122-.32 0-.44L24.954.09c.12-.12.318-.12.44.002l5.776 5.776c.124.124.123.32.002.442l-18.03 18.03c-.12.12-.318.12-.44-.002l-.728-.728-4.267 4.266-1.214-1.214z"/></svg><svg width="20" height="32" viewBox="0 0 20 32" y="1379"><path stroke="#449FDB" d="M0 0"/><path d="M13.01 12.456h4.1L9.92 0 2.727 12.456H6.83C6.37 20.276 2.95 25.93-.134 25.93V32c3.845 0 7.316-2.46 9.77-6.928l.284-.54.283.54C12.66 29.54 16.13 32 19.975 32v-6.07c-3.083 0-6.504-5.653-6.965-13.474z"/></svg><svg width="40" height="32" viewBox="0 0 40 32" y="1411"><path stroke="#449FDB" d="M0 0"/><path d="M15.298 8.333h6.568V14.9h-6.568V8.334zm-8.757 0h6.57V14.9H6.54V8.334zM15.3 17.09h6.568v6.568h-6.568V17.09zm-8.757 0h6.57v6.568H6.54V17.09zm4.363-10.946V1.766h19.72v28.46h-19.72V25.83h15.34V6.145z"/></svg><svg width="32" height="32" viewBox="0 0 32 32" y="1443"><path stroke="#449FDB" d="M0 0"/><path d="M32 32H0V0h32v32zm-5.333-18.667l-6.25.333L24 8l-5.333-3.166L16 10.666l-2.667-5.832L8 8l3.584 5.623-6.25-.29v5.332l6.25-.208L8 23.997l5.333 3.17L16 21.336l2.667 5.83L24 23.996l-3.667-5.583 6.333.25v-5.332z"/></svg><svg width="32" height="32" viewBox="0 0 32 32" y="1475"><path stroke="#449FDB" d="M0 0"/><path d="M32 16q0 .464-.34.804l-4.57 4.57q-.34.34-.804.34t-.804-.34-.34-.803v-2.285h-6.856v6.857h2.286q.464 0 .804.34t.34.803-.34.804l-4.57 4.57q-.34.34-.805.34t-.803-.34l-4.57-4.57q-.34-.34-.34-.805t.34-.804.803-.338h2.286v-6.857H6.86v2.286q0 .465-.34.805t-.804.34-.804-.34l-4.57-4.57Q0 16.464 0 16t.34-.804l4.57-4.57q.34-.34.804-.34t.804.34.34.803v2.285h6.856V6.858H11.43q-.464 0-.804-.34t-.34-.803.34-.804l4.57-4.57q.34-.34.805-.34t.805.34l4.57 4.57q.34.34.34.805t-.34.804-.803.338h-2.286v6.857h6.857V11.43q0-.465.34-.805t.803-.34.804.34l4.57 4.57q.34.34.34.805z"/></svg><svg width="38.324" height="19.879" viewBox="0 0 38.324 19.879" y="1507"><path fill="#FA930D" d="M33.448 8.018c-.19 1.557-.777 2.862-1.703 3.862-.13.127-.238.25-.427.4.146 0 .6.2.8.258.555.2 1.2.8 1.2 1.654 0 1.09-1.062 1.936-2.723 2-1.488 0-2.132-.406-2.558-.977-.218-.293-.228-.418-.56-.65-.377-.275-1.146-.232-1.146-.232h-2.853s-.77-.02-.974.346c-.215.356-.262.58-.086 1.003.988 2.604 3.4 4.2 7.6 4.2 6.602 0 8.305-2.99 8.305-6.155-.08-2.865-1.673-4.866-4.87-5.706l-.004-.004zM23.77 8.758c3.31 0 3.542-.684 3.542-1.81 0-.24-.024-.444-.062-.63l-.047-.255-.02-.043h.005l-.004-.347c0-.924.476-2.22 3.02-2.22 2.15 0 2.8.602 3.2 1.608.107.2.197.603.398.85.322.4 1 .4 1 .38h1.79l1.19-.332c.28-.275.4-.542.327-.958-.5-3.14-2.97-5-8.02-5-5.28 0-7.914 2.713-7.914 6.154 0 1 .2 1.8.802 2.617h.785v-.02l.008.008z"/><path fill="#74838C" d="M32.77 6.877c0-.29-.02-.572-.04-.848h-.004c-.04-.325-.078-.643-.147-.938-.25-.636-.803-.878-2.37-.878-2.276 0-2.276 1.103-2.276 1.464v.348h-.01c.064.2.2.6.2.93 0 2.07-1.375 2.558-4.295 2.558h-2.374v-3.57l.028-.02c.062-2.4 1.267-4.292 3.3-5.44H15.16l-4.624 14.06L6.08.505H0v18.774h4.523V6.528l4 12.75h3.9l4.23-12.544v12.543h4.793v-5.895h4.41l.73-.02.206-.025.492-.057.21-.033.626-.123.064-.02.52-.153.206-.07.375-.15.188-.08.484-.265c1.826-1.1 2.893-2.895 2.893-5.49l-.08-.018z"/></svg><svg width="32" height="32" viewBox="0 0 32 32" y="1527"><path stroke="#449FDB" d="M0 0"/><path d="M29.84 10.107q0 .714-.5 1.214L13.98 26.68q-.5.5-1.214.5t-1.214-.5L2.66 17.785q-.5-.5-.5-1.214t.5-1.213l2.43-2.43q.5-.5 1.214-.5t1.214.5l5.25 5.27L24.482 6.463q.5-.5 1.214-.5t1.214.5l2.43 2.43q.5.5.5 1.213z"/></svg><svg width="25" height="32" viewBox="0 0 25 32" y="1559"><path stroke="#449FDB" d="M0 0"/><path d="M25.07 24.732q0 2.09-1.41 3.5t-3.5 1.41q-2.41 0-4.196-1.785L2.09 14Q.07 11.946.07 9.16q0-2.838 1.965-4.82T6.84 2.358q2.82 0 4.874 2.018l10.804 10.82q.18.18.18.394 0 .286-.546.83t-.83.545q-.232 0-.41-.18L10.09 5.948Q8.68 4.572 6.858 4.572q-1.893 0-3.196 1.34T2.358 9.14q0 1.876 1.357 3.233L17.572 26.25q1.125 1.125 2.59 1.125 1.142 0 1.892-.75t.75-1.893q0-1.464-1.125-2.59L11.303 11.77q-.464-.43-1.07-.43-.52 0-.858.34t-.34.857q0 .57.447 1.054l7.32 7.32q.18.18.18.393 0 .286-.554.84t-.84.553q-.214 0-.393-.18l-7.32-7.32q-1.126-1.09-1.126-2.66 0-1.465 1.02-2.483t2.48-1.018q1.572 0 2.662 1.125l10.375 10.375q1.786 1.75 1.786 4.196z"/></svg><svg width="27" height="32" viewBox="0 0 27 32" y="1591"><path stroke="#449FDB" d="M0 0"/><path d="M27.43 3.43V28.57q0 .464-.34.804t-.804.34h-9.143q-.464 0-.804-.34t-.34-.804V3.43q0-.465.34-.805t.803-.34h9.143q.464 0 .804.34t.34.804zm-16 0V28.57q0 .464-.34.804t-.804.34H1.143q-.464 0-.804-.34T0 28.572V3.43q0-.465.34-.805t.803-.34h9.143q.464 0 .804.34t.34.804z"/></svg><svg width="27" height="32" viewBox="0 0 27 32" y="1623"><path stroke="#449FDB" d="M0 0"/><path d="M6.482 27.43l1.625-1.626-4.196-4.196-1.624 1.625v1.91h2.286v2.287h1.91zm9.34-16.573q0-.393-.394-.393-.18 0-.304.125l-9.68 9.678q-.124.125-.124.304 0 .393.393.393.18 0 .304-.125l9.68-9.68q.124-.124.124-.303zm-.965-3.428l7.43 7.428L7.428 29.715H0v-7.43zm12.197 1.713q0 .946-.66 1.607l-2.965 2.964L16 6.284l2.964-2.945q.643-.68 1.607-.68.947 0 1.626.68l4.196 4.178q.66.696.66 1.625z"/></svg><svg width="32" height="32" viewBox="0 0 32 32" y="1655"><path stroke="#449FDB" d="M0 0"/><path d="M16 30.092c-7.77 0-14.092-6.32-14.092-14.092S8.23 1.908 16 1.908c7.77 0 14.092 6.322 14.092 14.092S23.772 30.092 16 30.092zm0-26.356C9.237 3.736 3.736 9.236 3.736 16c0 6.762 5.502 12.264 12.264 12.264S28.264 22.762 28.264 16c0-6.763-5.502-12.264-12.264-12.264zm1.176 13.852l-.128-.145-.005-.007-6.858-7.168-.054-.035c-.142-.1-.342-.107-.483.002-.087.066-.143.163-.157.272-.01.086.006.17.046.245l.005.012s5.25 8.59 5.284 8.636c.283.368.712.58 1.177.58.33 0 .643-.107.905-.308.315-.243.515-.592.568-.986.05-.392-.055-.782-.297-1.097zM16 7.438c-.325 0-.59-.265-.59-.59s.264-.588.59-.588.588.264.588.59-.265.587-.59.587zm2.9.38l-.152-.02c-.15-.04-.28-.137-.358-.273s-.1-.295-.06-.447c.083-.306.415-.498.722-.415.313.083.5.407.416.72-.07.257-.302.436-.568.436zm-5.802 0c-.266 0-.5-.178-.57-.435-.04-.152-.018-.31.06-.446s.205-.234.358-.274c.308-.082.64.11.72.416.042.15.02.31-.058.446s-.205.234-.357.274l-.15.02zm-2.703 1.12c-.21 0-.405-.112-.51-.293-.078-.136-.1-.295-.058-.446s.138-.28.274-.358c.272-.157.65-.055.805.215.162.282.066.642-.215.804-.09.052-.19.08-.294.08zM8.073 10.72c-.158 0-.305-.06-.417-.173-.23-.23-.23-.603 0-.832.222-.222.61-.223.833 0 .228.23.228.603 0 .832-.112.11-.26.172-.418.172zM6.29 13.042c-.102 0-.204-.027-.293-.08-.136-.078-.233-.205-.274-.357s-.02-.31.06-.446c.155-.27.53-.374.803-.217.282.162.378.523.216.804-.105.182-.3.295-.51.295zm19.38-.03c-.226 0-.44-.12-.553-.317-.928-1.572-2.25-2.885-3.83-3.8-.15-.085-.255-.223-.298-.39-.046-.165-.022-.34.063-.487.17-.296.58-.406.878-.234 1.77 1.024 3.255 2.497 4.294 4.26.086.146.11.32.068.485-.042.165-.148.305-.296.392-.1.058-.21.09-.325.09zm-5.817 6.124c-1.046 0-1.445.776-1.705 1.114-.514.67-1.298 1.012-2.08.992-.786.02-1.568-.323-2.083-.992-.26-.338-.66-1.114-1.705-1.114H5.004c1.367 4.786 5.778 8.3 10.997 8.3s9.63-3.514 10.998-8.3h-7.143zm-.713 5.768h-6.28c-.583 0-1.058-.46-1.058-1.028 0-.568.475-1.03 1.058-1.03h6.28c.584 0 1.058.462 1.058 1.03 0 .566-.474 1.028-1.057 1.028z"/></svg><svg width="32" height="32" viewBox="0 0 32 32" y="1687"><path stroke="#449FDB" d="M0 0"/><path d="M14.857 9.143q0-1.43-1-2.43t-2.43-1-2.428 1-1 2.43q0 .75.338 1.482-.732-.34-1.482-.34-1.43 0-2.43 1t-1 2.43 1 2.43 2.43 1 2.43-1 1-2.43q0-.75-.34-1.482.732.34 1.482.34 1.43 0 2.43-1t1-2.43zm15.197 12.57q0 .305-.875 1.18t-1.18.875q-.16 0-.51-.286t-.65-.59-.69-.713-.437-.465L24 23.43l3.928 3.928q.5.5.5 1.214 0 .75-.696 1.446t-1.446.696q-.714 0-1.214-.5L13.09 18.232q-3.143 2.34-6.518 2.34-2.91 0-4.74-1.83T0 14q0-2.857 1.695-5.59t4.43-4.428 5.588-1.696q2.91 0 4.74 1.83t1.83 4.74q0 3.376-2.338 6.52l6.34 6.338L24 20q-.054-.054-.464-.438t-.714-.688-.59-.652-.285-.51q0-.303.875-1.178t1.18-.875q.23 0 .41.178l.82.795 1.465 1.42 1.545 1.536 1.304 1.392.51.732z"/></svg><svg width="30.938" height="24.807" viewBox="0 0 30.938 24.807" y="1719"><path fill="#5E64B2" d="M16.255 24.803h2.26l.67-.722c.308-.375.648-.792 1.075-1.27l.203-.24.69-.767c.415-.446.782-.833 1.435-1.735.648-.872 1.064-1.533.996-2.677-.027-.578-.062-.975-.438-1.452-.23-.27-.648-.688-1.105-1.113-.486-.473-.902-.915-1.48-1.52-.567-.6-1.313-2.125-1.313-2.125-.268-.59-.783-1.91-.783-2.997l-.02-.742v-.08h-8.427v6.06c.427-.55 1.047-.73 1.626-.73.937 0 1.736.553 1.736 1.763v6.198h-2.19v-5.46c0-.483-.2-.712-.58-.712-.416 0-.6.27-.6.712v5.46H7.816V7.364H0v17.44h1.586V12.9H3.56v.93c.457-.783 1.146-1.145 1.79-1.145 1.115 0 1.908.864 1.908 2.435v3.548c0 1.32-.896 2.206-1.91 2.206-.59 0-1.09-.274-1.575-.915v4.85H14.06V12.903h1.975v.926c.467-.782 1.156-1.144 1.787-1.144 1.13 0 1.91.864 1.91 2.435v3.55c0 1.32-.883 2.205-1.91 2.205-.59 0-1.076-.274-1.563-.915l-.005 4.843zM17.546 18.222v-2.797c0-.62-.214-.945-.65-.945-.427 0-.64.326-.64.945v2.797c0 .62.213.904.64.904.436.002.65-.283.65-.904M5.073 18.222v-2.797c0-.62-.226-.945-.65-.945s-.65.326-.65.945v2.797c0 .62.227.904.65.904.425 0 .65-.283.65-.904"/><path fill="#FA930D" d="M29.186 1.483c.51-.58.926-1.047 1.265-1.482h-7.624c-.457.58-1.386 1.697-1.9 2.693-.7 1.312-1.27 2.297-1.332 4.707l.03.783c0 1.147.82 2.833.82 2.833.136.31.562.938.847 1.322h-.012l.152.203 2.61 2.675c.65.792.66 1.534.702 2.114.092 1.554-.54 2.5-1.223 3.425-1.025 1.396-1.397 1.656-2.177 2.562-.51.575-.914 1.058-1.263 1.48h7.88c.47-.6 1.116-1.69 1.655-2.685.688-1.312 1.26-2.298 1.32-4.72l-.03-.77c0-1.147-.82-2.847-.82-2.847-.123-.295-.563-.927-.845-1.322h.01l-.15-.193c-.82-.94-2.06-2.003-2.61-2.674-.643-.793-.66-1.533-.7-2.112-.093-1.563.538-2.513 1.222-3.428 1.025-1.394 1.39-1.648 2.174-2.563"/></svg><svg width="25" height="32" viewBox="0 0 25 32" y="1744"><path stroke="#449FDB" d="M0 0"/><path d="M24.714 16.554L1 29.734q-.41.23-.705.053T0 29.144V2.858q0-.464.295-.643T1 2.27l23.714 13.178q.41.232.41.554t-.41.554z"/></svg><svg width="30" height="32" viewBox="0 0 30 32" y="1776"><path stroke="#449FDB" d="M0 0"/><path d="M6.857 27.43h16v-4.572h-16v4.57zm0-11.43h16V9.143H20q-.714 0-1.214-.5t-.5-1.214V4.57H6.856v11.43zm20.572 1.143q0-.464-.34-.804t-.804-.34-.804.34-.34.803.34.804.804.34.804-.34.34-.804zm2.284 0v7.43q0 .23-.17.4t-.402.17h-4v2.858q0 .715-.5 1.215t-1.214.5H6.285q-.714 0-1.214-.5T4.57 28v-2.856h-4q-.23 0-.4-.17T0 24.572v-7.43q0-1.41 1.008-2.42t2.42-1.008H4.57V4q0-.714.5-1.214t1.215-.5h12q.714 0 1.57.357t1.358.857l2.714 2.714q.5.5.857 1.357t.357 1.572v4.57h1.144q1.41 0 2.42 1.01t1.01 2.42z"/></svg><svg width="21" height="32" viewBox="0 0 21 32" y="1808"><path stroke="#449FDB" d="M0 0"/><path d="M8.57 15.43v-8q0-.25-.16-.412T8 6.858t-.412.16-.16.41v8q0 .25.16.412t.41.16.412-.16.16-.41zm12 6.284q0 .464-.338.804t-.804.34h-7.66l-.912 8.624q-.036.214-.188.366t-.366.152h-.018q-.482 0-.57-.482l-1.358-8.66H1.142q-.464 0-.804-.34t-.34-.804q0-2.196 1.403-3.955T4.57 16V6.857q-.928 0-1.606-.68t-.68-1.606.68-1.606 1.607-.68H16q.93 0 1.607.68t.68 1.607-.68 1.608-1.607.68V16q1.768 0 3.17 1.76t1.402 3.954z"/></svg><svg width="25.047" height="24.441" viewBox="0 0 25.047 24.441" y="1840"><path fill="#FA930D" d="M19.253 7.354h-.105c-2.33 0-4.23 1.562-4.77 3.66h-.027c-.368 1.942-2.07 3.415-4.12 3.415-2.317 0-4.2-1.882-4.2-4.2 0-.155.02-.31.04-.458l.01-.1.03-.183c.835-3.972 3.465-7.283 6.987-9.087C12.187.148 11.224 0 10.23 0 4.874 0 .497 4.108.04 9.345l-.04.11V24.39h6.052v-4.827c1.282.578 2.688.896 4.182.896 5.65 0 10.238-4.577 10.238-10.23 0-1.003-.156-1.97-.43-2.874l-.79-.002z"/><path fill="#4F7F4B" d="M20.706 1.92c0 .438.357.786.797.786.43 0 .787-.35.787-.786 0-.438-.357-.786-.787-.786-.44 0-.797.348-.797.786m3.842 2.926c-.557.887-1.543 1.474-2.666 1.474h-2.806c-2.77 0-5.076 1.91-5.713 4.48l-.02.03c-.29 1.492-1.598 2.577-3.116 2.577-1.742 0-3.166-1.428-3.166-3.18 0-.187.032-.395.08-.615 1.193-5.49 6.083-9.61 11.935-9.61h2.807c1.74 0 3.164 1.413 3.164 3.164l-.04.378c-.196.107-.405.22-.626.316-1.232.606-3.006.23-3.95.03v.03c.198.348.616.746 1.095.955.945.315 1.636.338 2.738.06l.285-.09m.498 16.434c0 1.75-1.424 3.164-3.166 3.164h-2.808c-3.065 0-5.854-1.14-7.992-2.996 2.826-.21 5.363-1.468 7.226-3.388.25.03.508.054.77.054.062 0 2.77.01 2.808 0 1.738 0 3.162 1.42 3.162 3.165"/></svg><svg width="32" height="32" viewBox="0 0 32 32" y="1865"><path stroke="#449FDB" d="M0 0"/><path d="M32 11.43q0 .463-.34.803l-9.142 9.143q-.34.34-.804.34t-.804-.34-.34-.804v-4.57h-4q-1.75 0-3.133.106t-2.75.384-2.375.76-1.884 1.24-1.43 1.804-.865 2.473T3.82 26q0 .983.09 2.197l.044.42.045.473q0 .268-.153.446t-.42.18q-.286 0-.5-.305-.125-.16-.232-.392t-.24-.536-.19-.43Q0 22.965 0 20q0-3.555.946-5.947Q3.837 6.857 16.57 6.857h4v-4.57q0-.465.338-.805t.804-.34.804.34l9.143 9.143q.338.34.338.804z"/></svg><svg width="27" height="32" viewBox="0 0 27 32" y="1897"><path stroke="#449FDB" d="M0 0"/><path d="M26.982 18.857l-.018.125q-1.143 4.786-4.786 7.76t-8.536 2.972q-2.607 0-5.045-.982T4.25 25.928l-2.305 2.304q-.34.34-.804.34t-.803-.34-.34-.804v-8q0-.464.34-.804t.804-.34h8q.465 0 .805.34t.34.804-.34.804L7.5 22.678q1.267 1.18 2.874 1.82t3.34.644q2.392 0 4.463-1.16t3.32-3.197q.197-.304.947-2.09.143-.41.536-.41h3.43q.23 0 .4.17t.17.402zM27.43 4.57v8q0 .465-.34.805t-.804.34h-8q-.464 0-.804-.34t-.34-.804.34-.803l2.464-2.464q-2.643-2.446-6.232-2.446-2.393 0-4.464 1.16t-3.32 3.197q-.197.304-.947 2.09-.143.41-.536.41H.893q-.232 0-.402-.17t-.17-.402v-.125q1.162-4.786 4.822-7.76t8.57-2.972q2.608 0 5.072.99t4.375 2.796l2.32-2.303q.34-.34.804-.34t.804.34.34.804z"/></svg><svg width="32" height="32" viewBox="0 0 32 32" y="1929"><path stroke="#449FDB" d="M0 0"/><path d="M32 32H0V0h32v32zm-5.333-13.333v-5.333H5.334v5.333h21.333z"/></svg><svg width="32" height="32" viewBox="0 0 32 32" y="1961"><path stroke="#449FDB" d="M0 0"/><path d="M32 32H0V0h32v32zM26.667 5.333h-16l7.37 5.472-12.703 12.7 3.16 3.16 12.704-12.703 5.47 7.37v-16z"/></svg><svg width="36.312" height="28.061" viewBox="0 0 36.312 28.061" y="1993"><path fill="#9A3965" d="M0 10.215V27.57h6.534l.004-16.954c0-1.11.688-4.283 3.73-4.283 1.874 0 3.232 1.46 3.232 3.478 0 1.894-1.48 2.897-2.716 3.622l-.492.296c-1.106.732-1.672 1.76-1.672 3.036 0 1.064.396 1.946.477 2.113l.43.748 4.495 6.373.074.11.604.872c.356.467.85.813 1.554.987.884.222 1.87.02 2.58-.457.7-.47 1.11-1.065 1.267-1.88l.054-.536c-.002-.618-.28-1.666-.94-2.554-.33-.51-3.395-4.662-3.646-5.158l-.09-.178.165-.116c2.634-1.845 4.208-4.844 4.208-8.02v-.273c0-2.22-.78-4.338-2.145-5.813C15.925 1.06 13.285 0 10.27 0 4.513 0 0 4.486 0 10.215"/><path fill="#FA930D" d="M26.268 16.203l-3.252.002.73-3.667 3.252-.004-.73 3.67zM34.475.47H29.39L27.836 8.29l-3.254.004 1.554-7.82h-5.084l-.67 3.507c.73 1.443 1.135 3.107 1.135 4.817v.273c0 3.247-1.46 6.27-3.856 8.438.5.707 1.17 1.645 1.657 2.317 0 0 1.228 1.718 1.23 1.726.515.692.843 1.44 1.037 2.106l.586-3.212 3.254-.002-1.422 7.17h5.084l1.422-7.173 3.385-.01.843-4.24-3.384.004.73-3.667 3.386-.003.842-4.244-3.386.003L34.475.47z"/></svg><svg width="34" height="32" viewBox="0 0 34 32" y="2022"><path stroke="#449FDB" d="M0 0"/><path d="M34.286 20.57q0 2.84-2.01 4.85t-4.847 2.008H8q-3.304 0-5.652-2.348T0 19.428q0-2.357 1.268-4.313t3.34-2.92q-.037-.5-.037-.768 0-3.786 2.68-6.464t6.464-2.68q2.82 0 5.116 1.572t3.348 4.107q1.25-1.107 2.964-1.107 1.893 0 3.232 1.34t1.34 3.23q0 1.34-.733 2.465 2.305.536 3.805 2.402t1.5 4.277z"/></svg><svg width="32" height="32" viewBox="0 0 32 32" y="2054"><path stroke="#449FDB" d="M0 0"/><path d="M17.837 11.41c-.317-1.8-.948-3.948-1.72-5.76h-.003c-1.576-1.357-4.852-1.93-8.444-1.296-3.592.632-6.475 2.29-7.492 4.106l-.03.006c-.103 1.966.037 4.2.355 6.002 1.272 7.208 6.508 14.21 11.295 13.367 4.786-.845 7.31-9.216 6.04-16.425zm-14.44 3.317c-.212.076-.45.073-.67-.03-.438-.203-.626-.723-.422-1.16.803-1.723 2.856-2.47 4.578-1.668.437.203.626.723.422 1.16-.205.437-.724.627-1.16.423-.85-.396-1.862-.026-2.258.82-.102.22-.282.376-.492.454zM15.88 17.68c-2.16 6.854-7.02 7.71-11.394 2.01l.008-.002-.01-.007c-.255-.177-.317-.527-.14-.782.18-.254.528-.317.784-.14.346.245.713.45 1.09.625 1.298.604 2.746.802 4.185.548 1.44-.253 2.732-.935 3.745-1.945.294-.294.567-.612.81-.958.18-.254.53-.316.783-.138.256.177.317.526.14.782l-.008.008h.008zm-.054-5.293c-.34.34-.893.34-1.234 0-.663-.662-1.74-.662-2.402 0-.17.17-.395.257-.62.257-.223-.002-.446-.085-.618-.257-.34-.34-.34-.894 0-1.235 1.345-1.343 3.53-1.343 4.873 0 .342.342.342.895 0 1.235zM31.85 8.465h-.002c-1.018-1.816-3.9-3.474-7.492-4.107-2.7-.477-5.22-.27-6.976.436l.115.268c.678 1.59 1.268 3.473 1.64 5.2.788.312 1.46.91 1.847 1.737.204.437.015.957-.422 1.162-.352.163-.754.07-1.005-.2.156 1.64.14 3.313-.04 4.936.773.137 1.543.433 2.34.573 2.03.36 4.243-.296 5.322 3.13h-.008l.007.01c.177.253.116.604-.138.782s-.605.116-.783-.138c-.243-.348-.518-.664-.81-.958-1.015-1.012-2.853-.562-4.292-.816-.803-.14-1.372-.202-1.9-.532-.187.99-.435 1.643-.75 2.55-.43 1.248-.96 2.343-1.57 3.273.915 1.102 2.015 1.843 3.268 2.065 4.787.843 10.024-6.16 11.295-13.367.318-1.803.46-4.037.354-6.002zm-2.09 5.46c-.342.34-.894.34-1.235 0-.664-.664-1.74-.664-2.404 0-.168.17-.392.256-.616.256s-.447-.085-.617-.256c-.342-.34-.342-.894 0-1.234 1.34-1.343 3.528-1.345 4.873-.002.34.34.34.894 0 1.236z"/></svg><svg width="28.721" height="25.75" viewBox="0 0 28.721 25.75" y="2086"><path fill="#FA930D" d="M27.97 20.69c-.294-.473-3.063-4.253-3.294-4.708l-.082-.16.146-.106c2.375-1.684 3.803-4.416 3.803-7.317v-.245c0-2.024-.705-3.958-1.94-5.304C25.156 1.274 23.08.35 20.705.18v5.857c1.25.4 2 1.6 2 3.038 0 1.727-1.332 2.636-2.46 3.306l-.44.272c-1 .666-1.508 1.6-1.508 2.8 0 1 .396 1.8.396 1.924l.39.68 4.06 5.813v.1l.602.804c.332.396.803.8 1.397.897.802.2 1.603 0 2.34-.417.63-.428 1.007-.97 1.145-1.71l.04-.48c.156-.516-.003-1.516-.603-2.367h-.095v-.007z"/><path fill="#B7334F" d="M19.398.116c-.73.058-1.455.196-2.123.424V.53c-.06.026-.12.046-.176 0l-.614.24-.23.11-.593.304v.008c-.48.285-.928.6-1.346.96C12.792.82 10.814 0 8.63 0 3.86 0 0 3.864 0 8.63v16.48h5.863l.008-5.57h.017v-2.908H5.87l.005-1.346.012-6.656h-.004l-.008-.03c0-1.52 1.238-2.758 2.762-2.758 1.507 0 2.8 1.2 2.8 2.736v.03h-.003v6.61h-.012l.012 9.87h5.875l.007-10.024.01-6.46h-.006v-.05l.022-.215v-.143c.156-1.137 1.005-2.042 2.11-2.292l-.054-5.79z"/></svg><svg width="30" height="32" viewBox="0 0 30 32" y="2112"><path stroke="#449FDB" d="M0 0"/><path d="M20.57 14.857q0-3.304-2.347-5.652T12.57 6.857 6.92 9.205t-2.35 5.652 2.35 5.652 5.65 2.347 5.653-2.348 2.348-5.653zm9.144 14.857q0 .93-.68 1.607T27.43 32q-.964 0-1.607-.68l-6.124-6.106q-3.196 2.214-7.125 2.214-2.553 0-4.883-.99t-4.018-2.68T.99 19.74 0 14.856t.99-4.884 2.68-4.018 4.017-2.68 4.884-.99 4.885.99 4.018 2.68 2.68 4.018.99 4.884q0 3.93-2.214 7.125l6.124 6.126q.66.66.66 1.607z"/></svg><svg width="15" height="32" viewBox="0 0 15 32" y="2144"><path stroke="#449FDB" d="M0 0"/><path d="M8.7 31.332l2.523-2.5v-14.64c2.205-1.253 3.694-3.602 3.688-6.3.01-4.017-3.278-7.27-7.328-7.28C3.522.622.236 3.875.23 7.892c.005 2.69 1.488 5.035 3.688 6.29v2.944L6.25 19.46l-1.785 1.784 1.714 1.713-1.76 1.76 1.783 1.785-1.784 1.785 3.044 3.046c.46.44.78.45 1.237 0zM5.656 4.706c.01-1.074.884-1.937 1.952-1.928 1.083-.01 1.956.854 1.95 1.928.007 1.056-.867 1.92-1.95 1.928-1.068-.008-1.942-.872-1.952-1.928z"/></svg><svg width="32" height="32" viewBox="0 0 32 32" y="2176"><path stroke="#449FDB" d="M0 0"/><path d="M23.494 21.052V4.64H8.504V21.05L16 26.77zm5.14-19.448c-.35 0-.66.166-.863.42H4.23c-.204-.254-.513-.42-.864-.42-.612 0-1.108.496-1.108 1.108S2.754 3.82 3.366 3.82c.346 0 .65-.162.854-.41h1.556v19.338L16 30.395l10.223-7.647V3.408h1.556c.202.25.507.412.853.412.612 0 1.108-.496 1.108-1.108s-.495-1.108-1.107-1.108zm-3.79 20.15L16 28.595l-8.845-6.84V3.41h17.69v18.345z"/></svg><svg width="32" height="32" viewBox="0 0 32 32" y="2208"><path stroke="#449FDB" d="M0 0"/><path d="M30.543 10.177C27.746 3.252 20.52-.553 13.45.702l.054.12c.164.404.235.824.226 1.234 6.096-1.06 12.324 2.013 15.113 7.7l-7.188 2.906c-2.22-5.168-4.948-8.21-7.697-9.613-.064.46-.23.9-.485 1.287 2.222 1.214 4.74 3.822 6.902 8.842l-9.254 3.738c-1.977-5.234-1.95-8.945-1.124-11.32-.444-.133-.855-.365-1.2-.68C7.67 7.796 7.787 12.012 9.84 17.436l-7.15 2.888C.8 14.23 3.562 6.726 8.915 3.63c.604.748 1.646 1.048 2.583.67 1.148-.465 1.703-1.772 1.24-2.92C12.273.23 10.965-.325 9.817.14c-.908.366-1.442 1.258-1.4 2.183C2.056 5.777-1.065 14.837 1.752 21.81c2.84 7.028 10.24 10.84 17.41 9.415-.117-.174-.218-.363-.298-.564-.1-.244-.163-.494-.196-.745-6.343 1.15-12.85-2.188-15.495-8.296l7.185-2.903c2.27 5.34 5.586 8.953 8.373 10.385-.057-.502.275-1.157.604-1.36-2.212-1.377-5.548-4.56-7.695-9.543l9.256-3.74c1.867 4.954 1.768 9.61 1.204 12.166.438-.073 1.125.16 1.46.527.875-3 .626-7.963-1.383-13.21l7.214-2.916c2.27 6.143-.76 13.596-5.924 17.235-.61-.7-1.62-.976-2.53-.607-1.15.463-1.705 1.77-1.24 2.92s1.772 1.702 2.92 1.24c.926-.376 1.467-1.3 1.396-2.245 5.956-4.017 9.33-12.47 6.534-19.39z"/></svg><svg width="32" height="32" viewBox="0 0 32 32" y="2240"><path stroke="#449FDB" d="M0 0"/><path d="M21.903 25.337H2.533V5.967l19.37.004 2.53-2.53H.005v24.426h24.426v-11.79l-2.53 2.527zm6.426-23.14L15.405 15.118l-6.59-6.59-3.663 3.664 10.252 10.252L31.992 5.86z"/></svg><svg width="31.391" height="26.465" viewBox="0 0 31.391 26.465" y="2272"><path fill="#136BA2" d="M23.468 13.202c0 2.2 1.8 4 4 3.92 2.158 0 3.923-1.76 3.923-3.92 0-2.162-1.764-3.922-3.922-3.922-2.237 0-4.016 1.8-4.016 3.922h.016z"/><path fill="#FA930D" d="M27.562.02h-.016L27.42 0c-7.27 0-13.192 5.915-13.192 13.183 0 7.27 5.925 13.2 13.2 13.2h.326c1.812 0 3.29-1.476 3.29-3.292 0-1.806-1.468-3.284-3.29-3.284h-.268c-3.642 0-6.606-2.967-6.606-6.61 0-3.65 2.964-6.618 6.606-6.618h.325c1.816 0 3.288-1.472 3.288-3.29S29.633.003 27.81.003c-.167.07-.163.07-.163.02h-.085z"/><path fill="#136BA2" d="M12.39 0H3.372C2.462-.02 1.596.32.958.97.338 1.588 0 2.423 0 3.368c0 .8.396 1.8 1 2.334.642.6 1.6 1 2.396.96l1.2.003v19.8H11.2V6.715h1.188c.914 0 1.772-.31 2.422-.958 1.288-1.29 1.288-3.375 0-4.664-.66-.82-1.56-1.02-2.356-1.084L12.39 0z"/></svg><svg width="18" height="32" viewBox="0 0 18 32" y="2299"><path stroke="#449FDB" d="M0 0"/><path d="M9.143 20.57q0-.642-.357-1.23l-.277-.403-.456-.68-.446-.785-.375-.902q-.07-.286-.375-.286t-.375.286q-.125.41-.375.902t-.446.786-.455.68-.277.4q-.357.59-.357 1.233 0 .947.67 1.617t1.616.67 1.615-.67.67-1.616zm9.143-2.284q0 3.786-2.68 6.464t-6.463 2.68-6.464-2.68T0 18.286q0-2.59 1.446-4.91.107-.162 1.116-1.617t1.804-2.697 1.777-3.18 1.482-3.597q.16-.536.607-.84t.91-.303.92.304.6.84q.5 1.66 1.48 3.597t1.778 3.18 1.804 2.695 1.116 1.615q1.446 2.268 1.446 4.91z"/></svg><svg width="35" height="32" viewBox="0 0 35 32" y="2331"><path stroke="#449FDB" d="M0 0"/><path d="M28.26 3.4h-7.15c0-1.316-1.065-2.384-2.386-2.384H16.34c-1.318 0-2.386 1.064-2.386 2.385H6.802c-1.317 0-2.385 1.07-2.385 2.386s-.025 1.152-.025 2.385H30.61l.02-2.384c.016-1.32-1.05-2.385-2.368-2.385zM9.196 10.55l-2.385.05v19.015C6.81 30.932 7.88 32 9.195 32H25.88c1.317 0 2.385-1.064 2.385-2.385V10.513l-2.385.036H9.195zm4.767 16.235h-2.385v-10.87h2.385v10.87zm4.766 0h-2.385l.003-10.87h2.385l-.002 10.87zm4.767 0H21.11l.003-10.87h2.385l-.003 10.87z"/></svg><svg width="32" height="32" viewBox="0 0 32 32" y="2363"><path stroke="#449FDB" d="M0 0"/><path d="M32 20q0 2.964-2.268 8.054l-.188.43-.24.535-.233.392q-.213.304-.5.304-.267 0-.42-.18t-.15-.445q0-.16.044-.472t.045-.42q.088-1.214.088-2.196 0-1.804-.313-3.232T27 20.297t-1.43-1.804-1.884-1.24-2.375-.76-2.75-.384T15.428 16h-4v4.57q0 .465-.34.805t-.803.34-.804-.34L.337 12.234q-.34-.34-.34-.804t.34-.804L9.48 1.483q.34-.34.804-.34t.804.34.34.804v4.57h4q12.73 0 15.624 7.197.946 2.393.946 5.946z"/></svg><svg width="32" height="32" viewBox="0 0 32 32" y="2395"><path stroke="#449FDB" d="M0 0"/><path d="M26.486 17.132c-1.172 1.033-2.872.583-2.872-1.437V9.68c0-.825-.613-1.415-1.44-1.415h-6.058c-2.02 0-2.47-1.702-1.437-2.873 1.7-1.928.79-4.91-2.308-5.04-3.096.13-4.008 3.106-2.306 5.035C11.1 6.56 10.65 8.265 8.63 8.265H2.66c-.826 0-1.5.59-1.5 1.416v6.14c0 .36.16.965.505 1.126.343.16.787-.007 1.15-.34 1.123-1.023 2.63-1.308 3.91-.745 1.285.568 2.176 1.9 2.176 3.562v.05c0 1.657-.9 2.975-2.193 3.545s-2.807.263-3.933-.763c-.36-.33-.784-.487-1.114-.333-.34.16-.502.74-.502 1.1v6.177c0 .826.675 1.525 1.5 1.525h19.515c.826 0 1.44-.7 1.44-1.525v-6.014c0-2.02 1.686-2.47 2.857-1.437 1.928 1.702 4.886.79 5.016-2.307-.13-3.097-3.073-4.01-5-2.307z"/></svg><svg width="32" height="32" viewBox="0 0 32 32" y="2427"><path stroke="#449FDB" d="M0 0"/><path d="M27.667 16.468l-.273-.035c-.22 0-.44.066-.655.187-.07-.668-.117-1.33-.117-1.975 0-3.09-.218-6.596-1.836-9.16C23.137 2.87 20.263 1.6 16 1.6S8.86 2.87 7.21 5.485c-1.617 2.564-1.835 6.07-1.835 9.16 0 .645-.046 1.308-.116 1.975-.216-.12-.437-.187-.656-.187l-.273.035c-.966.25-1.373 1.792-.926 3.513.237.914.667 1.677 1.165 2.146-.034.497-.046.985-.027 1.464.066 1.667.52 2.964 1.385 3.964.813.94 1.978 1.627 3.56 2.097 1.695.504 3.824.75 6.51.75s4.815-.246 6.51-.75c1.583-.47 2.748-1.156 3.56-2.097.866-1 1.318-2.298 1.385-3.964.02-.48.007-.967-.026-1.464.5-.47.928-1.233 1.165-2.146.448-1.72.04-3.262-.927-3.513zm-5.138-1.244c2.27-.183 2.522-2.61 2.66-2.75.08-.077.364.565.364 2.728 0 .32-.016.723-.046 1.037H6.493c-.03-.315-.046-.696-.046-1.017H22.53zm-3.03 1.943c.052.535.505.954 1.053.954.55 0 1.003-.42 1.053-.958l1.897.002-.187 2.127H18.92l-.964-2.113 1.544-.01zm-9.106-.004c.05.537.503.96 1.053.96.548 0 1-.42 1.053-.955l1.544.01-.965 2.113H8.683l-.188-2.126h1.897zm-6.47 2.683c-.185-.71-.216-1.408-.086-1.97.114-.493.343-.817.63-.892l.138-.017c.18 0 .382.085.587.247-.073.59-.158 1.18-.243 1.762-.12.83-.24 1.636-.317 2.42-.284-.38-.542-.906-.71-1.55zm15.027 4.88c0 .64-.518 1.158-1.157 1.158h-.468l-.056-.004c-.8 0-1.27-.806-1.27-.806s-.47.806-1.27.806l-.055.004h-.492c-.64 0-1.158-.52-1.158-1.158v-.044c0-.64.52-1.158 1.158-1.158h3.61c.64 0 1.157.52 1.157 1.158v.044zm.31-2.676c-.17.018-6.35.018-6.52 0-.146-.015-1.712 2.732-3.903-.028-1.027-1.42-1.837-3.044-2.194-4.87h1.1l.204 2.717h5.64l1.32-2.718h2.184l1.322 2.717h5.64l.202-2.718h1.1c-.355 1.827-1.166 3.45-2.193 4.87-2.19 2.76-3.755.012-3.903.028zm8.817-2.2c-.167.644-.425 1.168-.71 1.55-.078-.785-.195-1.592-.317-2.424-.085-.582-.17-1.172-.243-1.762.205-.16.408-.247.587-.247l.14.018c.285.074.515.4.628.894.13.56.1 1.26-.085 1.97zm-10.2 4.34h-3.756c-.122 0-.222.1-.222.224s.1.223.223.223h3.758c.123 0 .223-.1.223-.223s-.1-.223-.222-.223z"/></svg><svg width="32" height="32" viewBox="0 0 32 32" y="2459"><path stroke="#449FDB" d="M0 0"/><path d="M31.22 28.77L16.965 3.76c-.197-.345-.566-.557-.966-.557s-.768.213-.966.558L.784 28.77c-.195.34-.19.755.007 1.09s.564.543.958.543h28.504c.39 0 .757-.206.957-.542.197-.335.2-.75.01-1.09zm-13.46-1.567h-3.52v-3.2h3.52v3.2zm0-5.6h-3.52v-9.6h3.52v9.6z"/></svg><svg width="29.076" height="24.832" viewBox="0 0 29.076 24.832" y="2491"><path fill="#2788B5" d="M17.312 24.104c.3-.377.654-.79 1.076-1.27l.21-.243c.26-.302.48-.536.69-.76.416-.45.773-.84 1.436-1.733.646-.88 1.062-1.54.992-2.676-.033-.583-.058-.983-.438-1.452-.23-.283-.65-.693-1.104-1.127-.485-.458-.91-.897-1.483-1.5-.574-.6-1.316-2.12-1.316-2.12-.224-.52-.636-1.56-.75-2.54L14.936.02h-4.812L7.768 10.938 5.682.018H0L5.125 24.83H9.91l2.392-10.742 2.116 10.743h2.222l.674-.723v-.004h-.002z"/><path fill="#FA930D" d="M27.328 1.483C27.83.9 28.244.43 28.585 0H20.95c-.452.58-1.375 1.698-1.9 2.688-.696 1.312-1.27 2.3-1.324 4.715l.024.777c0 1.152.82 2.846.82 2.846.133.3.567.935.848 1.32h-.006l.15.2c.82.942 2.064 1.995 2.613 2.67.646.793.66 1.537.695 2.115.093 1.564-.54 2.51-1.22 3.435-1.022 1.396-1.395 1.652-2.182 2.566-.502.583-.916 1.056-1.258 1.48h7.89c.462-.594 1.12-1.688 1.646-2.688.694-1.312 1.27-2.3 1.323-4.713l-.025-.78c0-1.152-.823-2.845-.823-2.845-.13-.3-.562-.933-.845-1.32h.007l-.148-.2-2.616-2.672c-.646-.794-.66-1.54-.692-2.116-.095-1.563.538-2.51 1.217-3.433 1.027-1.387 1.394-1.648 2.183-2.56"/></svg><svg width="29.129" height="29.488" viewBox="0 0 29.129 29.488" y="2516"><path fill="#FA930D" d="M20.932 12.038c-1.312-3.562-5.27-5.383-8.828-4.066h-.114v.125c.606 1.637-.23 3.45-1.87 4.057-.743.27-1.518.234-2.198-.023-.508 1.45-.533 3 0 4.622 1.312 3.6 5.2 5.4 8.803 4.07 3.7-1.225 5.61-5.225 4.21-8.78l-.003-.004z"/><path fill="#136BA2" d="M13.328 11.277c-1.734.638-2.62 2.562-1.984 4.294.642 1.802 2.6 2.6 4.202 2 1.73-.644 2.613-2.563 1.98-4.292-.544-1.683-2.394-2.683-4.19-2h-.008zM29.118 5.218c0-.296-.12-.576-.332-.787-.21-.208-.48-.32-.787-.316-.31 0-.58.116-.79.327l-2.365 2.376c-.143-.202-.3-.394-.457-.586l2.29-2.313c.21-.207.32-.486.32-.785s-.114-.578-.32-.79c-.214-.206-.49-.32-.788-.32-.3 0-.58.118-.794.398L22.82 4.71c-.19-.16-.38-.31-.587-.462l2.336-2.344c.206-.212.323-.492.323-.787 0-.297-.127-.576-.332-.793C24.353.117 24.07 0 23.775 0c-.293 0-.582.125-.79.332l-2.68 2.802c-3.09-1.567-6.792-1.91-10.292-.62-.327.126-.647.27-.965.413L2.2 1.582l3.573 3.602c-.263.24-.507.497-.75.755L1.46 2.42 2.872 9.11c-1.447 3.022-1.725 6.608-.47 10 .196.6.4 1 .6 1.503l-2.68 2.7c-.21.21-.327.488-.323.79 0 .195.2.6.398.8.21.2.4.397.803.33.3 0 .577-.124.792-.33l2.316-2.34c.154.194.4.395.4.56l-2.277 2.2c-.208.21-.323.493-.32.79 0 .2.2.6.4.787.214.195.4.396.8.396.297 0 .57-.11.785-.328l2.297-2.31c.2.198.4.395.602.456L4.627 27.51c-.21.21-.324.492-.32.79 0 .2.2.603.4.786.213.2.398.4.8.4.292 0 .573-.12.786-.33L9.05 26.37c3.022 1.4 6.6 1.802 10 .458.935-.342 1.786-.79 2.587-1.31.574.397 1 .802 1 .817.154.2.2.598-.055.945l-.303.38c-.187.228-.263.52-.218.798.03.2.197.604.398.734.232.2.602.2.8.23.292-.038.56-.187.74-.41l.392-.49c.953-1.21.46-2.92-.582-3.74l-.66-.52c.896-.815 1.668-1.745 2.3-2.765.343.2.603.4.603.455.16.2.2.598-.055.943l-.29.38c-.19.23-.276.52-.23.8.03.2.197.604.398.742.23.2.602.2.8.227.298-.03.556-.18.737-.41l.387-.486c.957-1.21.47-2.924-.568-3.742l-.88-.69c1.23-2.897 1.407-6.26.23-9.454-.146-.402-.32-.8-.508-1.184l2.74-2.77c.182-.515.312-.714.312-1.096h-.014l.006.006zM5.972 17.595C4.237 12.898 6.64 7.68 11.338 5.95c4.702-1.735 10 .6 11.602 5.372 1.732 4.7-.664 9.916-5.37 11.6-4.64 1.678-9.834-.72-11.633-5.363l.035.035z"/></svg></svg>