<?xml version="1.0" encoding="utf-8"?>
<!-- Generated by IcoMoon.io -->
<!DOCTYPE svg PUBLIC "-//W3C//DTD SVG 1.1//EN" "http://www.w3.org/Graphics/SVG/1.1/DTD/svg11.dtd">
<svg version="1.1" xmlns="http://www.w3.org/2000/svg" xmlns:xlink="http://www.w3.org/1999/xlink" width="32" height="32" viewBox="0 0 32 32">
<g id="icomoon-ignore">
	<line stroke-width="1" x1="" y1="" x2="" y2="" stroke="#449FDB" opacity=""></line>
</g>
	<path d="M7.51 10.177l8.49-8.49 8.49 8.49q1.729 1.729 2.62 3.938t0.891 4.552q0 2.354-0.891 4.552t-2.62 3.927-3.938 2.625-4.552 0.896-4.552-0.896-3.938-2.625q-1.719-1.729-2.615-3.932t-0.896-4.547 0.896-4.552 2.615-3.938zM22.604 12.063l-6.604-6.604-6.604 6.604q-1.333 1.344-2.031 3.063t-0.698 3.542 0.693 3.536 2.036 3.057 3.063 2.042 3.542 0.698q1.833 0 3.547-0.698t3.057-2.042 2.036-3.052 0.693-3.542q0-1.823-0.693-3.542t-2.036-3.063z" fill="#000000"></path>
</svg>
