<svg baseProfile="tiny" xmlns="http://www.w3.org/2000/svg" preserveAspectRatio="xMinYMin meet" viewBox="0 0 42 492" width="42" height="492"><g><path fill="#FA930D" d="M33.448 8.018c-.191 1.557-.777 2.862-1.703 3.862-.129.127-.238.25-.427.4.146 0 .601.201.8.258.555.201 1.2.801 1.2 1.654 0 1.09-1.062 1.936-2.723 2-1.488 0-2.132-.406-2.558-.977-.218-.293-.228-.418-.56-.65-.377-.275-1.146-.232-1.146-.232h-2.854s-.771-.02-.974.346c-.215.357-.262.582-.086 1.004.988 2.604 3.399 4.199 7.601 4.199 6.601 0 8.304-2.99 8.304-6.154-.08-2.865-1.673-4.866-4.871-5.706l-.003-.004z"/><path fill="#FA930D" d="M23.771 8.758c3.31 0 3.541-.684 3.541-1.811 0-.238-.024-.443-.062-.63l-.047-.254-.019-.043h.004l-.004-.347c0-.924.476-2.219 3.021-2.219 2.148 0 2.799.601 3.199 1.607.107.199.197.602.398.85.322.398 1 .398 1 .379h1.791l1.188-.332c.281-.275.401-.542.328-.958-.5-3.141-2.969-5-8.02-5-5.279 0-7.913 2.713-7.913 6.154 0 1 .2 1.801.802 2.617h.785v-.02l.008.007z"/><path fill="#74838C" d="M32.771 6.877c0-.291-.021-.572-.041-.848h-.004c-.041-.324-.078-.642-.147-.937-.25-.636-.802-.878-2.369-.878-2.276 0-2.276 1.103-2.276 1.464v.348h-.009c.063.201.199.601.199.929 0 2.07-1.375 2.559-4.295 2.559h-2.373v-3.57l.028-.021c.062-2.398 1.267-4.291 3.3-5.439h-9.625l-4.623 14.061-4.457-14.041h-6.079v18.774h4.523v-12.751l4 12.75h3.9l4.23-12.543v12.543h4.793v-5.895h4.41l.729-.02.207-.025.492-.057.211-.033.625-.123.064-.021.521-.152.205-.07.375-.15.188-.082.484-.264c1.826-1.1 2.893-2.895 2.893-5.49l-.079-.018z"/></g><g transform="translate(0 24)"><path fill="#9A3965" d="M22.376 18.09c.688-1.486 1.076-3.131 1.076-4.875 0-1.743-.39-3.396-1.076-4.886-2.506.216-4.496 2.311-4.496 4.875 0 2.577 1.995 4.671 4.496 4.886"/><path fill="#9A3965" d="M7.883 13.21c0-4.67 2.166-8.851 5.554-11.589-.563-.103-1.129-.143-1.714-.143-6.477.003-11.723 5.243-11.723 11.723 0 6.479 5.246 11.723 11.723 11.723.585 0 1.16-.052 1.714-.134-3.388-2.741-5.554-6.919-5.554-11.602"/><path fill="#FA930D" d="M22.955.01h-.014l-.132-.01c-7.289 0-13.223 5.935-13.223 13.224 0 7.286 5.934 13.21 13.223 13.21l1.058-.012.122.012c1.828 0 3.296-1.479 3.296-3.297 0-1.812-1.468-3.295-3.296-3.295l-.11.012c-.062-.012-1.065-.012-1.065-.012-3.653 0-6.631-2.967-6.631-6.618 0-3.666 2.978-6.631 6.631-6.631l.146.01c.082-.021 1.035-.01 1.035-.01 1.827 0 3.295-1.479 3.295-3.295 0-1.817-1.468-3.296-3.295-3.296l-1.04.008"/></g><g transform="translate(0 54)"><path fill="#FA930D" d="M17.064 0h-1.246v25.719h1.246c7.104 0 12.861-5.756 12.861-12.857-.002-7.19-5.675-12.794-12.875-12.858l.014-.004zm.947 15.78s-.211-3.658.148-4.297c.535-.951 2.84-.479 2.801.963.039 2.021-2.908 3.422-2.908 3.334h-.041z"/><path fill="#556780" d="M13.426 11.481c-.539-.952-2.836-.479-2.836.963 0 2 3 3.396 3 3.334-.019.088.264-3.711-.137-4.297h-.027z"/><path fill="#556780" d="M12.1 19.459c-3.303-.375-5.885-3.195-5.885-6.604 0-3.438 2.615-6.27 5.957-6.613l.147-.033c1.483-.236 2.617-1.52 2.617-3.062 0-1.711-1.388-3.103-3.103-3.103h-.321c-6.463.681-11.512 6.16-11.512 12.799 0 6.604 5 12.201 11.601 12.795h.2c1.709 0 3.103-1.391 3.103-3.104.037-1.689-1.252-2.893-2.853-3.094l.049.019z"/></g><g transform="translate(0 84)"><path fill="#2788B5" d="M17.312 24.104c.301-.377.654-.789 1.076-1.271l.211-.242c.26-.303.479-.537.688-.762.417-.449.774-.838 1.437-1.732.646-.881 1.062-1.541.992-2.676-.033-.584-.058-.984-.438-1.453-.229-.283-.651-.693-1.104-1.127-.485-.459-.909-.898-1.483-1.5-.575-.6-1.317-2.12-1.317-2.12-.224-.52-.636-1.561-.75-2.54l-1.688-8.661h-4.812l-2.356 10.918-2.086-10.921h-5.682l5.125 24.814h4.785l2.392-10.743 2.116 10.743h2.222l.674-.724v-.004h-.002z"/><path fill="#FA930D" d="M27.328 1.483c.502-.582.916-1.054 1.257-1.483h-7.634c-.453.58-1.376 1.698-1.902 2.688-.695 1.312-1.269 2.299-1.323 4.715l.024.777c0 1.152.821 2.846.821 2.846.132.3.566.935.847 1.319h-.006l.149.2c.82.943 2.065 1.996 2.614 2.671.646.793.66 1.537.695 2.115.093 1.563-.541 2.51-1.22 3.434-1.022 1.396-1.395 1.652-2.182 2.566-.502.582-.916 1.055-1.258 1.479h7.889c.463-.594 1.121-1.688 1.647-2.688.694-1.312 1.271-2.299 1.323-4.713l-.024-.779c0-1.152-.823-2.845-.823-2.845-.129-.3-.562-.933-.845-1.321h.007l-.148-.199-2.616-2.672c-.646-.794-.66-1.539-.692-2.116-.095-1.563.538-2.509 1.217-3.433 1.027-1.387 1.394-1.648 2.183-2.561"/></g><g transform="translate(0 114)"><path fill="#FA930D" d="M27.969 20.689c-.293-.472-3.062-4.252-3.293-4.707l-.082-.16.146-.106c2.375-1.684 3.803-4.416 3.803-7.317v-.244c0-2.024-.705-3.958-1.941-5.304-1.445-1.578-3.521-2.5-5.896-2.67v5.856c1.25.399 2 1.601 2 3.038 0 1.727-1.332 2.636-2.459 3.306l-.441.271c-1 .666-1.508 1.6-1.508 2.8 0 1 .396 1.8.396 1.924l.39.681 4.059 5.812v.101l.603.804c.332.396.803.801 1.397.897.802.2 1.603 0 2.339-.418.631-.428 1.008-.97 1.146-1.71l.041-.48c.155-.516-.004-1.516-.604-2.367h-.095v-.007h-.001z"/><path fill="#B7334F" d="M19.398.116c-.729.058-1.455.196-2.123.424v-.01c-.061.026-.121.046-.176 0l-.613.24-.229.109-.594.305v.008c-.479.285-.928.601-1.346.961-1.525-1.335-3.503-2.153-5.686-2.153-4.771 0-8.631 3.864-8.631 8.63v16.48h5.863l.008-5.57h.016v-2.908h-.016l.004-1.346.012-6.656h-.004l-.008-.03c0-1.521 1.238-2.758 2.762-2.758 1.507 0 2.801 1.2 2.801 2.736v.029h-.004v6.61h-.012l.012 9.871h5.875l.008-10.024.01-6.459h-.006v-.052l.021-.214v-.142c.156-1.137 1.005-2.042 2.11-2.292l-.054-5.789z"/></g><g transform="translate(0 144)"><path fill="#FA930D" d="M19.253 7.354h-.105c-2.33 0-4.229 1.562-4.77 3.661h-.027c-.369 1.941-2.072 3.414-4.121 3.414-2.317 0-4.201-1.881-4.201-4.2 0-.154.021-.309.041-.457l.011-.101.028-.182c.836-3.971 3.466-7.282 6.988-9.086-.909-.255-1.873-.403-2.868-.403-5.354 0-9.731 4.108-10.19 9.345l-.039.109v14.938h6.052v-4.827c1.282.578 2.688.896 4.182.896 5.649 0 10.238-4.578 10.238-10.231 0-1.003-.156-1.97-.429-2.874l-.79-.002z"/><path fill="#4F7F4B" d="M20.706 1.92c0 .438.357.786.797.786.43 0 .787-.351.787-.786 0-.438-.357-.786-.787-.786-.44 0-.797.348-.797.786m3.842 2.926c-.557.887-1.543 1.474-2.666 1.474h-2.806c-2.771 0-5.076 1.911-5.713 4.479l-.021.03c-.289 1.493-1.597 2.578-3.115 2.578-1.742 0-3.166-1.428-3.166-3.179 0-.188.031-.396.08-.616 1.192-5.49 6.082-9.611 11.934-9.611h2.807c1.74 0 3.164 1.414 3.164 3.165l-.039.378c-.197.107-.406.219-.627.316-1.232.606-3.006.229-3.949.03v.029c.197.349.615.747 1.094.956.945.315 1.636.338 2.738.061l.285-.09m.498 16.433c0 1.752-1.424 3.165-3.166 3.165h-2.808c-3.065 0-5.854-1.14-7.992-2.996 2.826-.209 5.363-1.468 7.226-3.388.25.029.508.054.771.054.061 0 2.768.011 2.807 0 1.738 0 3.162 1.421 3.162 3.165"/></g><g transform="translate(0 174)"><path fill="#607FAB" d="M.127 22.007v.086c.019 2.4 2 4.2 4.2 4.18 2.314-.02 4.198-1.912 4.182-4.228l-.025-4.626-8.357 4.588z"/><path fill="#607FAB" d="M25.563 21.867c-.082-.9-.475-1.736-1.104-2.38l-.01-.022-7.61-6.626-7.298 3.996 9.552 8.396c.716.604 1.601 1 2.601.95l.344-.02c1.042-.101 1.98-.598 2.652-1.404.646-.884.963-1.884.963-2.896l-.09.006z"/><path fill="#607FAB" d="M8.433 4.867l-.004-.446.004-.105c-.009-2.322-1.918-4.209-4.238-4.189-2.319.021-4.203 1.914-4.195 4.231l.032 5.153 8.401-4.644z"/><path fill="#FA930D" d="M.055 11.327l19.613-10.849c.574-.308 1.208-.474 1.84-.478.41-.002.802 0 1.2.2 2.063.6 3.2 2.8 2.602 4.938-.271.864-.828 1.602-1.574 2.095l-.016.02-.238.136-23.335 12.8-.09-8.854-.002-.008z"/></g><g transform="translate(0 204)"><path fill="#5E64B2" d="M16.255 24.803h2.259l.672-.722c.307-.376.647-.793 1.074-1.271l.203-.239.689-.768c.416-.446.783-.833 1.436-1.735.648-.872 1.064-1.533.996-2.677-.027-.579-.062-.976-.438-1.453-.231-.271-.648-.688-1.105-1.113-.487-.473-.903-.915-1.482-1.52-.566-.6-1.312-2.125-1.312-2.125-.268-.59-.783-1.909-.783-2.997l-.021-.742v-.081h-8.426v6.06c.427-.549 1.047-.731 1.626-.731.937 0 1.736.554 1.736 1.764v6.198h-2.188v-5.461c0-.483-.201-.712-.58-.712-.417 0-.6.27-.6.712v5.461h-2.196v-13.288h-7.815v17.44h1.586v-11.903h1.974v.929c.457-.782 1.146-1.144 1.789-1.144 1.116 0 1.909.864 1.909 2.435v3.548c0 1.321-.896 2.206-1.909 2.206-.592 0-1.09-.274-1.576-.915v4.85h10.288v-11.905h1.974v.926c.467-.782 1.156-1.144 1.787-1.144 1.131 0 1.91.864 1.91 2.435v3.548c0 1.321-.883 2.206-1.91 2.206-.59 0-1.076-.274-1.563-.915l-.004 4.843z"/><path fill="#5E64B2" d="M17.546 18.222v-2.797c0-.619-.214-.945-.649-.945-.428 0-.642.326-.642.945v2.797c0 .619.214.904.642.904.435.002.649-.283.649-.904"/><path fill="#5E64B2" d="M5.073 18.222v-2.797c0-.619-.226-.945-.65-.945s-.649.326-.649.945v2.797c0 .619.226.904.649.904.425.001.65-.283.65-.904"/><path fill="#FA930D" d="M29.186 1.483c.51-.58.926-1.047 1.265-1.482h-7.625c-.457.58-1.386 1.696-1.9 2.692-.7 1.312-1.271 2.297-1.332 4.707l.03.783c0 1.147.82 2.833.82 2.833.136.31.562.938.847 1.322h-.013l.152.203 2.611 2.674c.648.792.66 1.534.701 2.114.092 1.555-.539 2.5-1.223 3.426-1.024 1.396-1.396 1.656-2.176 2.562-.511.575-.914 1.058-1.263 1.479h7.879c.47-.6 1.117-1.688 1.656-2.684.688-1.312 1.261-2.298 1.319-4.719l-.028-.771c0-1.147-.822-2.847-.822-2.847-.122-.295-.562-.927-.844-1.322h.01l-.149-.193c-.822-.94-2.062-2.003-2.611-2.674-.643-.793-.66-1.533-.701-2.112-.092-1.563.539-2.513 1.223-3.428 1.025-1.394 1.39-1.648 2.174-2.563"/></g><g transform="translate(0 234)"><path fill="#136BA2" d="M12.795.786l-.28.009-.611 3.528c.523.513 3.208 3.144 4.232 4.15 1.646 1.092 2.76 2.951 2.76 5.082 0 3.369-2.729 6.103-6.1 6.094-2.884 0-5.298-2.008-5.931-4.696l-.659-1.336s-1.468-2.978-1.873-3.796l-3.604-.5c-.472 1.319-.729 2.761-.729 4.261 0 7.055 5.709 12.764 12.767 12.797 7.067 0 12.797-5.73 12.797-12.797.028-7.011-5.728-12.783-12.78-12.771l.011-.025z"/><path fill="#FA930D" d="M7.2 13.146l2.181-4.359 4.747-.704-3.464-3.336.834-4.747-4.297 2.243-4.234-2.243.771 4.746-3.464 3.336 4.812.704 2.114 4.36z"/></g><g transform="translate(0 264)"><path fill="#136BA2" d="M23.468 13.202c0 2.199 1.8 4 4 3.919 2.158 0 3.923-1.758 3.923-3.919 0-2.162-1.765-3.922-3.923-3.922-2.237 0-4.016 1.801-4.016 3.922h.016z"/><path fill="#FA930D" d="M27.562.021h-.016l-.126-.02c-7.271 0-13.192 5.914-13.192 13.182 0 7.271 5.925 13.201 13.201 13.201h.325c1.812 0 3.29-1.477 3.29-3.293 0-1.807-1.468-3.285-3.29-3.285h-.268c-3.642 0-6.606-2.967-6.606-6.611 0-3.648 2.964-6.617 6.606-6.617h.325c1.815 0 3.287-1.472 3.287-3.289s-1.465-3.287-3.287-3.287c-.168.069-.164.069-.164.021h-.085z"/><path fill="#136BA2" d="M12.39.001h-9.018c-.91-.022-1.776.317-2.414.967-.62.621-.958 1.455-.958 2.4 0 .799.396 1.799 1 2.334.642.6 1.6 1 2.396.961l1.2.002v19.8h6.604v-19.749h1.188c.914 0 1.772-.312 2.422-.959 1.288-1.289 1.288-3.375 0-4.664-.66-.819-1.56-1.02-2.356-1.084l-.064-.008z"/></g><g transform="translate(0 294)"><path fill="#FA930D" d="M0 13.837c0 2.201 1.8 4 4 3.949 2.2-.053 3.943-1.777 3.943-3.949s-1.771-3.937-3.943-3.937-4 1.766-4 3.937z"/><path fill="#136BA2" d="M23.516 0c-2.164 0-3.457 1.746-3.457 4.666v18.01c0 3 1.199 4.604 3.399 4.666 2.2.066 3.458-1.746 3.458-4.666v-17.949c.055-2.981-1.24-4.727-3.4-4.727z"/><path fill="#136BA2" d="M17.46.378h-14.155v.008c-1.843.072-3.305 1.582-3.305 3.439 0 1.801 1.4 3.397 3.4 3.397v.028h7.244v6.277l-.014.147h.021v.199c0 3.65-2.973 6.621-6.623 6.621l-.176-.01-.022.02-.296-.012c-1.902 0-3.446 1.541-3.446 3.442 0 2 1.601 3.396 3.399 3.439l.313-.01h.011l.197.008c7.45 0 13.514-6.059 13.514-13.506v-2.361c-.062-.022-.062-10.815-.062-11.126z"/></g><g transform="translate(0 327)"><path fill="#9A3965" d="M0 10.215v17.356h6.534l.004-16.955c0-1.111.688-4.283 3.731-4.283 1.873 0 3.231 1.461 3.231 3.478 0 1.893-1.479 2.896-2.716 3.621l-.492.296c-1.106.732-1.672 1.759-1.672 3.036 0 1.064.396 1.946.477 2.113l.431.748 4.494 6.373.074.111.604.871c.356.467.851.813 1.554.987.884.222 1.87.021 2.58-.457.701-.469 1.109-1.065 1.267-1.88l.053-.536c-.002-.618-.281-1.666-.94-2.554-.329-.511-3.395-4.662-3.646-5.158l-.09-.178.165-.116c2.634-1.845 4.208-4.844 4.208-8.021v-.272c0-2.219-.781-4.338-2.146-5.813-1.78-1.923-4.42-2.982-7.434-2.982-5.759 0-10.271 4.486-10.271 10.215"/><path fill="#FA930D" d="M26.268 16.203l-3.252.002.729-3.667 3.253-.004-.73 3.669zm8.207-15.732h-5.086l-1.552 7.817-3.254.004 1.554-7.821h-5.084l-.669 3.508c.729 1.444 1.134 3.108 1.134 4.818v.273c0 3.247-1.461 6.271-3.856 8.438.499.707 1.171 1.645 1.657 2.317 0 0 1.229 1.718 1.231 1.726.515.691.843 1.438 1.037 2.105l.586-3.212 3.254-.002-1.422 7.169h5.084l1.423-7.172 3.385-.008.843-4.24-3.384.003.729-3.667 3.387-.003.842-4.244-3.386.003 1.547-7.812z"/></g><g transform="translate(0 360)"><path fill="#F3972A" d="M8.536 16.811c0 2.09 1.706 3.797 3.797 3.797 2.09 0 3.797-1.707 3.797-3.797 0-2.103-1.707-3.798-3.797-3.798-2.091.002-3.797 1.697-3.797 3.798"/><path fill="#9A3965" d="M27.917 5.419c-.627-.639-1.463-.964-2.356-.949h-.931v-1.257c0-.856-.337-1.659-.938-2.274-.603-.604-1.416-.939-2.273-.939-.87 0-1.672.337-2.288.938-.604.617-.938 1.418-.938 2.274l-.013 13.561c0 3.217-2.625 5.84-5.854 5.855-.406 0-.803-.047-1.187-.115-2.706-.561-4.668-2.973-4.668-5.748.012-3.216 2.646-5.841 5.862-5.855h3.899v-6.454h-3.912c-3.298 0-6.387 1.289-8.709 3.609-2.335 2.321-3.611 5.422-3.611 8.709 0 1.162.163 2.312.487 3.438l.162.521c.014.012.197.545.197.545l.196.434-.012.011.025.045.22.441h-.011l.011.031.244.453.021.047.269.453.256.407.047.078.255.352.094.115-.035-.035.325.396-.06-.047.06.066.324.396.384.406.79.754.383.312.257.195.161.115.279.195.141.104.221.141.223.143.291.176.149.08.383.195-.06-.021.15.082.324.148.141.068.351.141.149.068.35.129.162.061.35.113.141.047.358.096.082.02.081.014v.014l.396.094h.046v.012c.849.178 1.72.27 2.564.27 6.794 0 12.312-5.539 12.312-12.332v-5.855h.916c.896.035 1.729-.301 2.369-.938 1.252-1.252 1.252-3.296-.002-4.549"/><path fill="#FA930D" d="M8.536 16.811c0 2.09 1.706 3.797 3.797 3.797 2.09 0 3.797-1.707 3.797-3.797 0-2.103-1.707-3.798-3.797-3.798-2.091.002-3.797 1.697-3.797 3.798"/></g><g transform="translate(0 393)"><path fill="#9A3965" d="M18.689 14.381c0 1.687-1.361 3.041-3.045 3.041-1.682 0-3.041-1.365-3.041-3.041s1.359-3.047 3.041-3.047c1.686-.053 3.018 1.346 3.018 2.947"/><path fill="#9A3965" d="M20.835 3.961h-.172v6.34h.172c2.262 0 4.199 1.799 4.199 4.103 0 2.264-1.841 4.073-4.103 4h-8.75v7.633h.012c.054 2 1.6 3.396 3.6 3.459 1.959 0 3.549-1.59 3.549-3.551l-.008-.191v-.986h1.646c5.768 0 10.436-4.672 10.436-10.438-.146-5.649-4.754-10.45-10.557-10.45"/><path fill="#FA930D" d="M10.443 24.782h.172v-6.347h-.172c-2.266 0-4.094-1.836-4.094-4.104 0-2.26 1.828-4.072 4.094-4.072h8.742v-6.8h-.012c-.047-1.916-1.609-3.459-3.542-3.459-1.958 0-3.552 1.6-3.552 3.555v.355h-1.641c-5.762 0-10.438 4.66-10.438 10.42.004 5.725 4.658 10.521 10.458 10.521"/></g><g transform="translate(0 426)"><path fill="#FA930D" d="M22.039 0c-2.219 0-4.384.764-6.121 2.157-1.736-1.393-3.901-2.157-6.12-2.157-5.402 0-9.798 4.396-9.798 9.798v16.514c0 2.034 1.654 3.688 3.687 3.688s3.687-1.653 3.687-3.688l.002-10.269c-2.5-.979-4.273-3.407-4.273-6.255 0-3.714 3.009-6.722 6.721-6.722s6.721 3.008 6.721 6.722c0 2.868-1.798 5.308-4.326 6.274l.001 10.262.011.205.018.211h.007c.213 1.845 1.784 3.26 3.663 3.26 1.879 0 3.45-1.415 3.663-3.26h.035v-16.513h.004v-.428c0-1.335 1.086-2.421 2.42-2.421 1.333 0 2.42 1.086 2.42 2.424l.002 16.511c0 2.033 1.654 3.688 3.688 3.688 2.035 0 3.688-1.654 3.688-3.688v-16.514c-.001-5.403-4.397-9.799-9.8-9.799z"/><circle fill="#9A3965" cx="9.824" cy="9.787" r="4.289"/></g><g transform="translate(0 459)"><path fill="#FA930D" d="M20.932 12.038c-1.312-3.562-5.27-5.383-8.828-4.066h-.114v.125c.606 1.637-.23 3.451-1.871 4.057-.742.271-1.517.234-2.197-.023-.508 1.449-.533 3 0 4.621 1.312 3.6 5.201 5.4 8.803 4.07 3.699-1.225 5.609-5.225 4.211-8.781l-.004-.003z"/><path fill="#136BA2" d="M13.328 11.277c-1.734.638-2.621 2.562-1.984 4.294.642 1.801 2.601 2.6 4.202 2 1.729-.645 2.613-2.564 1.979-4.293-.543-1.683-2.393-2.683-4.19-2.001h-.007z"/><path fill="#136BA2" d="M29.118 5.218c0-.296-.119-.576-.332-.787-.209-.209-.48-.32-.787-.317-.309 0-.578.116-.789.327l-2.365 2.375c-.143-.202-.299-.394-.457-.586l2.291-2.313c.209-.207.32-.486.32-.785s-.115-.578-.32-.79c-.215-.206-.492-.321-.789-.319-.3 0-.579.117-.794.397l-2.277 2.291c-.188-.161-.379-.312-.586-.463l2.336-2.344c.207-.212.324-.492.324-.787 0-.297-.127-.576-.332-.793-.209-.207-.492-.324-.787-.324-.293 0-.582.125-.791.332l-2.68 2.802c-3.088-1.567-6.791-1.909-10.291-.62-.327.126-.647.271-.965.413l-6.846-1.345 3.572 3.602c-.263.241-.507.497-.75.755l-3.564-3.517 1.414 6.688c-1.447 3.022-1.725 6.608-.471 10.001.197.6.4 1 .602 1.502l-2.68 2.699c-.211.211-.328.489-.324.791 0 .195.201.6.398.801.211.199.4.396.803.328.299 0 .576-.123.791-.33l2.316-2.34c.154.195.4.396.4.561l-2.277 2.201c-.209.209-.324.492-.32.789 0 .201.199.6.398.787.215.195.4.396.801.396.297 0 .57-.109.785-.328l2.297-2.311c.199.199.4.396.602.457l-2.367 2.396c-.209.209-.324.492-.319.789 0 .201.198.604.399.787.213.199.398.4.799.4.293 0 .574-.119.787-.33l2.758-2.785c3.021 1.4 6.6 1.801 10 .457.934-.342 1.785-.789 2.586-1.309.574.396 1 .801 1 .816.154.199.199.598-.055.945l-.303.379c-.186.229-.262.52-.217.799.029.201.197.604.398.734.232.201.602.201.799.229.293-.037.561-.186.74-.41l.393-.488c.953-1.211.459-2.922-.582-3.74l-.66-.521c.896-.815 1.668-1.745 2.301-2.765.342.201.602.4.602.455.16.199.199.598-.055.943l-.291.381c-.189.229-.275.52-.229.799.029.201.197.604.398.742.229.201.602.201.799.227.299-.029.557-.18.738-.41l.387-.486c.957-1.211.469-2.924-.568-3.742l-.879-.689c1.229-2.898 1.406-6.26.229-9.455-.146-.402-.32-.801-.508-1.184l2.74-2.771c.182-.514.312-.713.312-1.095h-.014l.006.006zm-23.146 12.377c-1.735-4.697.668-9.915 5.366-11.646 4.702-1.734 10 .6 11.602 5.373 1.732 4.701-.664 9.916-5.371 11.6-4.638 1.678-9.833-.721-11.632-5.363l.035.036z"/></g></svg>