<?xml version="1.0" encoding="utf-8"?>
<!-- Generator: Adobe Illustrator 14.0.0, SVG Export Plug-In . SVG Version: 6.00 Build 43363)  -->
<!DOCTYPE svg PUBLIC "-//W3C//DTD SVG 1.1//EN" "http://www.w3.org/Graphics/SVG/1.1/DTD/svg11.dtd">
<svg version="1.1" id="Layer_1" xmlns="http://www.w3.org/2000/svg" xmlns:xlink="http://www.w3.org/1999/xlink" x="0px" y="0px"
	 width="27.289px" height="26.434px" viewBox="0 0 27.289 26.434" enable-background="new 0 0 27.289 26.434" xml:space="preserve">
<g id="dotcover">
	<path id="path4030" fill="#9A3965" d="M22.376,18.09c0.688-1.486,1.076-3.131,1.076-4.875c0-1.743-0.39-3.396-1.076-4.886
		c-2.506,0.216-4.496,2.311-4.496,4.875C17.88,15.781,19.875,17.875,22.376,18.09"/>
	<path id="path4032" fill="#9A3965" d="M7.883,13.21c0-4.67,2.166-8.851,5.554-11.589c-0.563-0.103-1.129-0.143-1.714-0.143
		C5.246,1.481,0,6.721,0,13.201c0,6.479,5.246,11.723,11.723,11.723c0.585,0,1.16-0.052,1.714-0.134
		c-3.388-2.741-5.554-6.919-5.554-11.602"/>
	<path id="path4034" fill="#FA930D" d="M22.955,0.01h-0.014L22.809,0C15.52,0,9.586,5.935,9.586,13.224
		c0,7.286,5.934,13.21,13.223,13.21c0.051,0,1.058-0.012,1.058-0.012c0.082,0.012,0.122,0.012,0.122,0.012
		c1.828,0,3.296-1.479,3.296-3.297c0-1.812-1.468-3.295-3.296-3.295c-0.04,0-0.11,0.012-0.11,0.012
		c-0.062-0.012-1.065-0.012-1.065-0.012c-3.653,0-6.631-2.967-6.631-6.618c0-3.666,2.978-6.631,6.631-6.631
		c0.092,0,0.146,0.01,0.146,0.01c0.082-0.021,1.035-0.01,1.035-0.01c1.827,0,3.295-1.479,3.295-3.295
		c0-1.817-1.468-3.296-3.295-3.296C23.947,0,22.955,0.01,22.955,0.01"/>
</g>
</svg>
