<?xml version="1.0" encoding="utf-8"?>
<!-- Generator: Adobe Illustrator 14.0.0, SVG Export Plug-In . SVG Version: 6.00 Build 43363)  -->
<!DOCTYPE svg PUBLIC "-//W3C//DTD SVG 1.1//EN" "http://www.w3.org/Graphics/SVG/1.1/DTD/svg11.dtd">
<svg version="1.1" id="Layer_1" xmlns="http://www.w3.org/2000/svg" xmlns:xlink="http://www.w3.org/1999/xlink" x="0px" y="0px"
	 width="25.562px" height="26.379px" viewBox="0 0 25.562 26.379" enable-background="new 0 0 25.562 26.379" xml:space="preserve">
<g id="omea">
	<path id="path436" fill="#136BA2" d="M12.795,0.786l-0.28,0.009c-0.261,1.496-0.534,3.104-0.611,3.528
		c0.523,0.513,3.208,3.144,4.232,4.15c1.646,1.092,2.76,2.951,2.76,5.082c0,3.369-2.729,6.103-6.1,6.094
		c-2.884,0-5.298-2.008-5.931-4.696l-0.659-1.336c0,0-1.468-2.978-1.873-3.796l-3.604-0.5C0.257,10.64,0,12.082,0,13.582
		c0,7.055,5.709,12.764,12.767,12.797c7.067,0,12.797-5.73,12.797-12.797c0.028-7.011-5.728-12.783-12.78-12.771L12.795,0.786z"/>
	<path id="path438" fill="#FA930D" d="M7.2,13.146l2.181-4.359l4.747-0.704l-3.464-3.336L11.498,0L7.201,2.243L2.967,0l0.771,4.746
		L0.274,8.082l4.812,0.704L7.2,13.146z"/>
</g>
</svg>
