<svg version="1.1" xmlns="http://www.w3.org/2000/svg" x="0" y="0" width="70" height="70" viewBox="0 0 70 70" xml:space="preserve"><linearGradient id="a" gradientUnits="userSpaceOnUse" x1="64.913" y1="54.385" x2="17.513" y2="47.275" gradientTransform="matrix(1 0 0 -1 0 65.395)"><stop offset="0" stop-color="#FF8200"/><stop offset=".973" stop-color="#905CFB"/></linearGradient><path fill="url(#a)" d="M60.5 24L9.6 26.9 9.3 7.4 55.2 0.2z"/><linearGradient id="b" gradientUnits="userSpaceOnUse" x1="15.675" y1="30.593" x2="20.093" y2="55.275" gradientTransform="matrix(1 0 0 -1 0 65.395)"><stop offset="0" stop-color="#0CB0F2"/><stop offset=".973" stop-color="#905CFB"/></linearGradient><path d="M20.3,43.2l16.4-20.8L18.9,10.2l0,0c-3.1-2.8-7.8-4-12.6-2c-2.4,1-4.3,2.9-5.3,5.3 c-2.1,5-0.8,9.9,2.4,12.9l0,0L20.3,43.2z" fill="url(#b)"/><linearGradient id="c" gradientUnits="userSpaceOnUse" x1="58.335" y1="11.729" x2="26.978" y2="27.043" gradientTransform="matrix(1 0 0 -1 0 65.395)"><stop offset="0" stop-color="#0CB0F2"/><stop offset=".973" stop-color="#905CFB"/></linearGradient><path fill="url(#c)" d="M20.3 43.2L45.5 68.1 61.2 38.8 36.7 22.4z"/><linearGradient id="d" gradientUnits="userSpaceOnUse" x1="60.678" y1="9.337" x2="7.352" y2="28.508" gradientTransform="matrix(1 0 0 -1 0 65.395)"><stop offset="0" stop-color="#0CB0F2"/><stop offset=".973" stop-color="#905CFB"/></linearGradient><path d="M53.9,36.6L53.9,36.6l-41.9-2l0,0c-1.6-0.3-3.4-0.2-5.3,0.6c-1.8,0.8-3.2,2.1-3.9,3.9 c-2.1,4.9,0.4,9.6,4.5,11.2l0,0L44.8,68c0.5,0.3,3,1,3,1c2,0.6,4.2,0.9,6.2,0.9c2.5,0,5.3-0.7,8.1-2.1c2.6-1.3,4.2-3.4,5.6-6 c1.7-3,2.2-5.8,2.2-8.6C69.8,44.5,62.6,37.2,53.9,36.6z" fill="url(#d)"/><linearGradient id="e" gradientUnits="userSpaceOnUse" x1="64.194" y1="59.46" x2="18.524" y2="22.651" gradientTransform="matrix(1 0 0 -1 0 65.395)"><stop offset="0" stop-color="#FF8200"/><stop offset=".973" stop-color="#905CFB"/></linearGradient><path d="M52.1,1.1c-0.7,0.3-1.4,0.7-2,1.1l0,0L26.9,19.7l11.5,16.8l25.2-14.1 c1.9-0.9,3.4-2.5,4.3-4.3C73.5,7.3,63.1-3.5,52.1,1.1z" fill="url(#e)"/><path fill="#905CFB" d="M14.5 49.8L38.4 36.5 26.9 19.7 4.9 36.2z"/><linearGradient id="f" gradientUnits="userSpaceOnUse" x1="30.448" y1="16.152" x2="2.265" y2="26.168" gradientTransform="matrix(1 0 0 -1 0 65.395)"><stop offset="0" stop-color="#0CB0F2"/><stop offset=".973" stop-color="#905CFB"/></linearGradient><path d="M20.4,56.4V35L12,34.6H12c-1.6-0.3-3.4-0.2-5.3,0.6c-1.8,0.8-3.2,2.1-3.9,3.9 c-2.1,4.9,0.4,9.6,4.5,11.2h0.1L20.4,56.4z" fill="url(#f)"/><g><path fill="#000" d="M13.4 13.4H56.6V56.6H13.4z"/><g fill="#FFF"><path d="M17.5,29.4V19h4v10.3c0,3,1.5,4.5,3.9,4.5s3.9-1.5,3.9-4.4V19h4v10.2c0,5.5-3.1,8.2-8,8.2 C20.5,37.5,17.5,34.7,17.5,29.4z"/><path d="M35.4,19h7.4c4.3,0,6.9,2.6,6.9,6.3v0.1c0,4.2-3.3,6.4-7.3,6.4h-3v5.4h-4V19z M42.6,28.2 c2,0,3.2-1.2,3.2-2.7v-0.1c0-1.8-1.2-2.7-3.2-2.7h-3.1v5.5H42.6z"/></g><path fill="#FFF" d="M17.5 48.5H33.7V51.2H17.5z"/></g></svg>