<?xml version="1.0" encoding="utf-8"?>
<!-- Generator: Adobe Illustrator 14.0.0, SVG Export Plug-In . SVG Version: 6.00 Build 43363)  -->
<!DOCTYPE svg PUBLIC "-//W3C//DTD SVG 1.1//EN" "http://www.w3.org/Graphics/SVG/1.1/DTD/svg11.dtd">
<svg version="1.1" id="Layer_1" xmlns="http://www.w3.org/2000/svg" xmlns:xlink="http://www.w3.org/1999/xlink" x="0px" y="0px"
	 width="29.925px" height="25.719px" viewBox="0 0 29.925 25.719" enable-background="new 0 0 29.925 25.719" xml:space="preserve">
<g id="appcode">
	<path id="path550" fill="#FA930D" d="M17.064,0h-1.246v25.719h1.246c7.104,0,12.861-5.756,12.861-12.857
		C29.923,5.672,24.25,0.068,17.05,0.004L17.064,0L17.064,0z M18.011,15.78c0,0-0.211-3.658,0.148-4.297
		c0.535-0.951,2.84-0.479,2.801,0.963c0.039,2.021-2.908,3.422-2.908,3.334H18.011L18.011,15.78z"/>
	<path id="path552" fill="#556780" d="M13.426,11.481c-0.539-0.952-2.836-0.479-2.836,0.963c0,2,3,3.396,3,3.334
		c-0.019,0.088,0.264-3.711-0.137-4.297H13.426L13.426,11.481z"/>
	<path id="path554" fill="#556780" d="M12.1,19.459c-3.303-0.375-5.885-3.195-5.885-6.604c0-3.438,2.615-6.27,5.957-6.613
		l0.147-0.033c1.483-0.236,2.617-1.52,2.617-3.062c0-1.711-1.388-3.103-3.103-3.103H11.64h-0.128C5.049,0.725,0,6.204,0,12.843
		c0,6.604,5,12.201,11.601,12.795h0.2c1.709,0,3.103-1.391,3.103-3.104c0.037-1.689-1.252-2.893-2.853-3.094L12.1,19.459z"/>
</g>
</svg>
