<?xml version="1.0" encoding="utf-8"?>
<!-- Generator: Adobe Illustrator 14.0.0, SVG Export Plug-In . SVG Version: 6.00 Build 43363)  -->
<!DOCTYPE svg PUBLIC "-//W3C//DTD SVG 1.1//EN" "http://www.w3.org/Graphics/SVG/1.1/DTD/svg11.dtd">
<svg version="1.1" id="Layer_1" xmlns="http://www.w3.org/2000/svg" xmlns:xlink="http://www.w3.org/1999/xlink" x="0px" y="0px"
	 width="31.839px" height="30px" viewBox="0 0 31.839 30" enable-background="new 0 0 31.839 30" xml:space="preserve">
<g id="dm">
	<path id="path3183" fill="#FA930D" d="M22.039,0c-2.219,0-4.384,0.764-6.121,2.157C14.182,0.764,12.017,0,9.798,0
		C4.396,0,0,4.396,0,9.798v16.514c0,2.034,1.654,3.688,3.687,3.688s3.687-1.653,3.687-3.688l0.002-10.269
		c-2.5-0.979-4.273-3.407-4.273-6.255c0-3.714,3.009-6.722,6.721-6.722c3.712,0,6.721,3.008,6.721,6.722
		c0,2.868-1.798,5.308-4.326,6.274l0.001,10.262l0.011,0.205l0.018,0.211h0.007C12.469,28.585,14.04,30,15.919,30
		c1.879,0,3.45-1.415,3.663-3.26h0.035V10.227h0.004V9.799c0-1.335,1.086-2.421,2.42-2.421c1.333,0,2.42,1.086,2.42,2.424
		l0.002,16.511c0,2.033,1.654,3.688,3.688,3.688c2.035,0,3.688-1.654,3.688-3.688V9.799C31.838,4.396,27.442,0,22.039,0z"/>
	<circle id="circle3185" fill="#9A3965" cx="9.824" cy="9.787" r="4.289"/>
</g>
</svg>
