<?xml version="1.0" encoding="utf-8"?>
<!-- Generator: Adobe Illustrator 14.0.0, SVG Export Plug-In . SVG Version: 6.00 Build 43363)  -->
<!DOCTYPE svg PUBLIC "-//W3C//DTD SVG 1.1//EN" "http://www.w3.org/Graphics/SVG/1.1/DTD/svg11.dtd">
<svg version="1.1" id="Layer_1" xmlns="http://www.w3.org/2000/svg" xmlns:xlink="http://www.w3.org/1999/xlink" x="0px" y="0px"
	 width="26.918px" height="27.379px" viewBox="0 0 26.918 27.379" enable-background="new 0 0 26.918 27.379" xml:space="preserve">
<g id="idea">
	<path id="path4551" fill="#FA930D" d="M0,13.837c0,2.201,1.8,4,4,3.949c2.2-0.053,3.943-1.777,3.943-3.949S6.172,9.9,4,9.9
		S0,11.666,0,13.837z"/>
	<path id="path4553" fill="#136BA2" d="M23.516,0c-2.164,0-3.457,1.746-3.457,4.666v18.01c0,3,1.199,4.604,3.399,4.666
		c2.2,0.066,3.458-1.746,3.458-4.666V4.727C26.971,1.746,25.676,0,23.516,0z"/>
	<path id="path4555" fill="#136BA2" d="M17.46,0.378H3.305v0.008C1.462,0.458,0,1.968,0,3.825c0,1.801,1.4,3.397,3.4,3.397V7.25
		h7.244v6.277c0,0.051-0.014,0.1-0.014,0.147h0.021v0.199c0,3.65-2.973,6.621-6.623,6.621l-0.176-0.01l-0.022,0.02
		c-0.095-0.008-0.192-0.012-0.296-0.012c-1.902,0-3.446,1.541-3.446,3.442c0,2,1.601,3.396,3.399,3.439L3.8,27.363h0.011
		l0.197,0.008c7.45,0,13.514-6.059,13.514-13.506v-2.361C17.46,11.482,17.46,0.689,17.46,0.378z"/>
</g>
</svg>
