<?xml version="1.0" encoding="utf-8"?>
<!-- Generator: Adobe Illustrator 14.0.0, SVG Export Plug-In . SVG Version: 6.00 Build 43363)  -->
<!DOCTYPE svg PUBLIC "-//W3C//DTD SVG 1.1//EN" "http://www.w3.org/Graphics/SVG/1.1/DTD/svg11.dtd">
<svg version="1.1" id="Layer_1" xmlns="http://www.w3.org/2000/svg" xmlns:xlink="http://www.w3.org/1999/xlink" x="0px" y="0px"
	 width="25.652px" height="26.271px" viewBox="0 0 25.652 26.271" enable-background="new 0 0 25.652 26.271" xml:space="preserve">
<g id="kotlin">
	<path id="path542" fill="#607FAB" d="M0.127,22.007v0.086c0.019,2.4,2,4.2,4.2,4.18c2.314-0.02,4.198-1.912,4.182-4.228
		l-0.025-4.626L0.127,22.007z"/>
	<path id="path544" fill="#607FAB" d="M25.563,21.867c-0.082-0.9-0.475-1.736-1.104-2.38l-0.01-0.022l-7.61-6.626l-7.298,3.996
		l9.552,8.396c0.716,0.604,1.601,1,2.601,0.95c0.115,0,0.229,0,0.344-0.02c1.042-0.101,1.98-0.598,2.652-1.404
		c0.646-0.884,0.963-1.884,0.963-2.896L25.563,21.867z"/>
	<path id="path546" fill="#607FAB" d="M8.433,4.867L8.429,4.421c0.004-0.04,0.004-0.065,0.004-0.105
		C8.424,1.994,6.515,0.107,4.195,0.127C1.876,0.148-0.008,2.041,0,4.358l0.032,5.153L8.433,4.867z"/>
	<path id="path548" fill="#FA930D" d="M0.055,11.327L19.668,0.478C20.242,0.17,20.876,0.004,21.508,0c0.41-0.002,0.802,0,1.2,0.2
		c2.063,0.6,3.2,2.8,2.602,4.938c-0.271,0.864-0.828,1.602-1.574,2.095L23.72,7.253l-0.238,0.136l-23.335,12.8l-0.09-8.854
		L0.055,11.327L0.055,11.327z"/>
</g>
</svg>
