<?xml version="1.0" encoding="utf-8"?>
<!-- Generator: Adobe Illustrator 14.0.0, SVG Export Plug-In . SVG Version: 6.00 Build 43363)  -->
<!DOCTYPE svg PUBLIC "-//W3C//DTD SVG 1.1//EN" "http://www.w3.org/Graphics/SVG/1.1/DTD/svg11.dtd">
<svg version="1.1" id="Layer_1" xmlns="http://www.w3.org/2000/svg" xmlns:xlink="http://www.w3.org/1999/xlink" x="0px" y="0px"
	 width="38.324px" height="19.879px" viewBox="0 0 38.324 19.879" enable-background="new 0 0 38.324 19.879" xml:space="preserve">
<g id="mps">
	<path id="path536" fill="#FA930D" d="M33.448,8.018c-0.191,1.557-0.777,2.862-1.703,3.862c-0.129,0.127-0.238,0.25-0.427,0.4
		c0.146,0,0.601,0.201,0.8,0.258c0.555,0.201,1.2,0.801,1.2,1.654c0,1.09-1.062,1.936-2.723,2c-1.488,0-2.132-0.406-2.558-0.977
		c-0.218-0.293-0.228-0.418-0.56-0.65c-0.377-0.275-1.146-0.232-1.146-0.232h-2.854c0,0-0.771-0.02-0.974,0.346
		c-0.215,0.357-0.262,0.582-0.086,1.004c0.988,2.604,3.399,4.199,7.601,4.199c6.601,0,8.304-2.99,8.304-6.154
		c-0.08-2.865-1.673-4.866-4.871-5.706L33.448,8.018z"/>
	<path id="path538" fill="#FA930D" d="M23.771,8.758c3.31,0,3.541-0.684,3.541-1.811c0-0.238-0.024-0.443-0.062-0.63
		c-0.021-0.086-0.043-0.172-0.047-0.254l-0.019-0.043h0.004c-0.004-0.119-0.004-0.235-0.004-0.347c0-0.924,0.476-2.219,3.021-2.219
		c2.148,0,2.799,0.601,3.199,1.607c0.107,0.199,0.197,0.602,0.398,0.85c0.322,0.398,1,0.398,1,0.379h1.791l1.188-0.332
		C38.062,5.683,38.182,5.416,38.109,5c-0.5-3.141-2.969-5-8.02-5c-5.279,0-7.913,2.713-7.913,6.154c0,1,0.2,1.801,0.802,2.617h0.785
		v-0.02L23.771,8.758L23.771,8.758z"/>
	<path id="path540" fill="#74838C" d="M32.771,6.877c0-0.291-0.021-0.572-0.041-0.848h-0.004c-0.041-0.324-0.078-0.642-0.147-0.937
		c-0.25-0.636-0.802-0.878-2.369-0.878c-2.276,0-2.276,1.103-2.276,1.464v0.348h-0.009c0.063,0.201,0.199,0.601,0.199,0.929
		c0,2.07-1.375,2.559-4.295,2.559h-2.373v-3.57l0.028-0.021c0.062-2.398,1.267-4.291,3.3-5.439h-9.625l-4.623,14.061L6.079,0.504H0
		v18.774h4.523V6.527l4,12.75h3.9l4.23-12.543v12.543h4.793v-5.895h4.41l0.729-0.02c0.07-0.021,0.143-0.021,0.207-0.025l0.492-0.057
		c0.072,0,0.143-0.021,0.211-0.033l0.625-0.123l0.064-0.021l0.521-0.152l0.205-0.07c0.125-0.045,0.254-0.1,0.375-0.15l0.188-0.082
		c0.168-0.088,0.328-0.168,0.484-0.264c1.826-1.1,2.893-2.895,2.893-5.49L32.771,6.877z"/>
</g>
</svg>
