<?xml version="1.0" encoding="utf-8"?>
<!-- Generator: Adobe Illustrator 14.0.0, SVG Export Plug-In . SVG Version: 6.00 Build 43363)  -->
<!DOCTYPE svg PUBLIC "-//W3C//DTD SVG 1.1//EN" "http://www.w3.org/Graphics/SVG/1.1/DTD/svg11.dtd">
<svg version="1.1" id="Layer_1" xmlns="http://www.w3.org/2000/svg" xmlns:xlink="http://www.w3.org/1999/xlink" x="0px" y="0px"
	 width="30.938px" height="24.807px" viewBox="0 0 30.938 24.807" enable-background="new 0 0 30.938 24.807" xml:space="preserve">
<g id="phpstorm">
	<path id="path4068" fill="#5E64B2" d="M16.255,24.803h2.259l0.672-0.722c0.307-0.376,0.647-0.793,1.074-1.271l0.203-0.239
		c0.268-0.31,0.488-0.538,0.689-0.768c0.416-0.446,0.783-0.833,1.436-1.735c0.648-0.872,1.064-1.533,0.996-2.677
		c-0.027-0.579-0.062-0.976-0.438-1.453c-0.231-0.271-0.648-0.688-1.105-1.113c-0.487-0.473-0.903-0.915-1.482-1.52
		c-0.566-0.6-1.312-2.125-1.312-2.125c-0.268-0.59-0.783-1.909-0.783-2.997l-0.021-0.742V7.36h-8.426v6.06
		c0.427-0.549,1.047-0.731,1.626-0.731c0.937,0,1.736,0.554,1.736,1.764v6.198h-2.188v-5.461c0-0.483-0.201-0.712-0.58-0.712
		c-0.417,0-0.6,0.27-0.6,0.712v5.461H7.815V7.363H0v17.44h1.586V12.9H3.56v0.929c0.457-0.782,1.146-1.144,1.789-1.144
		c1.116,0,1.909,0.864,1.909,2.435v3.548c0,1.321-0.896,2.206-1.909,2.206c-0.592,0-1.09-0.274-1.576-0.915v4.85h10.288V12.904
		h1.974v0.926c0.467-0.782,1.156-1.144,1.787-1.144c1.131,0,1.91,0.864,1.91,2.435v3.548c0,1.321-0.883,2.206-1.91,2.206
		c-0.59,0-1.076-0.274-1.563-0.915L16.255,24.803L16.255,24.803z"/>
	<path id="path4070" fill="#5E64B2" d="M17.546,18.222v-2.797c0-0.619-0.214-0.945-0.649-0.945c-0.428,0-0.642,0.326-0.642,0.945
		v2.797c0,0.619,0.214,0.904,0.642,0.904C17.332,19.128,17.546,18.843,17.546,18.222"/>
	<path id="path4072" fill="#5E64B2" d="M5.073,18.222v-2.797c0-0.619-0.226-0.945-0.65-0.945s-0.649,0.326-0.649,0.945v2.797
		c0,0.619,0.226,0.904,0.649,0.904C4.848,19.127,5.073,18.843,5.073,18.222"/>
	<path id="path4074" fill="#FA930D" d="M29.186,1.483c0.51-0.58,0.926-1.047,1.265-1.482h-7.625c-0.457,0.58-1.386,1.696-1.9,2.692
		c-0.7,1.312-1.271,2.297-1.332,4.707l0.03,0.783c0,1.147,0.82,2.833,0.82,2.833c0.136,0.31,0.562,0.938,0.847,1.322h-0.013
		c0.095,0.122,0.152,0.203,0.152,0.203c0.822,0.945,2.062,1.992,2.611,2.674c0.648,0.792,0.66,1.534,0.701,2.114
		c0.092,1.555-0.539,2.5-1.223,3.426c-1.024,1.396-1.396,1.656-2.176,2.562c-0.511,0.575-0.914,1.058-1.263,1.479h7.879
		c0.47-0.6,1.117-1.688,1.656-2.684c0.688-1.312,1.261-2.298,1.319-4.719l-0.028-0.771c0-1.147-0.822-2.847-0.822-2.847
		c-0.122-0.295-0.562-0.927-0.844-1.322h0.01c-0.092-0.122-0.149-0.193-0.149-0.193c-0.822-0.94-2.062-2.003-2.611-2.674
		c-0.643-0.793-0.66-1.533-0.701-2.112c-0.092-1.563,0.539-2.513,1.223-3.428C28.037,2.652,28.402,2.398,29.186,1.483"/>
</g>
</svg>
