<?xml version="1.0" encoding="utf-8"?>
<!-- Generator: Adobe Illustrator 14.0.0, SVG Export Plug-In . SVG Version: 6.00 Build 43363)  -->
<!DOCTYPE svg PUBLIC "-//W3C//DTD SVG 1.1//EN" "http://www.w3.org/Graphics/SVG/1.1/DTD/svg11.dtd">
<svg version="1.1" id="Layer_1" xmlns="http://www.w3.org/2000/svg" xmlns:xlink="http://www.w3.org/1999/xlink" x="0px" y="0px"
	 width="25.047px" height="24.441px" viewBox="0 0 25.047 24.441" enable-background="new 0 0 25.047 24.441" xml:space="preserve">
<g id="pycharm">
	<path id="path3991" fill="#FA930D" d="M19.253,7.354h-0.105c-2.33,0-4.229,1.562-4.77,3.661h-0.027
		c-0.369,1.941-2.072,3.414-4.121,3.414c-2.317,0-4.201-1.881-4.201-4.2c0-0.154,0.021-0.309,0.041-0.457
		c0-0.04,0-0.068,0.011-0.101c0.01-0.062,0.021-0.12,0.028-0.182c0.836-3.971,3.466-7.282,6.988-9.086
		C12.188,0.148,11.224,0,10.229,0C4.875,0,0.498,4.108,0.039,9.345C0.028,9.385,0.011,9.425,0,9.454v14.938h6.052v-4.827
		c1.282,0.578,2.688,0.896,4.182,0.896c5.649,0,10.238-4.578,10.238-10.231c0-1.003-0.156-1.97-0.429-2.874L19.253,7.354
		L19.253,7.354L19.253,7.354z"/>
	<path id="path3993" fill="#4F7F4B" d="M20.706,1.92c0,0.438,0.357,0.786,0.797,0.786c0.43,0,0.787-0.351,0.787-0.786
		c0-0.438-0.357-0.786-0.787-0.786C21.063,1.134,20.706,1.482,20.706,1.92 M24.548,4.846c-0.557,0.887-1.543,1.474-2.666,1.474
		h-0.021h-2.607h-0.178c-2.771,0-5.076,1.911-5.713,4.479l-0.021,0.03c-0.289,1.493-1.597,2.578-3.115,2.578
		c-1.742,0-3.166-1.428-3.166-3.179c0-0.188,0.031-0.396,0.08-0.616c1.192-5.49,6.082-9.611,11.934-9.611h0.061h2.746
		c1.74,0,3.164,1.414,3.164,3.165c0,0.129-0.02,0.249-0.039,0.378c-0.197,0.107-0.406,0.219-0.627,0.316
		c-1.232,0.606-3.006,0.229-3.949,0.03c0,0.01-0.012,0.021,0,0.029c0.197,0.349,0.615,0.747,1.094,0.956
		c0.945,0.315,1.636,0.338,2.738,0.061C24.356,4.916,24.449,4.876,24.548,4.846 M25.046,21.279c0,1.752-1.424,3.165-3.166,3.165
		h-0.021h-2.727h-0.06c-3.065,0-5.854-1.14-7.992-2.996c2.826-0.209,5.363-1.468,7.226-3.388c0.25,0.029,0.508,0.054,0.771,0.054
		c0.061,0,2.768,0.011,2.807,0C23.622,18.114,25.046,19.535,25.046,21.279"/>
</g>
</svg>
