<?xml version="1.0" encoding="UTF-8" standalone="no"?>
<svg width="43px" height="43px" viewBox="0 0 43 43" version="1.1"
     xmlns="http://www.w3.org/2000/svg"
     xmlns:xlink="http://www.w3.org/1999/xlink">
  <g>
    <path
      d="M21,0.9 C19.4,0.9 17.9,1.1 16.4,1.4 C16.9,1.7 17.3,2.1 17.8,2.6 C20.2,5 21.2,8.1 21.1,11.2 C27,11.2 31.8,16 31.8,21.9 C31.8,27.8 27,32.6 21.1,32.6 C15.2,32.6 10.4,27.8 10.4,21.9 C7.3,22.1 4.2,21 1.8,18.6 C1.4,18.2 1,17.7 0.6,17.2 C0.3,18.7 0.1,20.3 0.1,21.9 C0.1,33.5 9.5,42.9 21.1,42.9 C32.7,42.9 42.1,33.5 42.1,21.9 C42.1,10.3 32.6,0.9 21,0.9 L21,0.9 Z"
      id="Shape" fill="#FFFFFF"></path>
    <circle id="Oval" fill="#FA930D" cx="9.7" cy="10.6" r="8.3"></circle>
  </g>
</svg>
