<?xml version="1.0" encoding="UTF-8" standalone="no"?>
<svg width="13px" height="13px" viewBox="0 0 13 13" version="1.1" xmlns="http://www.w3.org/2000/svg" xmlns:xlink="http://www.w3.org/1999/xlink">
  <g id="ring">
      <path d="M11.095,1.903 C9.495,0.303 7.268,-0.287 5.204,0.13 C5.331,0.227 5.454,0.33 5.57,0.446 C6.245,1.121 6.595,1.997 6.626,2.882 C7.511,2.913 8.387,3.262 9.062,3.938 C10.478,5.353 10.478,7.648 9.062,9.064 C7.647,10.48 5.352,10.48 3.936,9.064 C3.261,8.389 2.911,7.513 2.88,6.628 C1.995,6.597 1.12,6.248 0.444,5.572 C0.328,5.456 0.225,5.333 0.129,5.206 C-0.288,7.27 0.302,9.497 1.902,11.097 C4.441,13.635 8.556,13.635 11.095,11.097 C13.633,8.558 13.633,4.443 11.095,1.904 L11.095,1.903 Z" id="Shape" fill="#00578F"></path>
      <ellipse id="circle5" fill="#FF8300" cx="3.0336" cy="3.0336" rx="2.5596" ry="2.5596"></ellipse>
  </g>
</svg>
