<?xml version="1.0" encoding="utf-8"?>
<!-- Generator: Adobe Illustrator 14.0.0, SVG Export Plug-In . SVG Version: 6.00 Build 43363)  -->
<!DOCTYPE svg PUBLIC "-//W3C//DTD SVG 1.1//EN" "http://www.w3.org/Graphics/SVG/1.1/DTD/svg11.dtd">
<svg version="1.1" id="Layer_1" xmlns="http://www.w3.org/2000/svg" xmlns:xlink="http://www.w3.org/1999/xlink" x="0px" y="0px"
	 width="28.721px" height="25.75px" viewBox="0 0 28.721 25.75" enable-background="new 0 0 28.721 25.75" xml:space="preserve">
<g id="rubymine">
	<path id="path4579" fill="#FA930D" d="M27.969,20.689c-0.293-0.472-3.062-4.252-3.293-4.707l-0.082-0.16l0.146-0.106
		c2.375-1.684,3.803-4.416,3.803-7.317V8.155c0-2.024-0.705-3.958-1.941-5.304c-1.445-1.578-3.521-2.5-5.896-2.67v5.856
		c1.25,0.399,2,1.601,2,3.038c0,1.727-1.332,2.636-2.459,3.306l-0.441,0.271c-1,0.666-1.508,1.6-1.508,2.8
		c0,1,0.396,1.8,0.396,1.924l0.39,0.681l4.059,5.812c0.007,0,0,0.2,0,0.101l0.603,0.804c0.332,0.396,0.803,0.801,1.397,0.897
		c0.802,0.2,1.603,0,2.339-0.418c0.631-0.428,1.008-0.97,1.146-1.71l0.041-0.48c0.155-0.516-0.004-1.516-0.604-2.367h-0.095V20.689
		L27.969,20.689z"/>
	<path id="path4581" fill="#B7334F" d="M19.398,0.116c-0.729,0.058-1.455,0.196-2.123,0.424V0.53c-0.061,0.026-0.121,0.046-0.176,0
		L16.486,0.77l-0.229,0.109l-0.594,0.305v0.008c-0.479,0.285-0.928,0.601-1.346,0.961C12.792,0.818,10.814,0,8.631,0
		C3.86,0,0,3.864,0,8.63v16.48h5.863l0.008-5.57h0.016v-2.908H5.871l0.004-1.346L5.887,8.63H5.883L5.875,8.6
		c0-1.521,1.238-2.758,2.762-2.758c1.507,0,2.801,1.2,2.801,2.736v0.029h-0.004v6.61h-0.012l0.012,9.871h5.875l0.008-10.024
		l0.01-6.459h-0.006V8.553c0-0.074,0.019-0.144,0.021-0.214V8.197c0.156-1.137,1.005-2.042,2.11-2.292L19.398,0.116z"/>
</g>
</svg>
