<?xml version="1.0" encoding="UTF-8" standalone="no"?>
<svg width="48px" height="41px" viewBox="0 0 48 41" version="1.1"
     xmlns="http://www.w3.org/2000/svg"
     xmlns:xlink="http://www.w3.org/1999/xlink">

  <path
    d="M35.202,21.303 C35.202,24.6015 37.902,27.303 41.202,27.1815 C44.439,27.1815 47.0865,24.5445 47.0865,21.303 C47.0865,18.06 44.439,15.42 41.202,15.42 C37.8465,15.42 35.178,18.1215 35.178,21.303 L35.202,21.303 L35.202,21.303 Z"
    id="path498" fill="#136BA2"></path>
  <path
    d="M41.343,1.5315 L41.319,1.5315 L41.13,1.5015 C30.2235,1.5015 21.342,10.3725 21.342,21.2745 C21.342,32.181 30.2295,41.076 41.1435,41.076 L41.334,41.076 L41.631,41.076 C44.349,41.076 46.566,38.8605 46.566,36.1365 C46.566,33.426 44.364,31.209 41.631,31.209 L41.448,31.209 C41.367,31.179 41.229,31.209 41.229,31.209 C35.766,31.209 31.32,26.7585 31.32,21.2925 C31.32,15.8205 35.766,11.367 41.229,11.367 L41.526,11.367 L41.7165,11.367 C44.439,11.367 46.647,9.159 46.647,6.4335 C46.647,3.708 44.4495,1.503 41.7165,1.503 C41.4645,1.6065 41.4705,1.6065 41.4705,1.5345 L41.343,1.5345 L41.343,1.5315 Z"
    id="path500" fill="#FA930D"></path>
  <path
    d="M18.585,1.5015 L5.058,1.5015 C3.693,1.4685 2.394,1.977 1.437,2.952 C0.507,3.8835 0,5.1345 0,6.552 C0,7.7505 0.594,9.2505 1.5,10.053 C2.463,10.953 3.9,11.553 5.094,11.4945 L6.894,11.4975 L6.894,41.1975 L16.8,41.1975 L16.8,11.574 L18.582,11.574 C19.953,11.574 21.24,11.106 22.215,10.1355 C24.147,8.202 24.147,5.073 22.215,3.1395 C21.225,1.911 19.875,1.6095 18.681,1.5135 L18.585,1.5015 L18.585,1.5015 Z"
    id="path502" fill="#136BA2"></path>
</svg>
