<?xml version="1.0" encoding="utf-8"?>
<!-- Generator: Adobe Illustrator 14.0.0, SVG Export Plug-In . SVG Version: 6.00 Build 43363)  -->
<!DOCTYPE svg PUBLIC "-//W3C//DTD SVG 1.1//EN" "http://www.w3.org/Graphics/SVG/1.1/DTD/svg11.dtd">
<svg version="1.1" id="Layer_1" xmlns="http://www.w3.org/2000/svg" xmlns:xlink="http://www.w3.org/1999/xlink" x="0px" y="0px"
	 width="31.391px" height="26.465px" viewBox="0 0 31.391 26.465" enable-background="new 0 0 31.391 26.465" xml:space="preserve">
<g id="teamcity">
	<path id="path498" fill="#136BA2" d="M23.468,13.202c0,2.199,1.8,4,4,3.919c2.158,0,3.923-1.758,3.923-3.919
		c0-2.162-1.765-3.922-3.923-3.922c-2.237,0-4.016,1.801-4.016,3.922H23.468z"/>
	<path id="path500" fill="#FA930D" d="M27.562,0.021h-0.016L27.42,0.001c-7.271,0-13.192,5.914-13.192,13.182
		c0,7.271,5.925,13.201,13.201,13.201h0.127h0.198c1.812,0,3.29-1.477,3.29-3.293c0-1.807-1.468-3.285-3.29-3.285h-0.122
		c-0.054-0.02-0.146,0-0.146,0c-3.642,0-6.606-2.967-6.606-6.611c0-3.648,2.964-6.617,6.606-6.617h0.198h0.127
		c1.815,0,3.287-1.472,3.287-3.289s-1.465-3.287-3.287-3.287c-0.168,0.069-0.164,0.069-0.164,0.021H27.562z"/>
	<path id="path502" fill="#136BA2" d="M12.39,0.001H3.372c-0.91-0.022-1.776,0.317-2.414,0.967C0.338,1.589,0,2.423,0,3.368
		c0,0.799,0.396,1.799,1,2.334c0.642,0.6,1.6,1,2.396,0.961l1.2,0.002v19.8H11.2V6.716h1.188c0.914,0,1.772-0.312,2.422-0.959
		c1.288-1.289,1.288-3.375,0-4.664c-0.66-0.819-1.56-1.02-2.356-1.084L12.39,0.001z"/>
</g>
</svg>
