<?xml version="1.0" encoding="utf-8"?>
<!-- Generator: Adobe Illustrator 17.0.1, SVG Export Plug-In . SVG Version: 6.00 Build 0)  -->
<!DOCTYPE svg PUBLIC "-//W3C//DTD SVG 1.1//EN" "http://www.w3.org/Graphics/SVG/1.1/DTD/svg11.dtd">
<svg version="1.1" id="Layer_1" xmlns="http://www.w3.org/2000/svg" xmlns:xlink="http://www.w3.org/1999/xlink" x="0px" y="0px"
	 width="56px" height="56px" viewBox="0 0 56 56" enable-background="new 0 0 56 56" xml:space="preserve">
<path fill="#FFFFFF" d="M40,26.999C40,30.308,42.692,33,45.999,33C49.308,33,52,30.308,52,26.999c0-3.308-2.692-6-6.001-6
	C42.692,20.999,40,23.69,40,26.999z"/>
<path fill="#FA930D" d="M46.257,7.02l-0.017,0.001l-0.201-0.02C34.99,7.001,26,15.974,26,27.002C26,38.029,34.99,47,46.039,47
	c0.079-0.006,0.204-0.013,0.204-0.013C46.379,46.994,47,47,47,47c2.756,0,4.995-2.238,4.995-4.986c0-2.75-2.239-4.986-4.995-4.986
	c-0.064,0.006-0.74,0.019-0.74,0.019c-0.081-0.022-0.221-0.013-0.221-0.013c-5.542,0-10.048-4.501-10.048-10.032
	c0-5.532,4.507-10.032,10.048-10.032c0.14,0.009,0.212,0.014,0.212,0.014C46.379,16.967,47,16.973,47,16.973
	c2.756,0,4.995-2.236,4.995-4.986c0-2.748-2.239-4.986-4.995-4.986C46.936,7.007,46.257,7.02,46.257,7.02z"/>
<path fill="#FFFFFF" d="M22.862,7.001H9.144C7.752,6.972,6.447,7.494,5.468,8.474C4.521,9.417,4,10.676,4,12.017
	c0,1.342,0.521,2.599,1.468,3.544C6.453,16.544,7.761,17.042,9.147,17C9.159,16.999,11,17,11,17v30h10V17h1.841
	c1.398,0.044,2.706-0.456,3.691-1.439c1.957-1.954,1.957-5.133,0-7.087C25.553,7.494,24.248,6.972,22.862,7.001z"/>
</svg>
