<?xml version="1.0" encoding="UTF-8" standalone="no"?>
<svg width="48px" height="40px" viewBox="0 0 48 40" version="1.1"
     xmlns="http://www.w3.org/2000/svg"
     xmlns:xlink="http://www.w3.org/1999/xlink">
  <path
    d="M36,20.999 C36,24.308 38.692,27 41.999,27 C45.308,27 48,24.308 48,20.999 C48,17.691 45.308,14.999 41.999,14.999 C38.692,14.999 36,17.69 36,20.999 L36,20.999 Z"
    fill="#FFFFFF"></path>
  <path
    d="M42.257,1.02 L42.24,1.021 L42.039,1.001 C30.99,1.001 22,9.974 22,21.002 C22,32.029 30.99,41 42.039,41 C42.118,40.994 42.243,40.987 42.243,40.987 C42.379,40.994 43,41 43,41 C45.756,41 47.995,38.762 47.995,36.014 C47.995,33.264 45.756,31.028 43,31.028 C42.936,31.034 42.26,31.047 42.26,31.047 C42.179,31.025 42.039,31.034 42.039,31.034 C36.497,31.034 31.991,26.533 31.991,21.002 C31.991,15.47 36.498,10.97 42.039,10.97 C42.179,10.979 42.251,10.984 42.251,10.984 C42.379,10.967 43,10.973 43,10.973 C45.756,10.973 47.995,8.737 47.995,5.987 C47.995,3.239 45.756,1.001 43,1.001 C42.936,1.007 42.257,1.02 42.257,1.02 L42.257,1.02 Z"
    fill="#FA930D"></path>
  <path
    d="M18.862,1.001 L5.144,1.001 C3.752,0.972 2.447,1.494 1.468,2.474 C0.521,3.417 0,4.676 0,6.017 C0,7.359 0.521,8.616 1.468,9.561 C2.453,10.544 3.761,11.042 5.147,11 C5.159,10.999 7,11 7,11 L7,41 L17,41 L17,11 L18.841,11 C20.239,11.044 21.547,10.544 22.532,9.561 C24.489,7.607 24.489,4.428 22.532,2.474 C21.553,1.494 20.248,0.972 18.862,1.001 L18.862,1.001 Z"
    fill="#FFFFFF"></path>
</svg>
