<?xml version="1.0" encoding="utf-8"?>
<!-- Generator: Adobe Illustrator 17.0.1, SVG Export Plug-In . SVG Version: 6.00 Build 0)  -->
<!DOCTYPE svg PUBLIC "-//W3C//DTD SVG 1.1//EN" "http://www.w3.org/Graphics/SVG/1.1/DTD/svg11.dtd">
<svg version="1.1" id="Layer_1" xmlns="http://www.w3.org/2000/svg" xmlns:xlink="http://www.w3.org/1999/xlink" x="0px" y="0px"
	 width="56px" height="56px" viewBox="0 0 56 56" enable-background="new 0 0 56 56" xml:space="preserve">
<g>
	<circle fill="#FA930D" cx="27.94" cy="23.831" r="5.651"/>
	<path fill="#FA930D" d="M34.858,44.745c-2.166,1.317-4.592,2.247-6.845,2.247c-0.023,0-0.049-0.004-0.072-0.004v0v0
		c-0.023,0-0.05,0.004-0.072,0.004c-2.253,0-4.679-0.93-6.845-2.247C21,48,20.67,52,27.86,52c0.029,0,0.052-0.002,0.08-0.002v0v0
		c0.028,0,0.052,0.002,0.08,0.002C35.21,52,34.971,48.076,34.858,44.745z"/>
	<path fill="#FFFFFF" d="M28.005,4L28.005,4c-0.021,0-0.042,0.002-0.063,0.002v0.007L27.94,4.005v0.001V4.005l-0.001,0.004V4.002
		C27.918,4.002,27.897,4,27.876,4h0C16.898,4,8,12.182,8,22.274c0,6.02,3.112,11.612,8.023,16.15
		c3.322,3.069,8.264,6.184,11.874,6.184h0c0.014,0,0.028-0.001,0.042-0.003v0v0c0.014,0.001,0.028,0.003,0.042,0.003l0,0
		c3.611,0,8.552-3.115,11.874-6.184c4.911-4.538,8.023-10.13,8.023-16.15C47.88,12.182,38.982,4,28.005,4z M28.043,35.516h-0.177
		c-2.762,0-9.345-5.386-9.345-12.374c0-2.217,0.973-4.419,2.739-5.986c1.767-1.567,4.116-2.431,6.615-2.431
		c0.021,0,0.042,0.003,0.063,0.003v-0.007l0.001,0.004v0v0l0.001-0.004v0.007c0.021,0,0.042-0.003,0.063-0.003
		c2.499,0,4.848,0.863,6.615,2.431c1.766,1.567,2.739,3.769,2.739,5.986C37.358,30.13,30.748,35.516,28.043,35.516z"/>
</g>
</svg>
