<?xml version="1.0" encoding="UTF-8" standalone="no"?>
<svg width="40px" height="48px" viewBox="0 0 40 48" version="1.1"
     xmlns="http://www.w3.org/2000/svg"
     xmlns:xlink="http://www.w3.org/1999/xlink">

  <circle id="Oval" fill="#FA930D" cx="19.94" cy="19.831" r="5.651"></circle>
  <path
    d="M26.858,40.745 C24.692,42.062 22.266,42.992 20.013,42.992 C19.99,42.992 19.964,42.988 19.941,42.988 L19.941,42.988 C19.918,42.988 19.891,42.992 19.869,42.992 C17.616,42.992 15.19,42.062 13.024,40.745 C13,44 12.67,48 19.86,48 C19.889,48 19.912,47.998 19.94,47.998 L19.94,47.998 C19.968,47.998 19.992,48 20.02,48 C27.21,48 26.971,44.076 26.858,40.745 L26.858,40.745 Z"
    id="Shape" fill="#FA930D"></path>
  <path
    d="M20.005,0 L20.005,0 C19.984,0 19.963,0.002 19.942,0.002 L19.942,0.009 L19.94,0.005 L19.94,0.006 L19.94,0.005 L19.939,0.009 L19.939,0.002 C19.918,0.002 19.897,0 19.876,0 L19.876,0 C8.898,0 0,8.182 0,18.274 C0,24.294 3.112,29.886 8.023,34.424 C11.345,37.493 16.287,40.608 19.897,40.608 L19.897,40.608 C19.911,40.608 19.925,40.607 19.939,40.605 L19.939,40.605 C19.953,40.606 19.967,40.608 19.981,40.608 L19.981,40.608 C23.592,40.608 28.533,37.493 31.855,34.424 C36.766,29.886 39.878,24.294 39.878,18.274 C39.88,8.182 30.982,0 20.005,0 L20.005,0 Z M20.043,31.516 L19.866,31.516 C17.104,31.516 10.521,26.13 10.521,19.142 C10.521,16.925 11.494,14.723 13.26,13.156 C15.027,11.589 17.376,10.725 19.875,10.725 C19.896,10.725 19.917,10.728 19.938,10.728 L19.938,10.721 L19.939,10.725 L19.94,10.721 L19.94,10.728 C19.961,10.728 19.982,10.725 20.003,10.725 C22.502,10.725 24.851,11.588 26.618,13.156 C28.384,14.723 29.357,16.925 29.357,19.142 C29.358,26.13 22.748,31.516 20.043,31.516 L20.043,31.516 Z"
    id="Shape" fill="#FFFFFF"></path>
</svg>
