<?xml version="1.0" encoding="UTF-8" standalone="no"?>
<svg width="56px" height="50px" viewBox="0 0 56 50" version="1.1"
     xmlns="http://www.w3.org/2000/svg"
     xmlns:xlink="http://www.w3.org/1999/xlink">

  <circle fill="#FA930D" cx="33" cy="25" r="4.8"></circle>
  <circle fill="#FA930D" cx="20.6" cy="25" r="4.8"></circle>
  <path
    d="M1.2,38 C0.9,38.9 0.8,41.2 3.7,41.2 L9.5,41.2 C15.3,46.6 23.5,49.3 31.1,49.3 C44.5,49.3 55.4,38.5 55.4,25.1 L55.4,25.1 L55.4,25 L55.4,25 L55.4,24.9 L55.4,24.9 C55.4,11.5 44.5,0.7 31.1,0.7 C23.6,0.7 15,3.5 9.2,8.8 L3.7,8.8 C0.7,8.8 0.9,11.1 1.2,12 L2.6,17 C1.3,19.4 0.5,22.1 0.5,24.9 C0.5,27.6 1.4,30.3 2.7,32.7 L1.2,38 L1.2,38 Z M10.7,24.9 C10.7,20.7 19.1,13.6 30,13.6 C32.9,13.6 35.9,14.8 37.9,16.9 C40,19.1 41.1,21.9 41.1,25 L41.1,25.1 L41.1,25.1 L41.1,25.2 C41.1,28.2 40,31.1 37.9,33.3 C35.8,35.5 32.9,36.6 30,36.6 C19.8,36.5 10.7,29 10.7,24.9 L10.7,24.9 Z"
    fill="#FFFFFF"></path>
</svg>
