<?xml version="1.0" encoding="utf-8"?>
<!-- Generator: Adobe Illustrator 18.1.1, SVG Export Plug-In . SVG Version: 6.00 Build 0)  -->
<!DOCTYPE svg PUBLIC "-//W3C//DTD SVG 1.1//EN" "http://www.w3.org/Graphics/SVG/1.1/DTD/svg11.dtd">
<svg version="1.1" id="Layer_1" xmlns="http://www.w3.org/2000/svg" xmlns:xlink="http://www.w3.org/1999/xlink" x="0px" y="0px"
	 width="56px" height="56px" viewBox="0 0 64 64" xml:space="preserve">
<g>
	<circle fill="#FA930D" cx="37" cy="32" r="4.8"/>
	<circle fill="#FA930D" cx="24.6" cy="32" r="4.8"/>
	<path fill="#136BA2" d="M5.2,45c-0.3,0.9-0.4,3.2,2.5,3.2l5.8,0c5.8,5.4,14,8.1,21.6,8.1c13.4,0,24.3-10.8,24.3-24.2v0
		c0,0,0-0.1,0-0.1h0l0,0l0,0h0c0,0,0-0.1,0-0.1v0c0-13.4-10.9-24.2-24.3-24.2c-7.5,0-16.1,2.8-21.9,8.1l-5.5,0c-3,0-2.8,2.3-2.5,3.2
		l1.4,5c-1.3,2.4-2.1,5.1-2.1,7.9c0,2.7,0.9,5.4,2.2,7.8L5.2,45z M14.7,31.9c0-4.2,8.4-11.3,19.3-11.3c2.9,0,5.9,1.2,7.9,3.3
		c2.1,2.2,3.2,5,3.2,8.1c0,0,0,0.1,0,0.1h0l0,0l0,0h0c0,0,0,0.1,0,0.1c0,3-1.1,5.9-3.2,8.1c-2.1,2.2-5,3.3-7.9,3.3
		C23.8,43.5,14.7,36,14.7,31.9z"/>
</g>
</svg>
