<?xml version="1.0" encoding="utf-8"?>
<!-- Generator: Adobe Illustrator 14.0.0, SVG Export Plug-In . SVG Version: 6.00 Build 43363)  -->
<!DOCTYPE svg PUBLIC "-//W3C//DTD SVG 1.1//EN" "http://www.w3.org/Graphics/SVG/1.1/DTD/svg11.dtd">
<svg version="1.1" id="Layer_1" xmlns="http://www.w3.org/2000/svg" xmlns:xlink="http://www.w3.org/1999/xlink" x="0px" y="0px"
	 width="29.129px" height="29.488px" viewBox="0 0 29.129 29.488" enable-background="new 0 0 29.129 29.488" xml:space="preserve">
<g id="youtrack">
	<path class="path1" id="path510" fill="#FA930D" d="M20.932,12.038c-1.312-3.562-5.27-5.383-8.828-4.066c-0.041,0.02-0.073,0.029-0.114,0
		c0.02,0,0,0,0,0.125c0.606,1.637-0.23,3.451-1.871,4.057c-0.742,0.271-1.517,0.234-2.197-0.023c-0.508,1.449-0.533,3,0,4.621
		c1.312,3.6,5.201,5.4,8.803,4.07c3.699-1.225,5.609-5.225,4.211-8.781L20.932,12.038L20.932,12.038z"/>
	<path class="path2" id="path512" fill="#136BA2" d="M13.328,11.277c-1.734,0.638-2.621,2.562-1.984,4.294c0.642,1.801,2.601,2.6,4.202,2
		c1.729-0.645,2.613-2.564,1.979-4.293c-0.543-1.683-2.393-2.683-4.19-2.001H13.328z"/>
	<path class="path3" id="path514" fill="#136BA2" d="M29.118,5.218c0-0.296-0.119-0.576-0.332-0.787c-0.209-0.209-0.48-0.32-0.787-0.317
		c-0.309,0-0.578,0.116-0.789,0.327l-2.365,2.375c-0.143-0.202-0.299-0.394-0.457-0.586l2.291-2.313
		c0.209-0.207,0.32-0.486,0.32-0.785s-0.115-0.578-0.32-0.79c-0.215-0.206-0.492-0.321-0.789-0.319
		C25.59,2.023,25.311,2.14,25.096,2.42l-2.277,2.291c-0.188-0.161-0.379-0.312-0.586-0.463l2.336-2.344
		c0.207-0.212,0.324-0.492,0.324-0.787c0-0.297-0.127-0.576-0.332-0.793C24.352,0.117,24.069,0,23.774,0
		c-0.293,0-0.582,0.125-0.791,0.332l-2.68,2.802c-3.088-1.567-6.791-1.909-10.291-0.62C9.685,2.64,9.365,2.785,9.047,2.927
		L2.201,1.582l3.572,3.602C5.51,5.425,5.266,5.681,5.023,5.939L1.459,2.422L2.873,9.11c-1.447,3.022-1.725,6.608-0.471,10.001
		c0.197,0.6,0.4,1,0.602,1.502l-2.68,2.699C0.113,23.523-0.004,23.801,0,24.103c0,0.195,0.201,0.6,0.398,0.801
		c0.211,0.199,0.4,0.396,0.803,0.328c0.299,0,0.576-0.123,0.791-0.33l2.316-2.34c0.154,0.195,0.4,0.396,0.4,0.561l-2.277,2.201
		c-0.209,0.209-0.324,0.492-0.32,0.789c0,0.201,0.199,0.6,0.398,0.787c0.215,0.195,0.4,0.396,0.801,0.396
		c0.297,0,0.57-0.109,0.785-0.328l2.297-2.311c0.199,0.199,0.4,0.396,0.602,0.457L4.627,27.51c-0.209,0.209-0.324,0.492-0.319,0.789
		c0,0.201,0.198,0.604,0.399,0.787c0.213,0.199,0.398,0.4,0.799,0.4c0.293,0,0.574-0.119,0.787-0.33l2.758-2.785
		c3.021,1.4,6.6,1.801,10,0.457c0.934-0.342,1.785-0.789,2.586-1.309c0.574,0.396,1,0.801,1,0.816
		c0.154,0.199,0.199,0.598-0.055,0.945l-0.303,0.379c-0.186,0.229-0.262,0.52-0.217,0.799c0.029,0.201,0.197,0.604,0.398,0.734
		c0.232,0.201,0.602,0.201,0.799,0.229c0.293-0.037,0.561-0.186,0.74-0.41l0.393-0.488c0.953-1.211,0.459-2.922-0.582-3.74
		l-0.66-0.521c0.896-0.815,1.668-1.745,2.301-2.765c0.342,0.201,0.602,0.4,0.602,0.455c0.16,0.199,0.199,0.598-0.055,0.943
		l-0.291,0.381c-0.189,0.229-0.275,0.52-0.229,0.799c0.029,0.201,0.197,0.604,0.398,0.742c0.229,0.201,0.602,0.201,0.799,0.227
		c0.299-0.029,0.557-0.18,0.738-0.41l0.387-0.486c0.957-1.211,0.469-2.924-0.568-3.742l-0.879-0.689
		c1.229-2.898,1.406-6.26,0.229-9.455c-0.146-0.402-0.32-0.801-0.508-1.184l2.74-2.771c0.182-0.514,0.312-0.713,0.312-1.095h-0.014
		L29.118,5.218L29.118,5.218z M5.972,17.595C4.237,12.898,6.64,7.68,11.338,5.949c4.702-1.734,10,0.6,11.602,5.373
		c1.732,4.701-0.664,9.916-5.371,11.6c-4.638,1.678-9.833-0.721-11.632-5.363L5.972,17.595z"/>
</g>
</svg>
