<?xml version="1.0" encoding="utf-8"?>
<!-- Generator: Adobe Illustrator 17.0.1, SVG Export Plug-In . SVG Version: 6.00 Build 0)  -->
<!DOCTYPE svg PUBLIC "-//W3C//DTD SVG 1.1//EN" "http://www.w3.org/Graphics/SVG/1.1/DTD/svg11.dtd">
<svg version="1.1" id="Layer_1" xmlns="http://www.w3.org/2000/svg" xmlns:xlink="http://www.w3.org/1999/xlink" x="0px" y="0px"
	 width="56px" height="56px" viewBox="0 0 56 56" enable-background="new 0 0 56 56" xml:space="preserve">
<g>
	<path fill="#FA930D" d="M39.141,22.749c-2.296-6.218-9.197-9.397-15.415-7.101c-6.218,2.296-9.399,9.198-7.105,15.413
		c2.295,6.218,9.197,9.407,15.414,7.106C38.251,35.873,41.434,28.967,39.141,22.749z M29.88,32.321
		c-2.99,1.106-6.309-0.427-7.413-3.417c-1.103-2.989,0.426-6.308,3.416-7.412c2.99-1.104,6.309,0.425,7.414,3.415
		C34.4,27.897,32.87,31.218,29.88,32.321z"/>
	<path fill="#FFFFFF" d="M52.022,12.147c-0.003-0.514-0.204-0.994-0.568-1.355c-0.366-0.361-0.848-0.559-1.361-0.558
		c-0.515,0.003-0.995,0.205-1.356,0.568l-2.962,2.989c-0.255-0.348-0.521-0.683-0.794-1.013l2.845-2.876
		c0.362-0.367,0.56-0.848,0.558-1.359c-0.002-0.514-0.203-0.995-0.566-1.355c-0.367-0.365-0.848-0.559-1.362-0.558
		c-0.514,0.002-0.995,0.206-1.355,0.566l-2.808,2.834c-0.327-0.279-0.665-0.542-1.007-0.8L44.189,6.3
		c0.363-0.366,0.56-0.848,0.559-1.36c-0.003-0.515-0.205-0.994-0.568-1.354c-0.367-0.365-0.846-0.56-1.363-0.557
		c-0.514,0-0.995,0.201-1.356,0.565l-3.518,3.551C32.62,4.438,26.237,3.85,20.193,6.08c-0.574,0.212-1.123,0.459-1.668,0.714
		L7.375,5.137l5.504,5.411c-0.454,0.417-0.88,0.856-1.294,1.305L6.086,6.447L7.87,17.325c-2.501,5.224-2.979,11.409-0.816,17.271
		c0.333,0.9,0.734,1.754,1.167,2.584l-3.634,3.67c-0.363,0.366-0.561,0.846-0.558,1.357c0.002,0.515,0.203,0.996,0.567,1.355
		c0.366,0.362,0.849,0.56,1.36,0.559c0.515-0.002,0.996-0.205,1.357-0.568l3.018-3.046c0.263,0.339,0.55,0.655,0.83,0.976
		l-2.938,2.97c-0.36,0.365-0.558,0.848-0.557,1.359c0.002,0.513,0.204,0.996,0.566,1.355c0.367,0.363,0.848,0.559,1.361,0.558
		c0.514-0.002,0.994-0.206,1.357-0.567l2.98-3.008c0.334,0.27,0.661,0.547,1.01,0.797l-3.078,3.111
		c-0.363,0.365-0.56,0.846-0.559,1.359c0.002,0.514,0.204,0.994,0.568,1.354c0.367,0.363,0.847,0.56,1.361,0.558
		c0.515-0.001,0.996-0.205,1.356-0.567l3.776-3.809c5.21,2.473,11.368,2.936,17.204,0.78c1.604-0.592,3.085-1.364,4.458-2.261
		c0.989,0.775,1.384,0.992,1.392,0.999c0.268,0.21,0.372,1.029-0.094,1.62l-0.513,0.656c-0.318,0.402-0.458,0.904-0.397,1.414
		c0.061,0.51,0.317,0.964,0.718,1.279c0.405,0.319,0.908,0.457,1.415,0.396c0.512-0.061,0.966-0.315,1.282-0.718l0.663-0.839
		c1.645-2.093,0.803-5.047-0.993-6.457c-0.006-0.005-0.059,0.044-0.717-0.472c1.551-1.407,2.876-3.017,3.96-4.771
		c0.587,0.459,0.578,0.362,0.584,0.366c0.267,0.211,0.373,1.026-0.093,1.621l-0.514,0.655c-0.318,0.405-0.458,0.905-0.398,1.414
		c0.061,0.511,0.318,0.964,0.72,1.28c0.404,0.317,0.905,0.458,1.415,0.396c0.511-0.06,0.963-0.315,1.279-0.716l0.663-0.839
		c1.645-2.097,0.805-5.048-0.994-6.459c-0.006-0.006-0.244-0.101-1.091-0.766c2.118-5.013,2.428-10.804,0.395-16.312
		c-0.26-0.704-0.553-1.384-0.874-2.044l3.63-3.67C51.826,13.141,52.024,12.659,52.022,12.147z M14.22,31.949
		c-2.786-7.546,1.072-15.919,8.617-18.706c7.545-2.784,15.92,1.075,18.706,8.62c2.784,7.545-1.074,15.919-8.62,18.706
		C25.381,43.354,17.006,39.496,14.22,31.949z"/>
</g>
</svg>
